<svg xmlns="http://www.w3.org/2000/svg" viewBox="0 0 609.67 284.89"><defs><style>.cls-1{fill:#231f20;}</style></defs><title>Asset 11</title><g id="Layer_2" data-name="Layer 2"><g id="Layer_1-2" data-name="Layer 1"><path class="cls-1" d="M126.89,284.63l-13.28-20.22c-1.27.09-2.61.18-4.05.18H92.76v20H85.54V221.46h24c15.78,0,24.9,7.75,24.9,21.2,0,10.37-5.14,17.51-14.26,20.39l14.9,21.57Zm-17.33-26.72c11.45,0,17.95-5.14,17.95-15.08,0-9.65-6.5-14.71-17.95-14.71H92.76v29.78Z"/><path class="cls-1" d="M216.88,268.48H182.49l-7,16.15h-7.66l28.34-63.17h7.48l28.25,63.17H224ZM214,261.79,199.64,229.3l-14.18,32.49Z"/><path class="cls-1" d="M326,253c0,18-14.18,31.59-32.77,31.59H268V221.46H293.5C311.91,221.46,326,235.07,326,253Zm-7.33.09c0-14.25-11.18-25-25.36-25H275.17V278h18.42C307.66,278,318.67,267.3,318.67,253.12Z"/><path class="cls-1" d="M408.22,221.46v6.67H372.56v21.2h31.86v6.59H372.56v22h36.82v6.67h-44V221.46Z"/><path class="cls-1" d="M475.46,278.31c12,0,19.23-7.22,19.23-19.67V221.46h7.22v37.18c0,16.52-9.93,26.26-26.45,26.26s-26.63-9.74-26.63-26.26V221.46h7.22v37.18C456.05,271.09,463.47,278.31,475.46,278.31Z"/><path class="cls-1" d="M554.71,221.46l23.11,45.84,23-45.84h8.84v63.17H603l-.09-52.53-23,45.86h-4.33L552.63,232.1v52.53h-6.87V221.46Z"/><path class="cls-1" d="M48.46,221.46v6.68H27.8v56.49H20.58V228.14H0v-6.68Z"/><path class="cls-1" d="M256.71,102.37C243.26,76.6,249.45,42.82,250.9,36L236.32,21.31c-1.79,8.3-10.08,52.43,7.45,86,11.74,22.49,34.09,51,57.38,64.95V154.08C283.11,143.3,265.8,119.78,256.71,102.37Z"/><path class="cls-1" d="M301.15,0,238,14.79l14.67,14.74,33.2-7.78v88.67a62.73,62.73,0,0,0,15.26,11.34Z"/><path class="cls-1" d="M353,102.37c13.45-25.76,7.27-59.55,5.81-66.41l14.58-14.65c1.79,8.3,10.08,52.43-7.45,86-11.74,22.49-34.09,51-57.38,64.95V154.08C326.56,143.3,343.87,119.78,353,102.37Z"/><path class="cls-1" d="M308.52,0l63.14,14.79L357,29.53l-33.2-7.78v88.67a62.73,62.73,0,0,1-15.26,11.34Z"/></g></g></svg>