<svg xmlns="http://www.w3.org/2000/svg" viewBox="0 0 609.67 95.97"><defs><style>.cls-1{fill:#fff;}</style></defs><title>Asset 18</title><g id="Layer_2" data-name="Layer 2"><g id="Layer_1-2" data-name="Layer 1"><path class="cls-1" d="M24.42,79.79h2.14V91.07a5.53,5.53,0,0,1-.47,2.44A4.22,4.22,0,0,1,24.92,95a4.11,4.11,0,0,1-1.5.76,5.88,5.88,0,0,1-1.47.21,4.58,4.58,0,0,1-2.82-.85,4,4,0,0,1-1.46-2.6l2.1-.47a2.49,2.49,0,0,0,.74,1.4,2.06,2.06,0,0,0,1.45.51,2.31,2.31,0,0,0,1.28-.31,2.2,2.2,0,0,0,.75-.81,3.47,3.47,0,0,0,.36-1.15,9.78,9.78,0,0,0,.09-1.31Z"/><path class="cls-1" d="M42.38,96a8.45,8.45,0,0,1-3.32-.64,7.62,7.62,0,0,1-2.6-1.75A8.09,8.09,0,0,1,34.77,91a9,9,0,0,1,0-6.55,8.13,8.13,0,0,1,1.69-2.63A7.62,7.62,0,0,1,39.06,80a9,9,0,0,1,6.64,0,7.64,7.64,0,0,1,2.6,1.75A8.13,8.13,0,0,1,50,84.41,9.06,9.06,0,0,1,50,91a8.09,8.09,0,0,1-1.69,2.63,7.64,7.64,0,0,1-2.6,1.75A8.46,8.46,0,0,1,42.38,96Zm0-2a5.76,5.76,0,0,0,4.32-1.85,5.94,5.94,0,0,0,1.2-2,7.21,7.21,0,0,0,0-4.87,5.94,5.94,0,0,0-1.2-2,5.92,5.92,0,0,0-8.64,0,6,6,0,0,0-1.2,2,7.25,7.25,0,0,0,0,4.87,6,6,0,0,0,1.2,2,5.81,5.81,0,0,0,1.87,1.34A5.73,5.73,0,0,0,42.38,94Z"/><path class="cls-1" d="M58.58,79.79h2.14V95.56H58.58Z"/><path class="cls-1" d="M69.67,79.79h2.81l8.69,13h0v-13h2.14V95.56H80.64l-8.78-13h0v13H69.67Z"/><path class="cls-1" d="M106.71,81.8h-5.08v-2h12.3v2h-5.08V95.56h-2.14Z"/><path class="cls-1" d="M121.1,79.79h2.14v6.55h8.18V79.79h2.14V95.56h-2.14V88.35h-8.18v7.22H121.1Z"/><path class="cls-1" d="M142.51,79.79H152.7v2h-8v4.7h7.49v2h-7.49v5.06h8.44v2H142.51Z"/><path class="cls-1" d="M171.77,79.79h5.5a10.22,10.22,0,0,1,2.93.37,7.72,7.72,0,0,1,2.18,1,6.32,6.32,0,0,1,1.54,1.46,7.74,7.74,0,0,1,1,1.69,8.56,8.56,0,0,1,.51,1.74,9,9,0,0,1,.16,1.6,8,8,0,0,1-.56,2.93,7.45,7.45,0,0,1-1.65,2.52,8.17,8.17,0,0,1-2.71,1.77,9.66,9.66,0,0,1-3.73.67h-5.15Zm2.14,13.77h2.7a8.74,8.74,0,0,0,2.57-.37,6.26,6.26,0,0,0,2.13-1.1,5.32,5.32,0,0,0,1.45-1.84,5.85,5.85,0,0,0,.54-2.58,7.68,7.68,0,0,0-.25-1.77,5.29,5.29,0,0,0-.92-1.93,5.5,5.5,0,0,0-1.88-1.55,6.68,6.68,0,0,0-3.12-.64h-3.21Z"/><path class="cls-1" d="M193.54,79.79h10.18v2h-8v4.7h7.49v2h-7.49v5.06h8.44v2H193.54Z"/><path class="cls-1" d="M223,83.2a4.43,4.43,0,0,0-1.69-1.34,5,5,0,0,0-2.12-.47,5.6,5.6,0,0,0-2.42.5A5.53,5.53,0,0,0,215,83.27a6.37,6.37,0,0,0-1.19,2,7.38,7.38,0,0,0-.42,2.51,6.94,6.94,0,0,0,.4,2.37,5.91,5.91,0,0,0,1.16,2,5.41,5.41,0,0,0,1.85,1.34,6,6,0,0,0,2.47.49,4.94,4.94,0,0,0,2.38-.56,5.18,5.18,0,0,0,1.74-1.56l1.8,1.36a7,7,0,0,1-.62.7,6.24,6.24,0,0,1-1.18.91,8.65,8.65,0,0,1-1.77.81,7.68,7.68,0,0,1-2.39.34,7.8,7.8,0,0,1-3.38-.71,8.17,8.17,0,0,1-4.18-4.49,8.23,8.23,0,0,1-.56-3,9.21,9.21,0,0,1,.6-3.37,8,8,0,0,1,1.68-2.68A7.57,7.57,0,0,1,216,80a8.74,8.74,0,0,1,3.34-.62,8.2,8.2,0,0,1,3.06.6,5.73,5.73,0,0,1,2.46,1.85Z"/><path class="cls-1" d="M232.64,79.79h10.18v2h-8v4.7h7.49v2h-7.49v5.06h8.44v2H232.64Z"/><path class="cls-1" d="M251.16,79.79H254l8.69,13h0v-13h2.14V95.56h-2.72l-8.78-13h0v13h-2.14Z"/><path class="cls-1" d="M277.09,81.8H272v-2h12.3v2h-5.08V95.56h-2.14Z"/><path class="cls-1" d="M291.49,79.79H297a6.49,6.49,0,0,1,2.49.41,4.3,4.3,0,0,1,1.55,1,3.61,3.61,0,0,1,.79,1.42,5.67,5.67,0,0,1,.22,1.53,4.12,4.12,0,0,1-1,2.72,4.29,4.29,0,0,1-1.23,1,4.2,4.2,0,0,1-1.62.48l4.48,7.2H300l-4-6.95h-2.38v6.95h-2.14Zm2.14,6.95h2.81a7.32,7.32,0,0,0,1.24-.1,3.49,3.49,0,0,0,1.09-.37,2,2,0,0,0,.77-.77,3.06,3.06,0,0,0,0-2.61,2,2,0,0,0-.77-.77,3.39,3.39,0,0,0-1.09-.37,8.35,8.35,0,0,0-1.24-.1h-2.81Z"/><path class="cls-1" d="M315,79.79h1.94l6.75,15.77h-2.5l-1.58-3.9h-7.51l-1.56,3.9H308Zm3.83,10-2.94-7.24h0l-3,7.24Z"/><path class="cls-1" d="M330.59,79.79h2.14V93.56H340v2h-9.38Z"/><path class="cls-1" d="M347.06,79.79h2.14V95.56h-2.14Z"/><path class="cls-1" d="M356.84,93.56l9-11.77h-8.71v-2h11.38v2l-8.93,11.77h9.07v2H356.84Z"/><path class="cls-1" d="M376.27,79.79h10.18v2h-8v4.7h7.49v2h-7.49v5.06h8.44v2H376.27Z"/><path class="cls-1" d="M394.43,79.79h5.5a10.22,10.22,0,0,1,2.93.37,7.72,7.72,0,0,1,2.18,1,6.32,6.32,0,0,1,1.54,1.46,7.74,7.74,0,0,1,1,1.69,8.56,8.56,0,0,1,.51,1.74,9,9,0,0,1,.16,1.6,8,8,0,0,1-.56,2.93A7.45,7.45,0,0,1,406,93.13a8.17,8.17,0,0,1-2.71,1.77,9.66,9.66,0,0,1-3.73.67h-5.15Zm2.14,13.77h2.7a8.74,8.74,0,0,0,2.57-.37,6.26,6.26,0,0,0,2.13-1.1,5.32,5.32,0,0,0,1.45-1.84,5.85,5.85,0,0,0,.54-2.58,7.68,7.68,0,0,0-.25-1.77,5.29,5.29,0,0,0-.92-1.93,5.5,5.5,0,0,0-1.88-1.55,6.68,6.68,0,0,0-3.12-.64h-3.21Z"/><path class="cls-1" d="M427.29,79.79h5.55a6.49,6.49,0,0,1,2.49.41,4.3,4.3,0,0,1,1.55,1,3.61,3.61,0,0,1,.79,1.42,5.67,5.67,0,0,1,.22,1.53,4.12,4.12,0,0,1-1,2.72,4.29,4.29,0,0,1-1.23,1,4.2,4.2,0,0,1-1.62.48l4.48,7.2h-2.67l-4-6.95h-2.38v6.95h-2.14Zm2.14,6.95h2.81a7.32,7.32,0,0,0,1.24-.1,3.49,3.49,0,0,0,1.09-.37,2,2,0,0,0,.77-.77,3.06,3.06,0,0,0,0-2.61,2,2,0,0,0-.77-.77,3.39,3.39,0,0,0-1.09-.37,8.35,8.35,0,0,0-1.24-.1h-2.81Z"/><path class="cls-1" d="M445.81,79.79H456v2h-8v4.7h7.49v2h-7.49v5.06h8.44v2H445.81Z"/><path class="cls-1" d="M462.17,79.79h2.47l4.63,12.83h0l4.81-12.83h2.34l-6.22,15.77h-2Z"/><path class="cls-1" d="M490.51,96a8.45,8.45,0,0,1-3.32-.64,7.62,7.62,0,0,1-2.6-1.75A8.09,8.09,0,0,1,482.9,91a9,9,0,0,1,0-6.55,8.13,8.13,0,0,1,1.69-2.63,7.62,7.62,0,0,1,2.6-1.75,9,9,0,0,1,6.64,0,7.64,7.64,0,0,1,2.6,1.75,8.13,8.13,0,0,1,1.69,2.63,9.06,9.06,0,0,1,0,6.55,8.09,8.09,0,0,1-1.69,2.63,7.64,7.64,0,0,1-2.6,1.75A8.46,8.46,0,0,1,490.51,96Zm0-2a5.76,5.76,0,0,0,4.32-1.85,5.94,5.94,0,0,0,1.2-2,7.21,7.21,0,0,0,0-4.87,5.94,5.94,0,0,0-1.2-2,5.92,5.92,0,0,0-8.64,0,6,6,0,0,0-1.2,2,7.25,7.25,0,0,0,0,4.87,6,6,0,0,0,1.2,2,5.81,5.81,0,0,0,1.87,1.34A5.73,5.73,0,0,0,490.51,94Z"/><path class="cls-1" d="M506.71,79.79h2.14V93.56h7.24v2h-9.38Z"/><path class="cls-1" d="M525,79.79v9.67a6.13,6.13,0,0,0,.2,1.52,4.38,4.38,0,0,0,.67,1.46,3.59,3.59,0,0,0,1.23,1.09,4.32,4.32,0,0,0,3.74,0,3.61,3.61,0,0,0,1.23-1.09,4.38,4.38,0,0,0,.67-1.46,6.24,6.24,0,0,0,.2-1.52V79.79h2.14v10a6.43,6.43,0,0,1-.47,2.51,5.89,5.89,0,0,1-1.29,1.95,5.68,5.68,0,0,1-1.94,1.27,6.74,6.74,0,0,1-4.81,0,5.68,5.68,0,0,1-1.94-1.27,5.89,5.89,0,0,1-1.29-1.95,6.43,6.43,0,0,1-.47-2.51v-10Z"/><path class="cls-1" d="M547.06,81.8H542v-2h12.3v2H549.2V95.56h-2.14Z"/><path class="cls-1" d="M561.45,79.79h2.14V95.56h-2.14Z"/><path class="cls-1" d="M579.79,96a8.45,8.45,0,0,1-3.32-.64,7.62,7.62,0,0,1-2.6-1.75A8.09,8.09,0,0,1,572.18,91a9,9,0,0,1,0-6.55,8.13,8.13,0,0,1,1.69-2.63,7.62,7.62,0,0,1,2.6-1.75,9,9,0,0,1,6.64,0,7.64,7.64,0,0,1,2.6,1.75,8.13,8.13,0,0,1,1.69,2.63,9.06,9.06,0,0,1,0,6.55,8.09,8.09,0,0,1-1.69,2.63,7.64,7.64,0,0,1-2.6,1.75A8.46,8.46,0,0,1,579.79,96Zm0-2a5.76,5.76,0,0,0,4.32-1.85,5.94,5.94,0,0,0,1.2-2,7.21,7.21,0,0,0,0-4.87,5.94,5.94,0,0,0-1.2-2,5.92,5.92,0,0,0-8.64,0,6,6,0,0,0-1.2,2,7.25,7.25,0,0,0,0,4.87,6,6,0,0,0,1.2,2,5.81,5.81,0,0,0,1.87,1.34A5.73,5.73,0,0,0,579.79,94Z"/><path class="cls-1" d="M596,79.79h2.81l8.69,13h0v-13h2.14V95.56H607l-8.78-13h0v13H596Z"/><path class="cls-1" d="M126.89,63.17,113.61,43c-1.27.09-2.61.18-4.05.18H92.76v20H85.54V0h24c15.78,0,24.9,7.75,24.9,21.2,0,10.37-5.14,17.51-14.26,20.39l14.9,21.57ZM109.56,36.45c11.45,0,17.95-5.14,17.95-15.08,0-9.65-6.5-14.71-17.95-14.71H92.76V36.45Z"/><path class="cls-1" d="M216.88,47H182.49l-7,16.15h-7.66L196.12,0h7.48l28.25,63.17H224ZM214,40.33,199.64,7.84,185.46,40.33Z"/><path class="cls-1" d="M326,31.58c0,18-14.18,31.59-32.77,31.59H268V0H293.5C311.91,0,326,13.61,326,31.58Zm-7.33.09c0-14.25-11.18-25-25.36-25H275.17V56.5h18.42C307.66,56.5,318.67,45.84,318.67,31.66Z"/><path class="cls-1" d="M408.22,0V6.67H372.56v21.2h31.86v6.59H372.56v22h36.82v6.67h-44V0Z"/><path class="cls-1" d="M475.46,56.85c12,0,19.23-7.22,19.23-19.67V0h7.22V37.18c0,16.52-9.93,26.26-26.45,26.26s-26.63-9.74-26.63-26.26V0h7.22V37.18C456.05,49.63,463.47,56.85,475.46,56.85Z"/><path class="cls-1" d="M554.71,0l23.11,45.84L600.83,0h8.84V63.17H603l-.09-52.53-23,45.86h-4.33L552.63,10.64V63.17h-6.87V0Z"/><path class="cls-1" d="M48.46,0V6.68H27.8V63.17H20.58V6.68H0V0Z"/></g></g></svg>