<?xml version="1.0" encoding="iso-8859-1"?>
<!-- Generator: Adobe Illustrator 18.1.1, SVG Export Plug-In . SVG Version: 6.00 Build 0)  -->
<svg xmlns="http://www.w3.org/2000/svg" xmlns:xlink="http://www.w3.org/1999/xlink" version="1.1" id="Capa_1" x="0px" y="0px" viewBox="0 0 612.001 612.001" style="enable-background:new 0 0 612.001 612.001;" xml:space="preserve" width="512px" height="512px">
<path d="M609.247,314.664l-148.93-148.928c-3.672-3.671-9.627-3.672-13.299,0.001L306.001,306.753L164.984,165.737  c-3.673-3.672-9.627-3.673-13.299-0.001L2.755,314.664C0.991,316.429,0,318.821,0,321.315c0,2.494,0.991,4.886,2.755,6.651  l118.298,118.298c1.764,1.765,4.155,2.755,6.65,2.755c2.494,0,4.886-0.991,6.649-2.755l142.279-142.279l16.07,16.07l-96.84,96.84  c-3.673,3.673-3.673,9.627,0,13.3c1.836,1.836,4.243,2.753,6.649,2.753c2.406,0,4.814-0.919,6.65-2.753l96.842-96.842l96.842,96.842  c1.836,1.836,4.244,2.753,6.65,2.753s4.814-0.919,6.65-2.753c3.673-3.673,3.673-9.627,0-13.3l-96.84-96.84l16.07-16.07  L477.65,446.264c1.764,1.765,4.155,2.755,6.65,2.755c2.494,0,4.886-0.991,6.65-2.755l118.298-118.298  c1.764-1.765,2.755-4.157,2.755-6.651C612.001,318.821,611.009,316.429,609.247,314.664z M233.542,320.475l-32.785-32.783  l-37.497,37.495l32.785,32.785l-37.495,37.497l-32.785-32.785L94.919,393.53L55.491,354.1l30.842-30.842l39.427,39.427  l37.496-37.496l-39.429-39.429l-37.493,37.493l-32.783-32.783l37.497-37.495l32.785,32.785l37.497-37.497l-32.785-32.785  l29.79-29.79l32.785,32.785l-29.79,29.79l39.43,39.43l29.79-29.791l32.785,32.785L233.542,320.475z M556.514,354.1l-39.428,39.43  l-30.846-30.846l-32.785,32.785l-37.495-37.497l32.785-32.785l-37.497-37.495l-32.785,32.783l-29.79-29.79l32.782-32.785  l29.79,29.791l39.43-39.43l-29.79-29.79l32.785-32.785l29.79,29.79l-32.785,32.785l37.496,37.496l-39.424,39.424l37.495,37.495  l39.429-39.429l-37.495-37.495l32.78-32.78l37.497,37.495l-32.785,32.785L556.514,354.1z" fill="#FFFFFF"/>
<g>
</g>
<g>
</g>
<g>
</g>
<g>
</g>
<g>
</g>
<g>
</g>
<g>
</g>
<g>
</g>
<g>
</g>
<g>
</g>
<g>
</g>
<g>
</g>
<g>
</g>
<g>
</g>
<g>
</g>
</svg>
