<?xml version="1.0" encoding="iso-8859-1"?>
<!-- Generator: Adobe Illustrator 19.0.0, SVG Export Plug-In . SVG Version: 6.00 Build 0)  -->
<svg version="1.1" id="Capa_1" xmlns="http://www.w3.org/2000/svg" xmlns:xlink="http://www.w3.org/1999/xlink" x="0px" y="0px"
	 viewBox="0 0 232.068 232.068" fill="#fff" style="enable-background:new 0 0 232.068 232.068;" xml:space="preserve">
<g>
	<path d="M116.034,0C52.053,0,0,52.053,0,116.034s52.053,116.034,116.033,116.034c63.981,0,116.034-52.053,116.034-116.034
		S180.015,0,116.034,0z M106.701,9.034h18v18h-18V9.034z M197.07,116.034c0,44.684-36.353,81.036-81.036,81.036
		c-44.683,0-81.035-36.353-81.035-81.036s36.353-81.036,81.035-81.036C160.717,34.998,197.07,71.351,197.07,116.034z M46.738,34.01
		l12.728,12.728L46.738,59.466L34.01,46.738L46.738,34.01z M26.701,125.034h-18v-18h18V125.034z M46.738,198.059L34.01,185.331
		l12.728-12.728l12.728,12.728L46.738,198.059z M124.701,223.034h-18v-18h18V223.034z M185.33,198.059l-12.728-12.728l12.728-12.728
		l12.728,12.728L185.33,198.059z M185.33,59.466l-12.728-12.728L185.33,34.01l12.728,12.728L185.33,59.466z M204.701,125.034v-18h18
		v18H204.701z"/>
	<rect x="128.701" y="93.034" width="12" height="46"/>
	<path d="M49.999,116.034c0,36.412,29.623,66.036,66.035,66.036s66.036-29.624,66.036-66.036s-29.624-66.036-66.036-66.036
		S49.999,79.622,49.999,116.034z M111.701,93.034H91.643l-0.602,14h15.284c3.798,0,5.375,2.013,5.375,5.809v28.844
		c0,3.827-1.577,5.346-5.375,5.346H87.511c-3.718,0-5.81-1.52-5.81-5.346v-14.654h9v12h12v-24H81.934l1.003-30h28.764V93.034z
		 M118.701,90.42c0-3.851,2.521-5.386,6.319-5.386h19.457c3.772,0,5.224,1.535,5.224,5.386v51.268c0,3.827-1.453,5.346-5.224,5.346
		h-19.577c-3.717,0-6.198-1.52-6.198-5.346V90.42z"/>
</g>
<g>
</g>
<g>
</g>
<g>
</g>
<g>
</g>
<g>
</g>
<g>
</g>
<g>
</g>
<g>
</g>
<g>
</g>
<g>
</g>
<g>
</g>
<g>
</g>
<g>
</g>
<g>
</g>
<g>
</g>
</svg>
