<?xml version="1.0" encoding="iso-8859-1"?>
<!-- Generator: Adobe Illustrator 19.0.0, SVG Export Plug-In . SVG Version: 6.00 Build 0)  -->
<svg xmlns="http://www.w3.org/2000/svg" xmlns:xlink="http://www.w3.org/1999/xlink" version="1.1" id="Capa_1" x="0px" y="0px" viewBox="0 0 511.972 511.972" style="enable-background:new 0 0 511.972 511.972;" xml:space="preserve" width="512px" height="512px">
<g>
	<g>
		<path d="M484.216,279.985h-0.086c-2.203,0-3.953,1.789-3.953,4c0,2.21,1.828,3.999,4.039,3.999c2.204,0,3.999-1.789,3.999-3.999    C488.215,281.774,486.419,279.985,484.216,279.985z" fill="#FFFFFF"/>
	</g>
</g>
<g>
	<g>
		<path d="M484.216,295.984h-0.086c-2.203,0-3.953,1.789-3.953,4s1.828,4,4.039,4c2.204,0,3.999-1.789,3.999-4    S486.419,295.984,484.216,295.984z" fill="#FFFFFF"/>
	</g>
</g>
<g>
	<g>
		<path d="M484.216,311.983h-0.086c-2.203,0-3.953,1.789-3.953,4s1.828,4,4.039,4c2.204,0,3.999-1.789,3.999-4    S486.419,311.983,484.216,311.983z" fill="#FFFFFF"/>
	</g>
</g>
<g>
	<g>
		<path d="M484.216,327.982h-0.086c-2.203,0-3.953,1.789-3.953,4s1.828,4,4.039,4c2.204,0,3.999-1.789,3.999-4    S486.419,327.982,484.216,327.982z" fill="#FFFFFF"/>
	</g>
</g>
<g>
	<g>
		<path d="M484.216,343.982h-0.086c-2.203,0-3.953,1.788-3.953,3.999s1.828,4,4.039,4c2.204,0,3.999-1.789,3.999-4    S486.419,343.982,484.216,343.982z" fill="#FFFFFF"/>
	</g>
</g>
<g>
	<g>
		<path d="M484.216,359.98h-0.086c-2.203,0-3.953,1.789-3.953,4s1.828,4,4.039,4c2.204,0,3.999-1.789,3.999-4    S486.419,359.98,484.216,359.98z" fill="#FFFFFF"/>
	</g>
</g>
<g>
	<g>
		<path d="M484.216,375.98h-0.086c-2.203,0-3.953,1.789-3.953,4c0,2.21,1.828,3.999,4.039,3.999c2.204,0,3.999-1.789,3.999-3.999    C488.215,377.769,486.419,375.98,484.216,375.98z" fill="#FFFFFF"/>
	</g>
</g>
<g>
	<g>
		<path d="M484.216,391.979h-0.086c-2.203,0-3.953,1.789-3.953,3.999c0,2.211,1.828,4,4.039,4c2.204,0,3.999-1.789,3.999-4    C488.215,393.768,486.419,391.979,484.216,391.979z" fill="#FFFFFF"/>
	</g>
</g>
<g>
	<g>
		<path d="M484.216,407.978h-0.086c-2.203,0-3.953,1.789-3.953,4s1.828,4,4.039,4c2.204,0,3.999-1.789,3.999-4    S486.419,407.978,484.216,407.978z" fill="#FFFFFF"/>
	</g>
</g>
<g>
	<g>
		<path d="M484.216,423.977h-0.086c-2.203,0-3.953,1.789-3.953,4s1.828,4,4.039,4c2.204,0,3.999-1.789,3.999-4    S486.419,423.977,484.216,423.977z" fill="#FFFFFF"/>
	</g>
</g>
<g>
	<g>
		<path d="M452.217,423.977h-0.086c-2.202,0-3.952,1.789-3.952,4s1.828,4,4.038,4c2.204,0,4-1.789,4-4    S454.42,423.977,452.217,423.977z" fill="#FFFFFF"/>
	</g>
</g>
<g>
	<g>
		<path d="M468.216,423.977h-0.086c-2.203,0-3.953,1.789-3.953,4s1.828,4,4.039,4c2.204,0,4-1.789,4-4    S470.419,423.977,468.216,423.977z" fill="#FFFFFF"/>
	</g>
</g>
<g>
	<g>
		<path d="M436.218,423.977h-0.086c-2.203,0-3.953,1.789-3.953,4s1.828,4,4.039,4c2.204,0,4-1.789,4-4    S438.421,423.977,436.218,423.977z" fill="#FFFFFF"/>
	</g>
</g>
<g>
	<g>
		<path d="M420.219,423.977h-0.086c-2.203,0-3.953,1.789-3.953,4s1.828,4,4.039,4c2.204,0,4-1.789,4-4    S422.422,423.977,420.219,423.977z" fill="#FFFFFF"/>
	</g>
</g>
<g>
	<g>
		<path d="M404.22,423.977h-0.086c-2.203,0-3.953,1.789-3.953,4s1.828,4,4.039,4c2.204,0,4-1.789,4-4    S406.423,423.977,404.22,423.977z" fill="#FFFFFF"/>
	</g>
</g>
<g>
	<g>
		<path d="M388.221,423.977h-0.086c-2.203,0-3.953,1.789-3.953,4s1.828,4,4.039,4c2.203,0,3.999-1.789,3.999-4    S390.424,423.977,388.221,423.977z" fill="#FFFFFF"/>
	</g>
</g>
<g>
	<g>
		<path d="M372.222,423.977h-0.086c-2.203,0-3.953,1.789-3.953,4s1.828,4,4.039,4c2.203,0,4-1.789,4-4    S374.425,423.977,372.222,423.977z" fill="#FFFFFF"/>
	</g>
</g>
<g>
	<g>
		<path d="M172.233,431.977h-0.086c-2.203,0-3.953,1.788-3.953,3.999s1.829,4,4.039,4c2.203,0,4-1.789,4-4    S174.436,431.977,172.233,431.977z" fill="#FFFFFF"/>
	</g>
</g>
<g>
	<g>
		<path d="M226.816,257.158c-1.562-1.562-4.094-1.562-5.656,0L117.165,361.152c-1.562,1.562-1.562,4.094,0,5.656    c0.781,0.781,1.805,1.172,2.828,1.172c1.024,0,2.047-0.39,2.828-1.172l103.995-103.994    C228.378,261.252,228.378,258.72,226.816,257.158z" fill="#FFFFFF"/>
	</g>
</g>
<g>
	<g>
		<path d="M218.816,313.155c-1.562-1.562-4.094-1.562-5.656,0l-39.998,39.998c-1.562,1.562-1.562,4.094,0,5.656    c0.781,0.78,1.805,1.171,2.828,1.171c1.023,0,2.047-0.39,2.828-1.171l39.998-39.998    C220.378,317.249,220.378,314.717,218.816,313.155z" fill="#FFFFFF"/>
	</g>
</g>
<g>
	<g>
		<path d="M170.819,265.158c-1.562-1.562-4.094-1.562-5.656,0l-39.998,39.998c-1.562,1.562-1.562,4.093,0,5.655    c0.781,0.781,1.805,1.172,2.828,1.172s2.047-0.391,2.828-1.172l39.998-39.997C172.381,269.252,172.381,266.72,170.819,265.158z" fill="#FFFFFF"/>
	</g>
</g>
<g>
	<g>
		<path d="M339.982,415.853H4c-2.211,0-4,1.789-4,3.999c0,2.211,1.789,4,4,4h335.982c2.21,0,3.999-1.789,3.999-4    C343.981,417.642,342.192,415.853,339.982,415.853z" fill="#FFFFFF"/>
	</g>
</g>
<g>
	<g>
		<path d="M133.009,459.967c-2.18-0.524-4.321,0.766-4.852,2.914l-8,31.998c-0.531,2.141,0.766,4.313,2.914,4.852    c0.328,0.078,0.649,0.117,0.969,0.117c1.797,0,3.429-1.211,3.883-3.031l8-31.998C136.454,462.678,135.157,460.506,133.009,459.967    z" fill="#FFFFFF"/>
	</g>
</g>
<g>
	<g>
		<path d="M223.823,494.879l-8-31.998c-0.539-2.148-2.75-3.437-4.851-2.914c-2.148,0.54-3.445,2.711-2.914,4.852l8,31.998    c0.453,1.82,2.086,3.031,3.883,3.031c0.32,0,0.649-0.039,0.968-0.117C223.057,499.191,224.354,497.02,223.823,494.879z" fill="#FFFFFF"/>
	</g>
</g>
<g>
	<g>
		<path d="M243.987,503.973H99.932c-2.211,0-4,1.788-4,3.999s1.79,4,4,4h144.055c2.21,0,4-1.789,4-4    S246.197,503.973,243.987,503.973z" fill="#FFFFFF"/>
	</g>
</g>
<g>
	<g>
		<path d="M323.982,215.988H19.999c-2.211,0-4,1.789-4,4v183.99c0,2.211,1.789,4,4,4h303.983c2.211,0,4-1.789,4-4v-183.99    C327.982,217.777,326.193,215.988,323.982,215.988z M319.982,399.978H23.999v-175.99h295.983V399.978z" fill="#FFFFFF"/>
	</g>
</g>
<g>
	<g>
		<path d="M323.982,199.989H19.999C8.968,199.989,0,208.962,0,219.988v215.988c0,11.031,8.968,19.999,19.999,19.999h303.983    c11.031,0,19.999-8.968,19.999-19.999V219.988C343.981,208.962,335.013,199.989,323.982,199.989z M335.982,435.976    c0,6.617-5.383,12-12,12H19.999c-6.618,0-12-5.383-12-12V219.988c0-6.617,5.383-11.999,12-11.999h303.983    c6.617,0,12,5.382,12,11.999V435.976z" fill="#FFFFFF"/>
	</g>
</g>
<g>
	<g>
		<path d="M394.806,57.169c-1.562-1.562-4.093-1.562-5.655,0L285.156,161.163c-1.562,1.562-1.562,4.094,0,5.656    c0.781,0.781,1.805,1.172,2.828,1.172s2.047-0.391,2.828-1.172L394.806,62.825C396.368,61.263,396.368,58.731,394.806,57.169z" fill="#FFFFFF"/>
	</g>
</g>
<g>
	<g>
		<path d="M386.807,113.165c-1.562-1.562-4.094-1.562-5.656,0l-39.998,39.998c-1.562,1.563-1.562,4.094,0,5.656    c0.781,0.781,1.805,1.172,2.828,1.172c1.024,0,2.047-0.39,2.828-1.172l39.998-39.998    C388.369,117.259,388.369,114.727,386.807,113.165z" fill="#FFFFFF"/>
	</g>
</g>
<g>
	<g>
		<path d="M338.81,65.168c-1.562-1.562-4.094-1.562-5.656,0l-39.998,39.998c-1.562,1.563-1.562,4.094,0,5.656    c0.781,0.781,1.805,1.172,2.828,1.172s2.047-0.391,2.828-1.172l39.998-39.998C340.372,69.261,340.372,66.73,338.81,65.168z" fill="#FFFFFF"/>
	</g>
</g>
<g>
	<g>
		<path d="M507.972,215.863H355.98c-2.21,0-3.999,1.789-3.999,4s1.789,4,3.999,4h151.992c2.211,0,4-1.789,4-4    S510.183,215.863,507.972,215.863z" fill="#FFFFFF"/>
	</g>
</g>
<g>
	<g>
		<path d="M391.814,294.89l-7.999-31.998c-0.54-2.144-2.743-3.465-4.852-2.91c-2.147,0.536-3.444,2.707-2.913,4.848l7.999,31.998    c0.453,1.82,2.086,3.031,3.883,3.031c0.321,0,0.649-0.039,0.969-0.117C391.048,299.202,392.345,297.031,391.814,294.89z" fill="#FFFFFF"/>
	</g>
</g>
<g>
	<g>
		<path d="M411.978,303.984h-56.061c-2.21,0-3.999,1.789-3.999,4c0,2.21,1.789,3.999,3.999,3.999h56.061    c2.21,0,3.999-1.789,3.999-3.999C415.977,305.773,414.188,303.984,411.978,303.984z" fill="#FFFFFF"/>
	</g>
</g>
<g>
	<g>
		<path d="M491.973,15.999H187.99c-2.211,0-4,1.789-4,4s1.789,4,4,4h299.983v175.99H355.98c-2.21,0-3.999,1.789-3.999,4    s1.789,4,3.999,4h135.993c2.211,0,4-1.789,4-4V19.999C495.973,17.788,494.184,15.999,491.973,15.999z" fill="#FFFFFF"/>
	</g>
</g>
<g>
	<g>
		<path d="M491.972,0H187.989c-11.031,0-19.999,8.973-19.999,19.999V187.99c0,2.211,1.79,4,4,4c2.211,0,4-1.789,4-4V19.999    c0-6.617,5.383-11.999,12-11.999h303.983c6.617,0,11.999,5.382,11.999,11.999v215.987c0,6.617-5.382,12-11.999,12H355.98    c-2.21,0-3.999,1.789-3.999,4s1.789,4,3.999,4h135.993c11.031,0,19.999-8.972,19.998-19.999V19.999    C511.971,8.973,503.002,0,491.972,0z" fill="#FFFFFF"/>
	</g>
</g>
<g>
	<g>
		<path d="M187.99,15.999c-2.211,0-4,1.789-4,4V187.99c0,2.211,1.789,4,4,4c2.21,0,3.999-1.789,4-4V19.999    C191.99,17.788,190.2,15.999,187.99,15.999z" fill="#FFFFFF"/>
	</g>
</g>
<g>
</g>
<g>
</g>
<g>
</g>
<g>
</g>
<g>
</g>
<g>
</g>
<g>
</g>
<g>
</g>
<g>
</g>
<g>
</g>
<g>
</g>
<g>
</g>
<g>
</g>
<g>
</g>
<g>
</g>
</svg>
