<?xml version="1.0" encoding="iso-8859-1"?>
<!-- Generator: Adobe Illustrator 19.0.0, SVG Export Plug-In . SVG Version: 6.00 Build 0)  -->
<svg xmlns="http://www.w3.org/2000/svg" xmlns:xlink="http://www.w3.org/1999/xlink" version="1.1" id="Capa_1" x="0px" y="0px" viewBox="0 0 512 512"  xml:space="preserve" width="512px" height="512px" fill="#fff">
<g>
	<g>
		<path d="M199.887,0.001H39.564C17.749,0.001,0,17.75,0,39.565v160.322c0,21.815,17.749,39.564,39.564,39.564h160.322    c21.816,0.001,39.565-17.748,39.565-39.563V39.565C239.451,17.75,221.702,0.001,199.887,0.001z M224.45,199.887    c0,13.545-11.02,24.564-24.564,24.564H39.564C26.02,224.452,15,213.433,15,199.887V39.565c0-13.544,11.02-24.564,24.564-24.564    h160.322c13.545,0,24.564,11.02,24.564,24.564V199.887z" fill="#6d767a"/>
	</g>
</g>
<g>
	<g>
		<path d="M472.436,272.55H312.113c-21.815,0-39.564,17.749-39.564,39.564v160.322c0,21.815,17.749,39.564,39.564,39.564h160.322    C494.251,512,512,494.251,512,472.436V312.113C512,290.298,494.251,272.55,472.436,272.55z M472.436,497.001H312.113    c-13.545,0-24.564-11.02-24.564-24.564V312.113c0-13.545,11.02-24.564,24.564-24.564h160.322c13.545,0,24.564,11.02,24.564,24.564    v160.323H497C497,485.98,485.98,497.001,472.436,497.001z" fill="#6d767a"/>
	</g>
</g>
<g>
	<g>
		<path d="M127.226,114.539V71.965c9.78,2.26,17.064,8.763,17.064,16.198c0,4.143,3.357,7.5,7.5,7.5s7.5-3.357,7.5-7.5    c0-15.594-13.824-28.616-32.064-31.464v-1.102c0-4.143-3.357-7.5-7.5-7.5s-7.5,3.357-7.5,7.5v1.102    c-18.24,2.848-32.064,15.87-32.064,31.464c0,21.138,15.195,30.153,32.064,36.752v42.574c-9.781-2.26-17.064-8.764-17.064-16.199    c0-4.143-3.357-7.5-7.5-7.5s-7.5,3.357-7.5,7.5c0,15.594,13.824,28.617,32.064,31.465v1.101c0,4.143,3.357,7.5,7.5,7.5    s7.5-3.357,7.5-7.5v-1.101c18.24-2.848,32.064-15.871,32.064-31.465C159.29,130.152,144.095,121.138,127.226,114.539z     M112.225,108.633c-12.842-5.83-17.064-11.327-17.064-20.47c0-7.435,7.284-13.938,17.064-16.198V108.633z M127.226,167.488    v-36.669c12.842,5.831,17.064,11.328,17.064,20.47C144.29,158.725,137.006,165.228,127.226,167.488z" fill="#6d767a"/>
	</g>
</g>
<g>
	<g>
		<path d="M426.915,379.907c3.1-4.455,4.924-9.861,4.924-15.688c0-11.078-6.579-20.643-16.031-25.01v-11.062    c0-4.143-3.357-7.5-7.5-7.5s-7.5,3.357-7.5,7.5v8.532h-17.064v-8.532c0-4.143-3.357-7.5-7.5-7.5s-7.5,3.357-7.5,7.5v8.532h-8.533    c-4.143,0-7.5,3.357-7.5,7.5s3.357,7.5,7.5,7.5h0.516v81.193h-0.516c-4.143,0-7.5,3.357-7.5,7.5s3.357,7.5,7.5,7.5h8.533v8.532    c0,4.143,3.357,7.5,7.5,7.5s7.5-3.357,7.5-7.5v-8.532h17.064v8.532c0,4.143,3.357,7.5,7.5,7.5s7.5-3.357,7.5-7.5v-8.706    c17.973-1.761,32.063-16.956,32.063-35.383C447.871,397.91,439.257,385.49,426.915,379.907z M375.726,351.679h28.573v0    c6.915,0,12.54,5.625,12.54,12.54c0,6.915-5.625,12.54-12.54,12.54h-28.573V351.679z M412.314,432.871h-36.589v-41.113h36.589    c11.335,0,20.557,9.222,20.557,20.557S423.649,432.871,412.314,432.871z" fill="#6d767a"/>
	</g>
</g>
<g>
	<g>
		<path d="M247.981,384.775h-80.159c-22.385,0-40.597-18.212-40.597-40.597v-80.159c0-4.143-3.357-7.5-7.5-7.5    c-4.143,0-7.5,3.357-7.5,7.5v80.159c0,30.656,24.94,55.597,55.597,55.597h80.159c4.143,0,7.5-3.357,7.5-7.5    S252.124,384.775,247.981,384.775z" fill="#6d767a"/>
	</g>
</g>
<g>
	<g>
		<path d="M344.177,112.225h-80.159c-4.143,0-7.5,3.357-7.5,7.5c0,4.143,3.357,7.5,7.5,7.5h80.159    c22.386,0.001,40.597,18.213,40.597,40.597v80.159c0,4.143,3.357,7.5,7.5,7.5s7.5-3.357,7.5-7.5v-80.159    C399.774,137.167,374.834,112.225,344.177,112.225z" fill="#6d767a"/>
	</g>
</g>
<g>
</g>
<g>
</g>
<g>
</g>
<g>
</g>
<g>
</g>
<g>
</g>
<g>
</g>
<g>
</g>
<g>
</g>
<g>
</g>
<g>
</g>
<g>
</g>
<g>
</g>
<g>
</g>
<g>
</g>
</svg>
