<?xml version="1.0" encoding="iso-8859-1"?>
<!-- Generator: Adobe Illustrator 16.0.0, SVG Export Plug-In . SVG Version: 6.00 Build 0)  -->
<!DOCTYPE svg PUBLIC "-//W3C//DTD SVG 1.1//EN" "http://www.w3.org/Graphics/SVG/1.1/DTD/svg11.dtd">
<svg xmlns="http://www.w3.org/2000/svg" xmlns:xlink="http://www.w3.org/1999/xlink" version="1.1" id="Capa_1" x="0px" y="0px" width="512px" height="512px" viewBox="0 0 125.263 125.263" style="enable-background:new 0 0 125.263 125.263;" xml:space="preserve">
<g>
	<g>
		<polygon points="52.478,11.76 52.552,12.288 51.775,12.446 51.661,13.562 52.612,13.562 53.866,13.445 54.514,12.674     53.82,12.403 53.44,11.972 52.869,11.067 52.612,9.76 51.542,9.98 51.244,10.438 51.244,10.947 51.755,11.309   " fill="#FFFFFF"/>
		<polygon points="51.58,12.19 51.632,11.487 51.018,11.222 50.14,11.421 49.49,12.456 49.49,13.133 50.249,13.133   " fill="#FFFFFF"/>
		<path d="M33.441,15.656h-0.926v0.482h0.223c0,0,0.016,0.1,0.03,0.232l0.574-0.052l0.342-0.213l0.104-0.45l0.454-0.035l0.185-0.382    L34,15.146l-0.36,0.011L33.441,15.656z" fill="#FFFFFF"/>
		<polygon points="31.202,16.503 31.885,16.445 31.941,15.975 31.534,15.656 31.242,16.039   " fill="#FFFFFF"/>
		<polygon points="98.918,39.223 99.107,39.827 103.977,40.041 102.355,39.009 100.369,39.07 100.291,37.988 100.613,38.128     101.391,38.039 101.311,37.048 99.152,37.072 98.568,36.295 98.596,35.879 95.822,33.382 95.129,33.922 99.107,38.773     99.666,38.961 99.666,39.223   " fill="#FFFFFF"/>
		<polygon points="105.822,33.6 105.486,33.462 105.326,32.629 104.837,32.629 104.525,33.466 104.154,33.799 101.336,35.334     101.336,36.845 102.273,38.089 104.645,38.089 104.951,37.316 105.486,36.83 105.486,36.473 105.822,36.261   " fill="#FFFFFF"/>
		<polygon points="107.576,36.261 106.15,36.81 106.18,37.128 105.822,37.128 105.822,39.099 106.542,39.099 106.443,37.84     107.003,38.049 107.003,38.93 107.596,38.891   " fill="#FFFFFF"/>
		<polygon points="113.924,54.668 112.679,54.534 111.361,56 112.763,56.146 113.895,55.526   " fill="#FFFFFF"/>
		<path d="M124.859,52.112l-0.582,0.113l-0.019-1.317l-1.073,0.069l-0.144,2.062l-0.94,0.645l-1.75,0.237l-2.111,1.503    c0.131-1.62,0.203-3.253,0.197-4.9l0.19-0.18l0.951-2.149l-0.392-1.59l-0.973-0.831c-0.014-0.151-0.018-0.302-0.031-0.454    l-0.445,0.043l-0.004-0.002l-0.112-2.372l-0.951-1.64l-0.86-0.044l-0.357,2.977l-1.635-0.119l-0.476-0.283l-0.045-1.174    l0.86,0.179l0.74-0.718l-1.572-0.947h-1.832l-1.322,1.883h-0.529v-0.595l-1.596,0.114l-2.504,2.848l-1.331,0.029l-1.481,1.011    l-0.094,4.428l-0.9,0.861v0.778l4.318-1.48l3.489-0.14l1.292,2.849l3.97,0.134l1.243-1.171    c-0.889,24.056-16.984,45.265-19.544,48.486c-2.905-2.826-7.81-5.213-13.967-6.863c3.021-12.379,8.692-39.362,7.047-61.508    l0.073-0.771l-0.977-0.188l-0.193,0.272l-0.362,0.029l0.397-0.575l0.433-3.254l0.817-1.751l1.312-0.492l2.312,0.223l2.916,2.587    v3.703l3.84,3.686l0.203-0.654l-3.121-4.438l0.328-1.298l1.646,1.87l0.916,0.094l1.209-0.803l-0.199-1.209l-2.002-1.602    l-0.077-1.456l0.569-0.765l1.002,0.319l-0.076,0.684l0.573,0.889l0.512-0.366l-0.282-1.05l2.828-1.015l1.238-1.034l-0.193-1.873    l-2.457-2.586l-0.045-2.104h1.09l3.398,2.586l0.961-0.252l-0.645-0.833l-1.816-1.106l0.113-1.647l2.154,0.005l0.176-2.04    l-0.824-1.075l0.49-0.53l1.045,1.055l0.342-0.445l-1.361-1.536l-3.328-0.402l-0.447-0.891l0.967-1.378l0.764,0.575l2.309,0.199    l2.904-1.939l0.483,0.604l-0.647,1.015v1.003l2.67,2.183l0.848-0.442l-0.317-1.456l-1.901-1.776l2.508-0.168V8.541l1.201-0.245    l-0.922-0.639l0.035-0.49l2.557,0.409l0.486-0.409l-3.443-1.452L102.052,5.07l-1.165-0.595L99.02,4.19l-1.391-0.045l-1.273,1.284    l-0.529-0.04l-1.689-1.253h-4.973l-2.305-1.379l-4.615,0.29L78.74,4.625l0.021,1.815l-1.085,0.325l-0.241-1.822l-0.408-0.628    l-1.203-0.3l-0.282,1.09L75.896,6l-4.311-0.285l-2.053,0.949l-0.312-0.899l-0.521,0.133l-0.377,0.999L67.25,7.738l-2.625-0.072    l-0.124-0.582l2.754-0.116l0.56-0.483l-3.313-1.542l-4.038,0.122l-2.26,1.156l-0.851,1.517l-1.506,0.584l-0.628,0.689l0.143,0.798    l0.777,0.105l0.47,1.167l1.317-0.537l0.234,1.555h-0.418l-1.083-0.162L55.45,12.14l-1.171,1.652l-1.684,0.27l-0.238,1.432    l0.715,0.166l-0.204,0.925l-1.674-0.33l-1.526,0.33l-0.317,0.852l0.258,1.786l0.906,0.42l1.497-0.004l1.02-0.098l0.313-0.812    l1.583-2.054l1.046,0.214L57,15.96l0.191,0.726l2.528,1.709l-0.313,0.416l-1.138-0.065l0.431,0.623l0.707,0.154l0.822-0.343    l-0.014-0.992l0.372-0.184l-0.304-0.315l-1.688-0.938l-0.436-1.256h1.396l0.445,0.44l1.216,1.046l0.042,1.263l1.259,1.332    l0.466-1.826l0.868-0.478l0.163,1.496l0.849,0.933l2.555-0.039l0.759,0.562v1.341l-0.933,0.847h-2.59l-1.577-1.177l-1.654,0.167    v1.01h-0.53l-0.561-0.405l-2.87-0.731v-1.855l-3.646,0.282l-1.13,0.604h-1.436l-0.713-0.071l-1.754,0.975v1.83l-3.586,2.593    l0.301,1.1h0.724l-0.183,1.051l-0.51,0.193l-0.031,2.75l3.093,3.526h1.347l0.094-0.217h2.417l0.705-0.645h1.371l0.758,0.757    l2.047,0.208l-0.268,2.731l2.272,4.016l-1.198,2.289l0.084,1.075l0.951,0.941v2.596l1.233,1.665v2.16h1.29l0.012,40.137    c-7.81,0.081-15.021,1.171-20.899,2.975c-2.638-7.908-7.017-23.502-7.425-40.872l0.809-0.386l0.648-1.188l2.021-2.597    l-0.461-2.016l0.62-1.08l1.856,0.055l1.248-0.981l0.407-3.909l1.387-1.768l0.247-1.13l-1.269-0.407l-0.831-1.372l-2.858-0.025    l-2.265-0.861l-0.108-1.615l-0.758-1.324l-2.036-0.024l-1.188-1.863l-1.052-0.505l-0.053,0.556l-1.912,0.118l-0.704-0.977    l-2-0.405l-1.646,1.897l-2.581-0.436l-0.188-2.918l-1.893-0.324l0.759-1.425l-0.219-0.822l-2.472,1.659l-1.558-0.188l-0.566-1.225    l0.348-1.263l0.861-1.581l1.978-1.005h3.83l-0.011,1.167l1.377,0.634l-0.113-1.994l0.991-0.992l2-1.316l0.128-0.923l2.004-2.075    l2.123-1.171l-0.188-0.151l1.431-1.356l0.53,0.137l0.243,0.305l0.545-0.61l0.123-0.061l-0.589-0.081l-0.604-0.202v-0.591    l0.317-0.262h0.712l0.328,0.142l0.278,0.562l0.341-0.051v-0.034l0.104,0.03l0.991-0.159l0.138-0.485l0.554,0.141v0.523    l-0.518,0.369l0.078,0.583l1.804,0.552c0,0,0.005,0.01,0.005,0.02l0.411-0.035l0.03-0.775l-1.427-0.648l-0.085-0.381l1.186-0.407    l0.049-1.126l-1.234-0.756l-0.078-1.907l-1.709,0.833h-0.619L33.59,8.73l-2.299-0.551l-0.959,0.72v2.212l-1.721,0.537    l-0.693,1.442l-0.742,0.116v-1.839l-1.615-0.227l-0.807-0.523l-0.328-1.186l2.893-1.694l1.412-0.43l0.139,0.948l0.793-0.04    l0.064-0.478l0.822-0.117l0.009-0.161l-0.346-0.153l-0.084-0.503l1.01-0.088l0.61-0.638l0.043-0.044v0.005l0.183-0.194    l2.141-0.267l0.937,0.8l-2.476,1.315l3.145,0.741l0.403-1.056h1.38l0.479-0.913L37.019,6.22V5.065l-3.048-1.35l-2.096,0.242    l-1.193,0.62l0.089,1.511l-1.237-0.191l-0.189-0.832l1.176-1.08l-2.145-0.106L27.75,4.062l-0.273,0.73l0.813,0.138L28.126,5.74    l-1.372,0.082l-0.213,0.531L24.534,6.41c0,0-0.044-1.132-0.124-1.132c-0.084,0,1.562-0.024,1.562-0.024l1.188-1.162l-0.647-0.327    l-0.862,0.841l-1.432-0.078l-0.857-1.189h-1.833l-1.918,1.431h1.753l0.163,0.513l-0.461,0.431l1.942,0.058l0.298,0.697    l-2.185-0.087l-0.108-0.537l-1.372-0.299l-0.729-0.398l-3.235,0.029l-0.995,0.97l-0.678-0.058L13.25,5.653l-2.234-0.669H6.919    L4.552,6.596L2.961,6.841L2.234,7.407l1.13,0.167v0.454H0.945L0,8.701l1.208,1.026l3.313,0.028l0.461-0.492h2.769l1,0.888    l-0.058,1.381l0.843,0.779l-0.703,0.503l0.158,1.815l-2.502,3.044v2.855l1.342,0.65v2.563l1.304,2.204l0.007,0.001l-1.173-0.131    C3.112,69.244,20.914,96.391,26.7,103.923c-0.569,1.066-0.879,2.171-0.879,3.307c0,8.424,16.514,15.275,36.81,15.275    c20.298,0,36.812-6.852,36.812-15.275c0-1.438-0.494-2.83-1.394-4.149c1.376-1.689,17.582-22.077,20.069-46.266l0.416-0.063    l3.562-2.18l1-0.663l1.074-0.476l1.091-0.614L124.859,52.112z M62.781,7.084l-1.594,0.983v0.644l0.9,0.421l0.07,0.875    l-1.289,1.906l-2.229-0.022l-0.138-0.456l1.392-0.711l0.015-2.638l2.358-1.653h0.515V7.084z M24.945,17.833h-1.029l0.164-0.701    l0.483-0.051l0.109-0.238l0.738-0.103v0.63h0.005L24.945,17.833z M25.658,16.097l-0.485,0.315l-0.609,0.104c0,0,0-0.963,0-1.065    h1.095L25.658,16.097L25.658,16.097z M26.581,15.351l0.5,0.306l-0.401,0.33l-0.382-0.33L26.581,15.351z M25.928,16.158h0.077    l1.238,0.359v0.635h-1.039l-0.276-0.407V16.158z M25.119,14.418l0.669,0.61l-0.669,0.163V14.418z M22.286,14.52l0.93-0.385h1.278    v0.385h0.277v0.671h-1.947l-0.718-0.199L22.286,14.52z M22.107,16.26l0.738-0.809h1.071l-1.372,1.918l-0.57-0.306L22.107,16.26z     M21.117,11.695l0.763,0.177l-0.265,1.034l-0.826,0.267l-0.521-1.078L21.117,11.695z M17.277,6.804v-0.06h0.709l0.063-0.246h1.16    v0.508l-0.343,0.44h-1.59L17.277,6.804L17.277,6.804z M18.403,8.382c0,0,0.713-0.127,0.766-0.127c0.055,0,0,0.711,0,0.711    l-1.595,0.102l-0.301-0.362L18.403,8.382z M72.738,14.876l1.094-0.102l0.927,0.39l0.046,0.648l-1.328-0.074l-0.063,0.599    l1.653,1.1v0.813l0.723,0.52v0.575h-0.004l-0.372,0.348l-0.849-0.063l-0.162-0.256l-1.332-0.103l0.095-0.425l0.714-0.607v-0.513    l-1.357-0.981l-0.06-1.255L72.738,14.876z M67.73,18.323v-0.005l-2.1-0.091l-0.625,0.09v-1.428l0.471-0.532l0.506-0.159    l1.119-0.127l0.236-0.382l0.461,0.227l0.061,1.307l1.224,0.503l0.104,0.597H67.73z M67.688,47.466l1.104-0.243v-1.288l0.729-0.862    l1.53-2.11l-0.317-3.201l-0.675-1.188l3.023-2.893l3.321-4.761l-0.633-0.302l-3.463,0.729l-0.896-0.441l-3.635-6.856l0.252-0.298    l3.61,4.377l0.089,1.354l0.822,0.838l1.713-0.109l3.533-2.565l1.119-0.724l-0.02-0.895l-1.185-0.146c0,0-4.156-1.959-4.156-2.046    c0-0.09,0.024-1.679,0.024-1.679h0.921l0.134,1.158l1.922,1.111l2.205,0.105l4.762,0.78l1.125,0.707v1.09L84.5,28.596l2.453,4.019    l0.263,0.061c1.722,21.9-3.949,48.836-6.954,61.149c-4.85-1.103-10.305-1.764-16.158-1.856l0.125-41.188l2.594-1.775    L67.688,47.466z M61.554,97.943c-0.025,1-0.046,1.834-0.063,2.465c-8.568,0.244-15.363,3.207-15.363,6.824    c0,3.776,7.401,6.849,16.502,6.849c9.101,0,16.504-3.072,16.504-6.849c0-3.606-6.761-6.563-15.294-6.822    c0.016-0.637,0.037-1.469,0.062-2.463c11.781,0.275,21.172,4.328,21.172,9.285c0,5.135-10.069,9.313-22.443,9.313    c-12.375,0-22.441-4.179-22.441-9.313C40.189,102.248,49.68,98.176,61.554,97.943z M62.625,101.844l1.178,0.029v-0.005    c6.61,0.246,11.811,2.557,11.811,5.363c0,2.971-5.823,5.387-12.982,5.387s-12.981-2.416-12.981-5.387    C49.649,104.262,55.468,101.845,62.625,101.844z M63.938,96.472c0.023-0.919,0.049-1.938,0.077-3.041    c5.784,0.1,11.194,0.811,15.854,1.986c-0.359,1.438-0.662,2.597-0.893,3.451C74.826,97.469,69.621,96.59,63.938,96.472z     M61.667,93.426c-0.027,1.104-0.053,2.125-0.075,3.043c-7.555,0.125-14.286,1.593-18.844,3.845    c-0.142-0.35-0.654-1.641-1.375-3.705C46.914,94.697,53.967,93.518,61.667,93.426z M30.993,54.792l0.065-0.01    c0.006,0.197,0.014,0.393,0.021,0.589l-0.135-0.038L30.993,54.792z M31.127,56.735c0.006,0.162,0.019,0.321,0.026,0.482    l-0.233-0.285L31.127,56.735z M10.301,26.077l-0.119-0.013l0.126-0.714l-1.229-1.908l-0.243-1.858h0.729l0.312,1.912l1.794,2.613    l-0.481,0.842l1.148,1.745l2.834,0.7V28.94l1.129,0.156l-0.104,0.813l0.886,0.154l1.378,0.386l1.941,2.208l2.477,0.184    l0.243,2.026l-1.698,1.184l-0.084,1.798l-0.238,1.11l2.451,3.071l0.189,1.045c0,0,0.892,0.243,0.991,0.243    c0.108,0,2,1.431,2,1.431v5.544l0.673,0.198l-0.469,2.557l1.133,1.505l-0.203,2.537l1.492,2.635l1.921,1.674l0.155,0.003    c1.231,14.651,4.834,27.337,7.147,34.279c-4.647,1.668-8.285,3.807-10.466,6.24C22.172,94.007,5.635,67.789,10.301,26.077z     M62.63,121.047c-18.356,0-33.29-6.197-33.29-13.815c0-0.852,0.197-1.686,0.556-2.494l0.279-0.262    c-0.009-0.009-0.045-0.05-0.105-0.117c1.369-2.672,4.603-5.062,9.11-6.92c0.849,2.43,1.418,3.815,1.443,3.877l1.084-0.451    c-3.164,1.785-5.039,3.987-5.039,6.369c0,5.941,11.646,10.773,25.962,10.773c14.315,0,25.964-4.833,25.964-10.773    c0-2.927-2.831-5.584-7.412-7.526c0.234-0.874,0.559-2.103,0.95-3.66c8.347,2.513,13.79,6.589,13.79,11.187    C95.922,114.85,80.988,121.047,62.63,121.047z" fill="#FFFFFF"/>
		<polygon points="113.84,37.396 112.933,37.424 113.006,36.479 112.141,35.968 110.921,37.197 111.742,38.208 113.521,38.465     114.512,38.985 114.542,39.47 113.889,39.47 113.924,40.471 116.072,40.333 116.855,39.495 117.701,39.417 117.701,40.951     119.154,40.951 119.154,40.333 118.414,40.333 118.292,38.465 114.807,36.884   " fill="#FFFFFF"/>
		<polygon points="73.129,47.833 74.77,45.43 75.552,41.655 74.557,41.655 73.574,43.596 71.904,43.379 71.904,44.677     72.505,45.369 72.049,46.073 71.371,46.851 71.371,48.283 72.297,49.175   " fill="#FFFFFF"/>
		<polygon points="107.934,39.613 107.378,39.613 107.378,39.907 107.806,40.041   " fill="#FFFFFF"/>
		<rect x="104.837" y="40.041" width="0.653" height="0.357" fill="#FFFFFF"/>
		<polygon points="106.419,40.397 106.818,40.397 106.818,40.084 107.117,40.041 107.117,39.733 106.473,39.733 106.205,40.041     105.822,40.397 105.822,40.708 106.419,40.654   " fill="#FFFFFF"/>
		<polygon points="108.078,40.684 108.727,40.684 108.727,40.347 109.172,40.397 109.113,39.827 108.38,39.942 108.311,40.308     107.486,40.397 107.447,40.397 107.447,40.961 108.078,40.961   " fill="#FFFFFF"/>
	</g>
</g>
<g>
</g>
<g>
</g>
<g>
</g>
<g>
</g>
<g>
</g>
<g>
</g>
<g>
</g>
<g>
</g>
<g>
</g>
<g>
</g>
<g>
</g>
<g>
</g>
<g>
</g>
<g>
</g>
<g>
</g>
</svg>
