<?xml version="1.0" encoding="iso-8859-1"?>
<!-- Generator: Adobe Illustrator 19.0.0, SVG Export Plug-In . SVG Version: 6.00 Build 0)  -->
<svg version="1.1" id="Capa_1" xmlns="http://www.w3.org/2000/svg" xmlns:xlink="http://www.w3.org/1999/xlink" x="0px" y="0px"
	 fill="#fff" viewBox="0 0 512 512" style="enable-background:new 0 0 512 512;" xml:space="preserve">
<g>
	<g>
		<path d="M405,302c-57.891,0-105,47.109-105,105s47.109,105,105,105s107-47.109,107-105S462.891,302,405,302z M435,422h-30
			c-8.291,0-15-6.709-15-15v-30c0-8.291,6.709-15,15-15c8.291,0,15,6.709,15,15v15h15c8.291,0,15,6.709,15,15
			C450,415.291,443.291,422,435,422z"/>
	</g>
</g>
<g>
	<g>
		<path d="M60,377H30c-16.569,0-30,13.431-30,30c0,16.567,13.431,30,30,30h30c16.569,0,30-13.433,30-30
			C90,390.431,76.569,377,60,377z"/>
	</g>
</g>
<g>
	<g>
		<path d="M60,227H30c-16.569,0-30,13.431-30,30c0,16.567,13.431,30,30,30h30c16.569,0,30-13.433,30-30
			C90,240.431,76.569,227,60,227z"/>
	</g>
</g>
<g>
	<g>
		<path d="M60,75H30C13.431,75,0,88.431,0,105c0,16.567,13.431,30,30,30h30c16.569,0,30-13.433,30-30C90,88.431,76.569,75,60,75z"/>
	</g>
</g>
<g>
	<g>
		<path d="M435,0H105C80.186,0,60,20.186,60,45c33.091,0,60,26.909,60,60s-26.909,60-60,60v32c33.091,0,60,26.909,60,60
			s-26.909,60-60,60v30c33.091,0,60,26.909,60,60s-26.909,60-60,60c0,24.814,20.186,45,45,45h216.194
			C290.246,487.24,270,449.627,270,407c0-74.443,60.557-135,135-135c27.742,0,55.529,8.448,77,22.853V45C482,20.186,459.814,0,435,0
			z M265.606,327.605l-60.001,60c-2.93,2.93-6.768,4.395-10.605,4.395s-7.676-1.465-10.605-4.395l-34.219-34.219
			c-5.859-5.859-5.859-15.352,0-21.211c5.859-5.859,15.352-5.859,21.211,0L195,355.789l49.395-49.395
			c5.859-5.859,15.352-5.859,21.211,0S271.465,321.746,265.606,327.605z M265.606,207.605l-60,60
			c-2.93,2.93-6.768,4.395-10.605,4.395s-7.676-1.465-10.605-4.395l-34.219-34.219c-5.861-5.859-5.861-15.351-0.001-21.21
			c5.859-5.859,15.352-5.859,21.211,0L195,235.789l49.395-49.395c5.859-5.859,15.352-5.859,21.211,0
			S271.465,201.746,265.606,207.605z M265.606,85.605l-60,60c-2.93,2.93-6.768,4.395-10.605,4.395s-7.676-1.465-10.605-4.395
			l-34.219-34.219c-5.861-5.859-5.861-15.351-0.001-21.21c5.859-5.859,15.352-5.859,21.211,0L195,113.789l49.395-49.395
			c5.859-5.859,15.352-5.859,21.211,0S271.465,79.746,265.606,85.605z M405,242h-90c-8.291,0-15-6.709-15-15s6.709-15,15-15h90
			c8.291,0,15,6.709,15,15S413.291,242,405,242z M405,120h-90c-8.291,0-15-6.709-15-15s6.709-15,15-15h90c8.291,0,15,6.709,15,15
			S413.291,120,405,120z"/>
	</g>
</g>
<g>
</g>
<g>
</g>
<g>
</g>
<g>
</g>
<g>
</g>
<g>
</g>
<g>
</g>
<g>
</g>
<g>
</g>
<g>
</g>
<g>
</g>
<g>
</g>
<g>
</g>
<g>
</g>
<g>
</g>
</svg>
