<?xml version="1.0" encoding="iso-8859-1"?>
<!-- Generator: Adobe Illustrator 18.1.1, SVG Export Plug-In . SVG Version: 6.00 Build 0)  -->
<svg xmlns="http://www.w3.org/2000/svg" xmlns:xlink="http://www.w3.org/1999/xlink" version="1.1" id="Capa_1" x="0px" y="0px" viewBox="0 0 684.052 684.052" style="enable-background:new 0 0 684.052 684.052;" xml:space="preserve" width="512px" height="512px">
<g>
	<path d="M602.882,0H80.281c-24.017,0-44.21,19.214-44.21,44.21v6.76c0,0.978,0,0.978,0,0.978v62.445v0.978v95.091   c0,24.017,19.214,44.21,44.21,44.21h77.745c24.017,0,44.21-19.214,44.21-44.21v-45.188h55.685V515.93h-61.467   c-23.039,0-42.253,19.214-42.253,42.253v82.638c0,23.039,19.214,42.253,42.253,42.253h74.899c0.978,0,2.847,0.979,4.804,0.979   h130.673c1.957,0,2.846,0,3.825-0.979h73.031c23.039,0,42.253-19.214,42.253-42.253v-81.659c0-23.039-19.214-42.253-42.253-42.253   h-59.599V166.254h57.642v45.188c0,24.017,19.214,44.21,44.21,44.21h77.834c24.017,0,44.21-19.214,44.21-44.21V44.21   C647.092,20.192,626.9,0,602.882,0z M611.511,211.353c0,4.803-3.825,8.628-8.628,8.628h-77.834c-4.803,0-8.628-3.825-8.628-8.628   v-62.445c0-9.607-7.65-17.257-17.257-17.257h-93.223c-9.607,0-17.257,7.65-17.257,17.257v386.236   c0,9.607,7.65,17.257,17.257,17.257h77.834c3.825,0,6.76,2.846,6.76,6.76v81.659c0,3.825-2.846,6.76-6.76,6.76h-77.834   c-1.957,0-2.846,0-4.803,0.978H280.07c-0.978,0-2.847-0.978-4.803-0.978h-79.702c-3.825,0-6.76-2.846-6.76-6.76v-81.659   c0-3.825,2.847-6.76,6.76-6.76h79.702c9.607,0,17.257-7.65,17.257-17.257V148.019c0-9.607-7.65-17.257-17.257-17.257H184   c-9.607,0-17.257,7.65-17.257,17.257v62.445c0,4.803-3.825,8.629-8.628,8.629H80.281c-4.804,0-8.629-3.825-8.629-8.629v-96.07   v-0.978V52.927c0-0.978,0-0.978,0-0.978v-7.65c0-4.803,3.825-8.628,8.629-8.628h522.602c4.804,0,8.628,3.825,8.628,8.628   L611.511,211.353L611.511,211.353z" fill="#FFFFFF"/>
</g>
<g>
</g>
<g>
</g>
<g>
</g>
<g>
</g>
<g>
</g>
<g>
</g>
<g>
</g>
<g>
</g>
<g>
</g>
<g>
</g>
<g>
</g>
<g>
</g>
<g>
</g>
<g>
</g>
<g>
</g>
</svg>
