<?xml version="1.0" encoding="iso-8859-1"?>
<!-- Generator: Adobe Illustrator 19.0.0, SVG Export Plug-In . SVG Version: 6.00 Build 0)  -->
<svg xmlns="http://www.w3.org/2000/svg" xmlns:xlink="http://www.w3.org/1999/xlink" version="1.1" id="Capa_1" x="0px" y="0px" viewBox="0 0 512 512" style="enable-background:new 0 0 512 512;" xml:space="preserve" width="512px" height="512px">
<g>
	<g>
		<g>
			<path d="M0,0v512h512V0H0z M480,480H32V160h448V480z M480,128H32V32h448V128z" fill="#FFFFFF"/>
			<rect x="64" y="64" width="32" height="32" fill="#FFFFFF"/>
			<rect x="128" y="64" width="32" height="32" fill="#FFFFFF"/>
			<rect x="192" y="64" width="256" height="32" fill="#FFFFFF"/>
			<path d="M320,208H64v224h256V208z M288,400H96V240h192V400z" fill="#FFFFFF"/>
			<path d="M448,208h-96v96h96V208z M416,272h-32v-32h32V272z" fill="#FFFFFF"/>
			<polygon points="187.312,379.312 246.624,320 187.312,260.688 164.688,283.312 201.376,320 164.688,356.688    " fill="#FFFFFF"/>
			<path d="M448,336h-96v96h96V336z M416,400h-32v-32h32V400z" fill="#FFFFFF"/>
		</g>
	</g>
</g>
<g>
</g>
<g>
</g>
<g>
</g>
<g>
</g>
<g>
</g>
<g>
</g>
<g>
</g>
<g>
</g>
<g>
</g>
<g>
</g>
<g>
</g>
<g>
</g>
<g>
</g>
<g>
</g>
<g>
</g>
</svg>
