<?xml version="1.0" encoding="iso-8859-1"?>
<!-- Generator: Adobe Illustrator 16.0.0, SVG Export Plug-In . SVG Version: 6.00 Build 0)  -->
<!DOCTYPE svg PUBLIC "-//W3C//DTD SVG 1.1//EN" "http://www.w3.org/Graphics/SVG/1.1/DTD/svg11.dtd">
<svg version="1.1" id="Capa_1" xmlns="http://www.w3.org/2000/svg" xmlns:xlink="http://www.w3.org/1999/xlink" x="0px" y="0px"
	 width="31.225px" height="31.225px" viewBox="0 0 31.225 31.225" style="enable-background:new 0 0 31.225 31.225;"
	 xml:space="preserve">
<g>
	<g>
		<path style="fill: white" d="M24.061,17.187v8.086c-1.049-0.421-2.252-0.634-3.588-0.634c-3.271,0-6.387,1.254-7.323,1.667v-5.99l0.436,0.48v-8.999
			c1.764-1.483,3.926-2.243,6.439-2.243c0.293,0,0.574,0.013,0.849,0.032l0.712-0.68c-0.482-0.056-1.005-0.092-1.562-0.092
			c-2.73,0-5.083,0.832-6.998,2.474C11.112,9.646,8.76,8.815,6.028,8.815c-2.55,0-4.461,0.743-4.541,0.773L1.252,9.682v1.507
			C0.48,11.333,0,11.591,0,12.014c0,2.196,0,15.525,0,15.525h3.563l-1.148-2.412c-0.141,0.048-0.287,0.089-0.422,0.143V10.195
			c0.57-0.19,2.124-0.639,4.036-0.639c2.515,0,4.675,0.76,6.44,2.243v8.999l0.435-0.48v5.997c-0.014-0.005,0.008,1.803,0.008,1.803
			c0.66,0.092,1.369-0.224,1.765-0.578h11.147c0,0,0-11.882,0-11.56C25.57,16.481,24.061,17.187,24.061,17.187z"/>
		<path style="fill: white" d="M30.445,1.243c-2.131,1.828-9.071,7.904-8.938,9.252l0.009,0.086l0.311,0.412l-0.485,0.001l-0.083,0.005
			c-0.425,0.072-1.193,1.326-1.443,2.354c-0.289,1.195,0,2.156,0.834,2.78c0.049,0.035,0.101,0.066,0.148,0.099L20.4,16.772
			l-0.649-0.444l-0.265,0.384l0.638,0.436l-2.985,4.048l1.401-0.789l2.095-2.91l0.467,0.318l0.262-0.384l-0.457-0.313l0.441-0.611
			c0.5,0.184,1.061,0.232,1.662,0.132c1.331-0.224,2.604-1.125,2.812-1.621c0.062-0.151,0.041-0.268,0.006-0.347l-0.096-0.349
			l0.354,0.105l0.157,0.007c0.292-0.048,0.689-0.116,2.77-6.588c1-3.116,1.916-6.257,1.924-6.289l0.287-0.984L30.445,1.243z
			 M26.128,13.803l-1.274-0.377l0.385,1.396c-0.182,0.279-1.19,1.025-2.327,1.216c-0.433,0.074-0.826,0.048-1.187-0.054l0.014-0.018
			l4.63-7.195l-0.109-0.059l-5.012,6.912l-0.081,0.11c-0.05-0.031-0.104-0.054-0.15-0.088c-0.486-0.363-0.718-0.877-0.695-1.529
			c0.041-1.116,0.812-2.289,1.068-2.511l1.657-0.007l-0.922-1.226c0.157-0.703,2.757-3.326,5.858-6.14l0.211,1.247l1.024-0.3
			C27.91,9.419,26.613,13.201,26.128,13.803z M29.359,4.713l-0.844,0.247l-0.177-1.051c0.563-0.508,1.14-1.019,1.722-1.525
			C29.83,3.162,29.598,3.944,29.359,4.713z"/>
		<path style="fill: white" d="M8.916,3.167v4.18c-0.002,0.05-0.011,0.494,0.285,0.8c0.168,0.174,0.403,0.268,0.68,0.268h6.523
			c0.285,0,0.529-0.095,0.703-0.276c0.304-0.314,0.295-0.771,0.293-0.812v-4.16h-1.798V2.631h0.52V1.917h-1.103l0.285-1.86h-4.068
			l0.286,1.86H10.42v0.714h0.574v0.538L8.916,3.167L8.916,3.167z M16.887,7.334c0,0.08-0.021,0.315-0.152,0.448
			c-0.077,0.078-0.184,0.116-0.33,0.116H9.881c-0.136,0-0.236-0.036-0.307-0.108C9.451,7.666,9.428,7.44,9.431,7.357V7.05h7.456
			V7.334z M16.135,6.271v0.244h-5.954V6.271H16.135z M11.226,5.974V5.729h3.97v0.245L11.226,5.974L11.226,5.974z M11.509,3.683
			V2.631h3.577v1.052h1.801v1.283H9.431V3.683H11.509z"/>
		<polygon style="fill: white" points="8.149,18.185 5.714,18.185 5.714,23.311 5.714,24.406 5.714,25.484 4.894,23.806 2.598,23.799 3.54,25.733
			3.534,25.733 4.139,26.963 4.217,27.121 4.218,27.121 5.714,30.146 6.722,30.146 6.722,31.168 11.25,31.168 11.25,30.146 
			12.259,30.146 12.259,25.47 8.149,23.311 		"/>
	</g>
</g>
<g>
</g>
<g>
</g>
<g>
</g>
<g>
</g>
<g>
</g>
<g>
</g>
<g>
</g>
<g>
</g>
<g>
</g>
<g>
</g>
<g>
</g>
<g>
</g>
<g>
</g>
<g>
</g>
<g>
</g>
</svg>
