<?xml version="1.0" encoding="iso-8859-1"?>
<!-- Generator: Adobe Illustrator 19.0.0, SVG Export Plug-In . SVG Version: 6.00 Build 0)  -->
<svg xmlns="http://www.w3.org/2000/svg" xmlns:xlink="http://www.w3.org/1999/xlink" version="1.1" id="Capa_1" x="0px" y="0px" viewBox="0 0 511.999 511.999" style="enable-background:new 0 0 511.999 511.999;" xml:space="preserve" width="512px" height="512px">
<g>
	<g>
		<path d="M295.931,196.306c0-17.237-13.702-31.326-30.785-31.968v-3.36c0-5.522-4.477-10-10-10c-5.523,0-10,4.478-10,10v3.329    h-22.124c-5.523,0-10,4.478-10,10s4.477,10,10,10h1.144v67.999h-1.144c-5.523,0-10,4.478-10,10s4.477,10,10,10h22.124v3.186    c0,5.522,4.477,10,10,10c5.523,0,10-4.478,10-10v-3.216c17.083-0.642,30.785-14.732,30.785-31.97    c0-8.516-3.351-16.26-8.795-21.999C292.58,212.567,295.931,204.823,295.931,196.306z M263.931,252.305h-19.765v-24h19.765    c6.617,0,12,5.383,12,12C275.931,246.923,270.548,252.305,263.931,252.305z M263.931,208.306h-19.765v-24h19.765    c6.617,0,12,5.382,12,12C275.931,202.923,270.548,208.306,263.931,208.306z" fill="#546e7a"/>
	</g>
</g>
<g>
	<g>
		<path d="M203.679,270.578c-3.906-3.904-10.265-3.877-14.17,0.027c-3.905,3.905-3.905,10.237,0,14.143    c1.953,1.952,4.512,2.929,7.071,2.929c2.559,0,5.118-0.977,7.071-2.929l0.055-0.055    C207.611,280.788,207.583,274.483,203.679,270.578z" fill="#546e7a"/>
	</g>
</g>
<g>
	<g>
		<path d="M286.563,420.073c0-12.811-9.315-23.479-21.526-25.607c-0.532-5.02-4.779-8.932-9.941-8.932    c-5.025,0-9.173,3.711-9.881,8.539h-6.299c-5.523,0-10,4.478-10,10v64c0,5.522,4.477,10,10,10h6.422    c0.991,4.48,4.98,7.834,9.758,7.834c4.91,0,8.985-3.542,9.831-8.207c12.265-2.082,21.636-12.777,21.636-25.627    c0-6.031-2.07-11.584-5.529-16C284.493,431.656,286.563,426.104,286.563,420.073z M260.564,458.072h-11.647v-12h11.647    c3.309,0,6,2.691,6,6S263.872,458.072,260.564,458.072z M260.564,426.073h-11.647v-12h11.647c3.309,0,6,2.691,6,6    S263.872,426.073,260.564,426.073z" fill="#546e7a"/>
	</g>
</g>
<g>
	<g>
		<path d="M106.565,60.073c-0.001-12.812-9.316-23.48-21.527-25.607c-0.533-5.02-4.779-8.932-9.941-8.932    c-5.025,0-9.173,3.711-9.881,8.539h-6.298c-5.523,0-10,4.478-10,10v64c0,5.522,4.477,10,10,10h6.422    c0.991,4.48,4.98,7.834,9.758,7.834c4.91,0,8.985-3.542,9.831-8.207c12.265-2.082,21.636-12.777,21.636-25.627    c0-6.031-2.07-11.584-5.529-16C104.495,71.657,106.565,66.104,106.565,60.073z M80.564,98.071H68.918v-12h11.647    c3.309,0,6,2.691,6,6C86.564,95.38,83.874,98.071,80.564,98.071z M80.564,66.072H68.918v-12h11.647c3.309,0,6,2.691,6,6    C86.564,63.381,83.874,66.072,80.564,66.072z" fill="#546e7a"/>
	</g>
</g>
<g>
	<g>
		<path d="M466.563,60.073c0-12.812-9.315-23.48-21.526-25.607c-0.533-5.02-4.779-8.932-9.941-8.932    c-5.025,0-9.173,3.711-9.881,8.539h-6.299c-5.523,0-10,4.478-10,10v64c0,5.522,4.477,10,10,10h6.422    c0.991,4.48,4.98,7.834,9.758,7.834c4.91,0,8.985-3.542,9.831-8.207c12.265-2.082,21.636-12.777,21.636-25.627    c0-6.031-2.07-11.584-5.529-16C464.493,71.657,466.563,66.104,466.563,60.073z M440.563,98.071h-11.647v-12h11.647    c3.309,0,6,2.691,6,6C446.563,95.38,443.871,98.071,440.563,98.071z M440.563,66.072h-11.647v-12h11.647c3.309,0,6,2.691,6,6    C446.563,63.381,443.871,66.072,440.563,66.072z" fill="#546e7a"/>
	</g>
</g>
<g>
	<g>
		<path d="M435.999,0.001c-41.907,0-76,34.094-76,76c0,14.164,3.906,27.429,10.681,38.794l-19.168,15.121    c-23.769-25.753-57.788-41.912-95.513-41.912c-5.523,0-10,4.478-10,10s4.477,10,10,10c31.368,0,59.71,13.2,79.768,34.334    l-12.706,10.024c-0.193-0.197-0.372-0.402-0.567-0.597c-36.65-36.65-96.285-36.649-132.935,0.001    c-0.226,0.226-0.44,0.459-0.663,0.686l-47.605-37.611c6.792-11.375,10.708-24.657,10.708-38.841c0-41.906-34.093-76-76-76    S0,34.094,0,76c0,41.906,34.093,76,76,76c20.536,0,39.182-8.201,52.873-21.482l47.595,37.603    c-14.914,23.538-18.706,52.646-9.607,79.925c1.748,5.239,7.412,8.068,12.651,6.322c5.239-1.748,8.069-7.412,6.322-12.65    c-8.94-26.8-2.094-55.849,17.868-75.81c28.852-28.854,75.799-28.854,104.65-0.001c28.853,28.853,28.853,75.8,0,104.651    c-20.268,20.269-50.775,27.019-77.718,17.202c-5.192-1.893-10.929,0.783-12.819,5.972c-1.891,5.189,0.783,10.929,5.972,12.819    c7.257,2.644,14.718,4.321,22.214,5.109v15.882c-55.985-5.069-99.999-52.258-99.999-109.54c0-5.522-4.477-10-10-10    s-10,4.478-10,10c0,68.318,52.972,124.495,119.999,129.618v13.06c-37.195,4.914-66,36.807-66,75.321c0,41.906,34.093,76,76,76    c41.907,0,76-34.094,76-76c0-38.515-28.805-70.408-66-75.321V311.63c20.984-2.267,41.073-11.51,56.495-26.931    c31.623-31.624,35.935-80.346,12.987-116.664l12.685-10.008C359.438,175.289,366,195.891,366,218.001c0,5.522,4.477,10,10,10    s10-4.478,10-10c0-26.782-8.143-51.696-22.079-72.402l19.167-15.121c13.694,13.304,32.357,21.52,52.912,21.52    c41.907,0,76-34.094,76-76C511.999,34.093,477.905,0.001,435.999,0.001z M76.001,132c-30.878,0-56-25.121-56-56    c0-30.879,25.122-56,56-56s56,25.121,56,56C132,106.879,106.879,132,76.001,132z M312,436.001c0,30.879-25.122,56-56,56    c-30.878,0-56-25.121-56-56c0-30.879,25.122-56,56-56C286.878,380.002,312,405.123,312,436.001z M435.999,132    c-30.878,0-56-25.121-56-56c0-30.879,25.122-56,56-56s56,25.121,56,56C491.999,106.879,466.877,132,435.999,132z" fill="#546e7a"/>
	</g>
</g>
<g>
</g>
<g>
</g>
<g>
</g>
<g>
</g>
<g>
</g>
<g>
</g>
<g>
</g>
<g>
</g>
<g>
</g>
<g>
</g>
<g>
</g>
<g>
</g>
<g>
</g>
<g>
</g>
<g>
</g>
</svg>
