<?xml version="1.0" encoding="iso-8859-1"?>
<!-- Generator: Adobe Illustrator 19.0.0, SVG Export Plug-In . SVG Version: 6.00 Build 0)  -->
<svg  version="1.1" id="Capa_1" xmlns="http://www.w3.org/2000/svg" xmlns:xlink="http://www.w3.org/1999/xlink" x="0px" y="0px"
	 viewBox="0 0 512 512" style="enable-background:new 0 0 512 512; fill: #546E7A" xml:space="preserve">
<g>
	<g>
		<path d="M286,388h-60c-8.284,0-15,6.716-15,15s6.716,15,15,15h60c8.284,0,15-6.716,15-15S294.284,388,286,388z"/>
	</g>
</g>
<g>
	<g>
		<path d="M484.732,413.814l-36.209-115.39c-0.039-0.119-0.079-0.237-0.121-0.355c-9.369-26.547-27.063-49.589-49.938-65.661
			C417.043,218.047,421,203.101,421,193c0-8.8-2.876-17.288-8.551-25.236c-0.005-0.007-0.009-0.015-0.014-0.022L318.251,31.377
			C304.001,11.447,281.728,0,257.222,0c-24.136,0-46.146,11.145-60.443,30.626L99.965,167.193c-0.001,0.001-0.001,0.002-0.002,0.003
			C94.016,175.299,91,183.981,91,193c0,10.155,3.987,25.072,22.534,39.409c-22.875,16.071-40.562,39.102-49.936,65.661
			c-0.042,0.118-0.082,0.236-0.121,0.355l-36.209,115.39C11.498,462.334,47.586,512,98.595,512c9.582,0,301.41,0,314.811,0
			C464.425,512,500.5,462.324,484.732,413.814z M220.964,48.376C229.543,36.686,242.748,30,257.231,30c0.097,0,0.194,0,0.291,0.001
			c14.596,0.09,27.837,6.952,36.326,18.825l54.829,81.326C322.203,122.38,290.242,118,256,118c-22.167,0-43.4,1.85-62.821,5.265
			c-0.069,0.013-0.138,0.023-0.206,0.037c-9.975,1.761-19.463,3.938-28.352,6.494L220.964,48.376z M300.949,150.898v14.266
			C299.819,189.209,280.13,208,256,208s-43.819-18.791-44.949-42.835v-14.354C224.735,149.029,239.754,148,256,148
			C272.044,148,287.106,149.057,300.949,150.898z M125.561,183.18c8.439-9.752,27.634-19.925,55.49-26.81v9.122
			c0,0.204,0.004,0.408,0.013,0.612C182.71,206.42,215.627,238,256,238s73.29-31.58,74.937-71.896
			c0.009-0.204,0.013-0.408,0.013-0.612v-8.97c27.589,6.846,47.303,16.938,55.754,26.964C388.969,186.177,391,189.5,391,193
			c0,6.586-7.317,13.03-11.679,16.284c-0.058,0.043-0.108,0.093-0.166,0.137c-0.058,0.045-0.12,0.081-0.178,0.127L257.745,305.59
			c-4.07-3.134-121.185-93.348-124.03-95.539c-0.057-0.044-0.117-0.078-0.175-0.121c-0.059-0.044-0.112-0.095-0.172-0.139
			C128.749,206.441,121,199.805,121,193C121,189.37,123.179,185.929,125.561,183.18z M121,355v127H98.595
			c-30.611,0-52.258-29.806-42.795-58.911l36.148-115.205c8.381-23.612,25.217-43.62,46.865-56.037L214.309,310H166
			C141.187,310,121,330.187,121,355z M361,482H151V355c0-8.271,6.729-15,15-15h180c8.271,0,15,6.729,15,15V482z M413.405,482H391
			V355c0-24.813-20.187-45-45-45h-45.508l73.121-57.928c21.662,12.462,37.985,31.987,46.438,55.809L456.2,423.089
			C465.664,452.199,444.01,482,413.405,482z"/>
	</g>
</g>
<g>
</g>
<g>
</g>
<g>
</g>
<g>
</g>
<g>
</g>
<g>
</g>
<g>
</g>
<g>
</g>
<g>
</g>
<g>
</g>
<g>
</g>
<g>
</g>
<g>
</g>
<g>
</g>
<g>
</g>
</svg>
