<svg xmlns="http://www.w3.org/2000/svg" viewBox="0 0 609.67 317.42"><defs><style>.cls-1{fill:#fff;}</style></defs><title>Asset 15</title><g id="Layer_2" data-name="Layer 2"><g id="Layer_1-2" data-name="Layer 1"><path class="cls-1" d="M24.42,301.25h2.14v11.27a5.53,5.53,0,0,1-.47,2.44,4.22,4.22,0,0,1-1.17,1.49,4.11,4.11,0,0,1-1.5.76,5.88,5.88,0,0,1-1.47.21,4.58,4.58,0,0,1-2.82-.85,4,4,0,0,1-1.46-2.6l2.1-.47a2.49,2.49,0,0,0,.74,1.4,2.06,2.06,0,0,0,1.45.51,2.31,2.31,0,0,0,1.28-.31,2.2,2.2,0,0,0,.75-.81,3.47,3.47,0,0,0,.36-1.15,9.78,9.78,0,0,0,.09-1.31Z"/><path class="cls-1" d="M42.38,317.42a8.45,8.45,0,0,1-3.32-.64,7.62,7.62,0,0,1-2.6-1.75,8.09,8.09,0,0,1-1.69-2.63,9,9,0,0,1,0-6.55,8.13,8.13,0,0,1,1.69-2.63,7.62,7.62,0,0,1,2.6-1.75,9,9,0,0,1,6.64,0,7.64,7.64,0,0,1,2.6,1.75A8.13,8.13,0,0,1,50,305.87a9.06,9.06,0,0,1,0,6.55A8.09,8.09,0,0,1,48.3,315a7.64,7.64,0,0,1-2.6,1.75A8.46,8.46,0,0,1,42.38,317.42Zm0-2a5.76,5.76,0,0,0,4.32-1.85,5.94,5.94,0,0,0,1.2-2,7.21,7.21,0,0,0,0-4.87,5.94,5.94,0,0,0-1.2-2,5.92,5.92,0,0,0-8.64,0,6,6,0,0,0-1.2,2,7.25,7.25,0,0,0,0,4.87,6,6,0,0,0,1.2,2,5.81,5.81,0,0,0,1.87,1.34A5.73,5.73,0,0,0,42.38,315.42Z"/><path class="cls-1" d="M58.58,301.25h2.14V317H58.58Z"/><path class="cls-1" d="M69.67,301.25h2.81l8.69,13h0v-13h2.14V317H80.64l-8.78-13h0v13H69.67Z"/><path class="cls-1" d="M106.71,303.25h-5.08v-2h12.3v2h-5.08V317h-2.14Z"/><path class="cls-1" d="M121.1,301.25h2.14v6.55h8.18v-6.55h2.14V317h-2.14v-7.22h-8.18V317H121.1Z"/><path class="cls-1" d="M142.51,301.25H152.7v2h-8V308h7.49v2h-7.49V315h8.44v2H142.51Z"/><path class="cls-1" d="M171.77,301.25h5.5a10.22,10.22,0,0,1,2.93.37,7.72,7.72,0,0,1,2.18,1,6.32,6.32,0,0,1,1.54,1.46,7.74,7.74,0,0,1,1,1.69,8.56,8.56,0,0,1,.51,1.74,9,9,0,0,1,.16,1.6,8,8,0,0,1-.56,2.93,7.45,7.45,0,0,1-1.65,2.52,8.17,8.17,0,0,1-2.71,1.77,9.66,9.66,0,0,1-3.73.67h-5.15ZM173.91,315h2.7a8.74,8.74,0,0,0,2.57-.37,6.26,6.26,0,0,0,2.13-1.1,5.32,5.32,0,0,0,1.45-1.84,5.85,5.85,0,0,0,.54-2.58,7.68,7.68,0,0,0-.25-1.77,5.29,5.29,0,0,0-.92-1.93,5.5,5.5,0,0,0-1.88-1.55,6.68,6.68,0,0,0-3.12-.64h-3.21Z"/><path class="cls-1" d="M193.54,301.25h10.18v2h-8V308h7.49v2h-7.49V315h8.44v2H193.54Z"/><path class="cls-1" d="M223,304.66a4.43,4.43,0,0,0-1.69-1.34,5,5,0,0,0-2.12-.47,5.6,5.6,0,0,0-2.42.5,5.53,5.53,0,0,0-1.85,1.37,6.37,6.37,0,0,0-1.19,2,7.38,7.38,0,0,0-.42,2.51,6.94,6.94,0,0,0,.4,2.37,5.91,5.91,0,0,0,1.16,2,5.41,5.41,0,0,0,1.85,1.34,6,6,0,0,0,2.47.49,4.94,4.94,0,0,0,2.38-.56,5.18,5.18,0,0,0,1.74-1.56l1.8,1.36a7,7,0,0,1-.62.7,6.24,6.24,0,0,1-1.18.91,8.65,8.65,0,0,1-1.77.81,7.68,7.68,0,0,1-2.39.34,7.8,7.8,0,0,1-3.38-.71,8.17,8.17,0,0,1-4.18-4.49,8.23,8.23,0,0,1-.56-3,9.21,9.21,0,0,1,.6-3.37,8,8,0,0,1,1.68-2.68,7.57,7.57,0,0,1,2.6-1.75,8.74,8.74,0,0,1,3.34-.62,8.2,8.2,0,0,1,3.06.6,5.73,5.73,0,0,1,2.46,1.85Z"/><path class="cls-1" d="M232.64,301.25h10.18v2h-8V308h7.49v2h-7.49V315h8.44v2H232.64Z"/><path class="cls-1" d="M251.16,301.25H254l8.69,13h0v-13h2.14V317h-2.72l-8.78-13h0v13h-2.14Z"/><path class="cls-1" d="M277.09,303.25H272v-2h12.3v2h-5.08V317h-2.14Z"/><path class="cls-1" d="M291.49,301.25H297a6.49,6.49,0,0,1,2.49.41,4.3,4.3,0,0,1,1.55,1,3.61,3.61,0,0,1,.79,1.42,5.67,5.67,0,0,1,.22,1.53,4.12,4.12,0,0,1-1,2.72,4.29,4.29,0,0,1-1.23,1,4.2,4.2,0,0,1-1.62.48l4.48,7.2H300l-4-6.95h-2.38V317h-2.14Zm2.14,6.95h2.81a7.32,7.32,0,0,0,1.24-.1,3.49,3.49,0,0,0,1.09-.37,2,2,0,0,0,.77-.77,3.06,3.06,0,0,0,0-2.61,2,2,0,0,0-.77-.77,3.39,3.39,0,0,0-1.09-.37,8.35,8.35,0,0,0-1.24-.1h-2.81Z"/><path class="cls-1" d="M315,301.25h1.94L323.64,317h-2.5l-1.58-3.9h-7.51l-1.56,3.9H308Zm3.83,10L315.84,304h0l-3,7.24Z"/><path class="cls-1" d="M330.59,301.25h2.14V315H340v2h-9.38Z"/><path class="cls-1" d="M347.06,301.25h2.14V317h-2.14Z"/><path class="cls-1" d="M356.84,315l9-11.77h-8.71v-2h11.38v2L359.56,315h9.07v2H356.84Z"/><path class="cls-1" d="M376.27,301.25h10.18v2h-8V308h7.49v2h-7.49V315h8.44v2H376.27Z"/><path class="cls-1" d="M394.43,301.25h5.5a10.22,10.22,0,0,1,2.93.37,7.72,7.72,0,0,1,2.18,1,6.32,6.32,0,0,1,1.54,1.46,7.74,7.74,0,0,1,1,1.69,8.56,8.56,0,0,1,.51,1.74,9,9,0,0,1,.16,1.6,8,8,0,0,1-.56,2.93,7.45,7.45,0,0,1-1.65,2.52,8.17,8.17,0,0,1-2.71,1.77,9.66,9.66,0,0,1-3.73.67h-5.15ZM396.57,315h2.7a8.74,8.74,0,0,0,2.57-.37,6.26,6.26,0,0,0,2.13-1.1,5.32,5.32,0,0,0,1.45-1.84,5.85,5.85,0,0,0,.54-2.58,7.68,7.68,0,0,0-.25-1.77,5.29,5.29,0,0,0-.92-1.93,5.5,5.5,0,0,0-1.88-1.55,6.68,6.68,0,0,0-3.12-.64h-3.21Z"/><path class="cls-1" d="M427.29,301.25h5.55a6.49,6.49,0,0,1,2.49.41,4.3,4.3,0,0,1,1.55,1,3.61,3.61,0,0,1,.79,1.42,5.67,5.67,0,0,1,.22,1.53,4.12,4.12,0,0,1-1,2.72,4.29,4.29,0,0,1-1.23,1,4.2,4.2,0,0,1-1.62.48l4.48,7.2h-2.67l-4-6.95h-2.38V317h-2.14Zm2.14,6.95h2.81a7.32,7.32,0,0,0,1.24-.1,3.49,3.49,0,0,0,1.09-.37,2,2,0,0,0,.77-.77,3.06,3.06,0,0,0,0-2.61,2,2,0,0,0-.77-.77,3.39,3.39,0,0,0-1.09-.37,8.35,8.35,0,0,0-1.24-.1h-2.81Z"/><path class="cls-1" d="M445.81,301.25H456v2h-8V308h7.49v2h-7.49V315h8.44v2H445.81Z"/><path class="cls-1" d="M462.17,301.25h2.47l4.63,12.83h0l4.81-12.83h2.34L470.25,317h-2Z"/><path class="cls-1" d="M490.51,317.42a8.45,8.45,0,0,1-3.32-.64,7.62,7.62,0,0,1-2.6-1.75,8.09,8.09,0,0,1-1.69-2.63,9,9,0,0,1,0-6.55,8.13,8.13,0,0,1,1.69-2.63,7.62,7.62,0,0,1,2.6-1.75,9,9,0,0,1,6.64,0,7.64,7.64,0,0,1,2.6,1.75,8.13,8.13,0,0,1,1.69,2.63,9.06,9.06,0,0,1,0,6.55,8.09,8.09,0,0,1-1.69,2.63,7.64,7.64,0,0,1-2.6,1.75A8.46,8.46,0,0,1,490.51,317.42Zm0-2a5.76,5.76,0,0,0,4.32-1.85,5.94,5.94,0,0,0,1.2-2,7.21,7.21,0,0,0,0-4.87,5.94,5.94,0,0,0-1.2-2,5.92,5.92,0,0,0-8.64,0,6,6,0,0,0-1.2,2,7.25,7.25,0,0,0,0,4.87,6,6,0,0,0,1.2,2,5.81,5.81,0,0,0,1.87,1.34A5.73,5.73,0,0,0,490.51,315.42Z"/><path class="cls-1" d="M506.71,301.25h2.14V315h7.24v2h-9.38Z"/><path class="cls-1" d="M525,301.25v9.67a6.13,6.13,0,0,0,.2,1.52,4.38,4.38,0,0,0,.67,1.46,3.59,3.59,0,0,0,1.23,1.09,4.32,4.32,0,0,0,3.74,0,3.61,3.61,0,0,0,1.23-1.09,4.38,4.38,0,0,0,.67-1.46,6.24,6.24,0,0,0,.2-1.52v-9.67h2.14v10a6.43,6.43,0,0,1-.47,2.51,5.89,5.89,0,0,1-1.29,1.95,5.68,5.68,0,0,1-1.94,1.27,6.74,6.74,0,0,1-4.81,0,5.68,5.68,0,0,1-1.94-1.27,5.89,5.89,0,0,1-1.29-1.95,6.43,6.43,0,0,1-.47-2.51v-10Z"/><path class="cls-1" d="M547.06,303.25H542v-2h12.3v2H549.2V317h-2.14Z"/><path class="cls-1" d="M561.45,301.25h2.14V317h-2.14Z"/><path class="cls-1" d="M579.79,317.42a8.45,8.45,0,0,1-3.32-.64,7.62,7.62,0,0,1-2.6-1.75,8.09,8.09,0,0,1-1.69-2.63,9,9,0,0,1,0-6.55,8.13,8.13,0,0,1,1.69-2.63,7.62,7.62,0,0,1,2.6-1.75,9,9,0,0,1,6.64,0,7.64,7.64,0,0,1,2.6,1.75,8.13,8.13,0,0,1,1.69,2.63,9.06,9.06,0,0,1,0,6.55,8.09,8.09,0,0,1-1.69,2.63,7.64,7.64,0,0,1-2.6,1.75A8.46,8.46,0,0,1,579.79,317.42Zm0-2a5.76,5.76,0,0,0,4.32-1.85,5.94,5.94,0,0,0,1.2-2,7.21,7.21,0,0,0,0-4.87,5.94,5.94,0,0,0-1.2-2,5.92,5.92,0,0,0-8.64,0,6,6,0,0,0-1.2,2,7.25,7.25,0,0,0,0,4.87,6,6,0,0,0,1.2,2,5.81,5.81,0,0,0,1.87,1.34A5.73,5.73,0,0,0,579.79,315.42Z"/><path class="cls-1" d="M596,301.25h2.81l8.69,13h0v-13h2.14V317H607l-8.78-13h0v13H596Z"/><path class="cls-1" d="M126.89,284.63l-13.28-20.22c-1.27.09-2.61.18-4.05.18H92.76v20H85.54V221.46h24c15.78,0,24.9,7.75,24.9,21.2,0,10.37-5.14,17.51-14.26,20.39l14.9,21.57Zm-17.33-26.72c11.45,0,17.95-5.14,17.95-15.08,0-9.65-6.5-14.71-17.95-14.71H92.76v29.78Z"/><path class="cls-1" d="M216.88,268.48H182.49l-7,16.15h-7.66l28.34-63.17h7.48l28.25,63.17H224ZM214,261.79,199.64,229.3l-14.18,32.49Z"/><path class="cls-1" d="M326,253c0,18-14.18,31.59-32.77,31.59H268V221.46H293.5C311.91,221.46,326,235.07,326,253Zm-7.33.09c0-14.25-11.18-25-25.36-25H275.17V278h18.42C307.66,278,318.67,267.3,318.67,253.12Z"/><path class="cls-1" d="M408.22,221.46v6.67H372.56v21.2h31.86v6.59H372.56v22h36.82v6.67h-44V221.46Z"/><path class="cls-1" d="M475.46,278.31c12,0,19.23-7.22,19.23-19.67V221.46h7.22v37.18c0,16.52-9.93,26.26-26.45,26.26s-26.63-9.74-26.63-26.26V221.46h7.22v37.18C456.05,271.09,463.47,278.31,475.46,278.31Z"/><path class="cls-1" d="M554.71,221.46l23.11,45.84,23-45.84h8.84v63.17H603l-.09-52.53-23,45.86h-4.33L552.63,232.1v52.53h-6.87V221.46Z"/><path class="cls-1" d="M48.46,221.46v6.68H27.8v56.49H20.58V228.14H0v-6.68Z"/><path class="cls-1" d="M256.71,102.37C243.26,76.6,249.45,42.82,250.9,36L236.32,21.31c-1.79,8.3-10.08,52.43,7.45,86,11.74,22.49,34.09,51,57.38,64.95V154.08C283.11,143.3,265.8,119.78,256.71,102.37Z"/><path class="cls-1" d="M301.15,0,238,14.79l14.67,14.74,33.2-7.78v88.67a62.73,62.73,0,0,0,15.26,11.34Z"/><path class="cls-1" d="M353,102.37c13.45-25.76,7.27-59.55,5.81-66.41l14.58-14.65c1.79,8.3,10.08,52.43-7.45,86-11.74,22.49-34.09,51-57.38,64.95V154.08C326.56,143.3,343.87,119.78,353,102.37Z"/><path class="cls-1" d="M308.52,0l63.14,14.79L357,29.53l-33.2-7.78v88.67a62.73,62.73,0,0,1-15.26,11.34Z"/></g></g></svg>