<?xml version="1.0" encoding="iso-8859-1"?>
<!-- Generator: Adobe Illustrator 19.0.0, SVG Export Plug-In . SVG Version: 6.00 Build 0)  -->
<svg xmlns="http://www.w3.org/2000/svg" xmlns:xlink="http://www.w3.org/1999/xlink" version="1.1" id="Capa_1" x="0px" y="0px" viewBox="0 0 480 480" style="enable-background:new 0 0 480 480;" xml:space="preserve" width="512px" height="512px">
<g>
	<g>
		<path d="M472,264h-80c-4.416,0-8,3.576-8,8v8h-62.312c-7.928,0-15.6,2.32-22.184,6.72L237.576,328h-63.752    c-11.336,0-21.864,5.632-28.168,15.088c-5.36,8.056-6.888,17.944-4.552,27.128l-98.632-30.832    c-6.648-2.496-14.024-2.64-21.192-0.24C8.552,343.384,0,355.248,0,368.68c0,12.528,7.456,23.784,19,28.656l174.464,73.816    c13.88,5.872,28.56,8.848,43.632,8.848h2.032c12.048,0,23.968-1.928,35.568-5.8L384,435.336V448c0,4.424,3.584,8,8,8h80    c4.416,0,8-3.576,8-8V272C480,267.576,476.416,264,472,264z M384,418.352l-114.512,40.72c-9.824,3.272-20.032,4.928-30.36,4.928    h-2.032c-12.912,0-25.504-2.552-37.4-7.584L25.232,382.6C19.624,380.224,16,374.76,16,368.664c0-6.52,4.16-12.288,10.76-14.488    c3.272-1.088,6.856-1.032,10.512,0.328l115.24,36.032c0.104,0.104,0.24,0.176,0.352,0.28c3.016,2.832,6.488,5.096,10.312,6.648    c0.16,0.064,0.32,0.112,0.48,0.176c1.656,0.648,3.368,1.144,5.128,1.528c0.416,0.088,0.824,0.184,1.248,0.264    c1.944,0.336,3.912,0.568,5.936,0.568H296v-16H175.968c-1.504,0-2.952-0.256-4.36-0.608c-0.512-0.128-1.008-0.312-1.504-0.488    c-0.872-0.304-1.72-0.68-2.528-1.112c-0.512-0.28-1.032-0.544-1.52-0.872c-0.912-0.616-1.752-1.328-2.544-2.104    c-0.24-0.24-0.528-0.424-0.76-0.68c-1.064-1.184-2-2.512-2.736-3.992l-2.152-4.304c-2.856-5.712-2.432-12.56,1.12-17.888    c3.32-4.984,8.864-7.952,14.848-7.952H240c1.576,0,3.128-0.472,4.44-1.344l63.944-42.624c3.944-2.64,8.544-4.032,13.304-4.032H384    V418.352z M464,440h-64V280h64V440z" fill="#546e7a"/>
	</g>
</g>
<g>
	<g>
		<path d="M416,152c-17.648,0-32,14.352-32,32s14.352,32,32,32s32-14.352,32-32S433.648,152,416,152z M416,200    c-8.824,0-16-7.176-16-16c0-8.824,7.176-16,16-16c8.824,0,16,7.176,16,16C432,192.824,424.824,200,416,200z" fill="#546e7a"/>
	</g>
</g>
<g>
	<g>
		<path d="M304,40c-17.648,0-32,14.352-32,32s14.352,32,32,32s32-14.352,32-32S321.648,40,304,40z M304,88c-8.824,0-16-7.176-16-16    s7.176-16,16-16c8.824,0,16,7.176,16,16S312.824,88,304,88z" fill="#546e7a"/>
	</g>
</g>
<g>
	<g>
		<rect x="246.866" y="120.012" transform="matrix(0.7071 -0.7071 0.7071 0.7071 14.9189 292.0416)" width="226.238" height="16" fill="#546e7a"/>
	</g>
</g>
<g>
	<g>
		<path d="M128,0C57.424,0,0,57.424,0,128s57.424,128,128,128s128-57.424,128-128S198.576,0,128,0z M128,240    c-61.76,0-112-50.24-112-112S66.24,16,128,16s112,50.24,112,112S189.76,240,128,240z" fill="#546e7a"/>
	</g>
</g>
<g>
	<g>
		<path d="M173,153.752l-37-29.6V65.136c13.76,3.576,24,15.992,24,30.864h16c0-23.736-17.336-43.448-40-47.28V32h-16v16.72    C97.336,52.544,80,72.256,80,96c0,2.432,1.104,4.728,3,6.248l37,29.6v59.016c-13.76-3.576-24-15.992-24-30.864H80    c0,23.736,17.336,43.448,40,47.28V224h16v-16.72c22.664-3.824,40-23.536,40-47.28C176,157.568,174.896,155.272,173,153.752z     M120,111.352L96.208,92.32c1.52-13.216,11.176-23.904,23.792-27.176V111.352z M136,190.856v-46.208l23.792,19.032    C158.272,176.896,148.616,187.584,136,190.856z" fill="#546e7a"/>
	</g>
</g>
<g>
	<g>
		<rect x="32" y="248" width="16" height="16" fill="#546e7a"/>
	</g>
</g>
<g>
	<g>
		<rect x="32" y="280" width="16" height="32" fill="#546e7a"/>
	</g>
</g>
<g>
	<g>
		<rect x="208" y="248" width="16" height="16" fill="#546e7a"/>
	</g>
</g>
<g>
	<g>
		<rect x="208" y="280" width="16" height="32" fill="#546e7a"/>
	</g>
</g>
<g>
	<g>
		<rect x="120" y="272" width="16" height="16" fill="#546e7a"/>
	</g>
</g>
<g>
	<g>
		<rect x="120" y="304" width="16" height="24" fill="#546e7a"/>
	</g>
</g>
<g>
</g>
<g>
</g>
<g>
</g>
<g>
</g>
<g>
</g>
<g>
</g>
<g>
</g>
<g>
</g>
<g>
</g>
<g>
</g>
<g>
</g>
<g>
</g>
<g>
</g>
<g>
</g>
<g>
</g>
</svg>
