<?xml version="1.0" encoding="iso-8859-1"?>
<!-- Generator: Adobe Illustrator 19.0.0, SVG Export Plug-In . SVG Version: 6.00 Build 0)  -->
<svg version="1.1" id="Capa_1" xmlns="http://www.w3.org/2000/svg" xmlns:xlink="http://www.w3.org/1999/xlink" x="0px" y="0px"
	 viewBox="0 0 376 376" style="enable-background:new 0 0 376 376; fill: #546E7A" xml:space="preserve">
<g>
	<g>
		<g>
			<path d="M302.8,23c-40.4,0-73.2,31.6-73.2,70v56.8H114.4C111.2,121.4,86.8,99,57.6,99C25.6,99,0,124.6,0,156.2
				c0,29.6,22.4,53.6,50.8,56.8v96.8C50.8,333.4,70,353,94,353h150c23.6,0,43.2-19.2,43.2-43.2V156.2c0-3.6-2.8-6.4-6.4-6.4h-38.4
				V93.4c0-31.6,27.2-57.2,60.4-57.2c33.2,0,60.4,25.6,60.4,57.2v62.8c0,3.6,2.8,6.4,6.4,6.4c3.6,0,6.4-2.8,6.4-6.4V93.4
				C376,54.6,343.2,23,302.8,23z M57.2,200.6C32.8,201,12.8,181,12.8,156.2c0-24.4,20-44.4,44.4-44.4c14,0,26.4,6.4,34.4,16.4
				c-0.4,0-0.4,0.4-0.8,0.4L48,165l-14-20.8c-2-2.8-6-3.6-8.8-1.6s-3.6,6-1.6,8.8L42,178.2c1.2,1.6,2.8,2.4,4.4,2.8
				c0.4,0,0.4,0,0.8,0c1.6,0,2.8-0.4,4-1.6l47.2-40c2,5.2,3.2,10.8,3.2,16.8C101.6,180.6,81.6,200.6,57.2,200.6z M274.4,163v147.2
				c0,16.8-13.6,30-30,30H94c-16.8,0-30-13.6-30-30v-96.8c26.4-2.8,47.6-24,50.4-50.4H274.4z"/>
			<path d="M162.8,264.6V299c0,3.6,2.8,6.4,6.4,6.4s6.4-2.8,6.4-6.4v-34.4c16.8-3.2,29.2-17.6,29.2-35.2c0-19.6-16-35.6-35.6-35.6
				c-19.6,0-35.6,16-35.6,35.6C133.6,247,146.4,261.4,162.8,264.6z M169.2,207c12.8,0,22.8,10.4,22.8,22.8
				c0,12.4-10.4,22.8-22.8,22.8c-12.8,0-22.8-10.4-22.8-22.8C146.4,217.4,156.8,207,169.2,207z"/>
		</g>
	</g>
</g>
<g>
</g>
<g>
</g>
<g>
</g>
<g>
</g>
<g>
</g>
<g>
</g>
<g>
</g>
<g>
</g>
<g>
</g>
<g>
</g>
<g>
</g>
<g>
</g>
<g>
</g>
<g>
</g>
<g>
</g>
</svg>
