<svg xmlns="http://www.w3.org/2000/svg" viewBox="0 0 144.07 172.26"><defs><style>.cls-1{fill:#231f20;}</style></defs><title>Asset 12</title><g id="Layer_2" data-name="Layer 2"><g id="Layer_1-2" data-name="Layer 1"><path class="cls-1" d="M23.91,102.37C10.46,76.6,16.65,42.82,18.11,36L3.52,21.31c-1.79,8.3-10.08,52.43,7.45,86,11.74,22.49,34.09,51,57.38,64.95V154.08C50.31,143.3,33,119.78,23.91,102.37Z"/><path class="cls-1" d="M68.35,0,5.21,14.79,19.88,29.53l33.2-7.78v88.67a62.73,62.73,0,0,0,15.26,11.34Z"/><path class="cls-1" d="M120.16,102.37C133.61,76.6,127.43,42.82,126,36l14.58-14.65c1.79,8.3,10.08,52.43-7.45,86-11.74,22.49-34.09,51-57.38,64.95V154.08C93.76,143.3,111.07,119.78,120.16,102.37Z"/><path class="cls-1" d="M75.72,0l63.14,14.79L124.19,29.53,91,21.76v88.67a62.73,62.73,0,0,1-15.26,11.34Z"/></g></g></svg>