<svg id="Шар_1" data-name="Шар 1" xmlns="http://www.w3.org/2000/svg" viewBox="0 0 422.49 413.51"><defs><style>.cls-1,.cls-3{fill:none;}.cls-1,.cls-3,.cls-4{stroke:#fff;stroke-miterlimit:10;}.cls-1{stroke-width:4px;}.cls-2,.cls-4{fill:#fff;}.cls-3{stroke-width:2px;}</style></defs><title>file</title><path class="cls-1" d="M308.83,361.09l-12.05-45.38a16.31,16.31,0,0,0-4.31-3.17c-8.36-4.26-22.14-7.82-30.89-11.17a3.2,3.2,0,0,1-1.69-1.33,40.59,40.59,0,0,1-1.7-4.89,3.47,3.47,0,0,0-1.76-2.55,1.44,1.44,0,0,1-.59-1.14c.07-3.83-.83-7.87,2-11.2a1.79,1.79,0,0,0,.18-.38c1.54-3.37,1.81-7.19,3.95-10.32a.51.51,0,0,0,.07-.27c.26-2.39.52-4.75.72-7.15a1.1,1.1,0,0,0-.5-.89c-1.19-.43-1.11-1.38-1.11-2.33v-8.81a8.9,8.9,0,0,0-2.84-7C256,241,253.59,239,251.19,237c-1.15-1-1.25-1.74-.18-2.81a14.33,14.33,0,0,1,1.65-1.22c-.13-.18-.24-.35-.36-.55a12.39,12.39,0,0,0-2.16,0c-2.63.44-5.3.8-7.91,1.41-5,1.17-9.77,2.73-13.81,6-2.76,2.28-5,4.91-5.24,8.66-.14,2-.12,3.92-.13,5.89,0,3.21,0,1.24-.06,4.45,0,.52-.3,1.37-.67,1.49-1.28.42-1.34,1.25-1.15,2.33.13.74,0,1.52.2,2.24.43,2,.92,4,1.5,6a37,37,0,0,1,1.49,4.34,14.72,14.72,0,0,0,3.59,7.83,2.18,2.18,0,0,1,.54,1.47q-.25,3.45-.7,6.86a1.62,1.62,0,0,1-.92,1.19c-1.53.32-1.76,1.5-2.12,2.69-.48,1.55-1,3.12-1.6,4.64A2.4,2.4,0,0,1,222,301.1c-2.72,1.17-27.78,10.12-30.65,11.64a22,22,0,0,0-4.58,3.16l-12.06,45.18c2.84,0,11.65.93,14.85,2.39v-33.6a12.5,12.5,0,0,1,12.5-12.5h37.2l1.28-8.26-4-4,1.63-4h7.16l1.64,4-4,4,1.28,8.26H281.5A12.5,12.5,0,0,1,294,329.87v33.6C297.18,362,306,361.09,308.83,361.09Z" transform="translate(-172.13 -81.26)"/><path class="cls-1" d="M281.5,382.72a6.73,6.73,0,0,0,6.74-6.72h0V329.87a6.74,6.74,0,0,0-6.74-6.74H202.08a6.74,6.74,0,0,0-6.74,6.74V376a6.74,6.74,0,0,0,6.74,6.73H190.2c0,5.29,2.29,6.65,5.1,6.65h93c2.81,0,5.1-1.36,5.1-6.65Z" transform="translate(-172.13 -81.26)"/><path class="cls-2" d="M388.49,136.9l3.34,3.34a1,1,0,0,0,1.36,0L398,135.4a1,1,0,0,0,0-1.36l-.68-.68a1,1,0,0,0-1.36,0l-2.8,2.79a1,1,0,0,1-1.36,0l-1.3-1.29a1,1,0,0,0-1.36,0l-.68.68A1,1,0,0,0,388.49,136.9Z" transform="translate(-172.13 -81.26)"/><path class="cls-1" d="M517.56,315.52c1.14,7.41,6.87,16.86,16.27,20.16a17.83,17.83,0,0,0,11.95,0c9.27-3.37,15.18-12.75,16.32-20.13,1.25-.1,2.88-1.84,4.64-8.09,2.41-8.52-.15-9.8-2.34-9.59a22.6,22.6,0,0,0,.94-3.5c3.68-22.11-7.2-22.86-7.2-22.86a16.79,16.79,0,0,0-6.56-6.09,22.14,22.14,0,0,0-13.49-2.85,20.08,20.08,0,0,0-5.36,1h0a23.61,23.61,0,0,0-5.9,3,31,31,0,0,0-6.06,5.06,24.61,24.61,0,0,0-6.58,11.41,25,25,0,0,0,.05,11.25h0a21.85,21.85,0,0,0,.94,3.5c-2.18-.21-4.74,1.06-2.34,9.59C514.65,313.68,516.28,315.42,517.56,315.52Z" transform="translate(-172.13 -81.26)"/><path class="cls-1" d="M582.54,344.53a82.2,82.2,0,0,1-24-11l-8.43,26.57-1.58,5v-.08l-1.37,4.22-4.44-12.57c10.89-15.18-2.2-15-2.93-15s-13.81-.19-2.93,15l-4.44,12.57-1.37-4.22v.08l-1.58-5-8.43-26.57a82.2,82.2,0,0,1-24,11c-9.87,2.53-10.34,13.92-9.95,19.54,0,0,.57,7.65,1.14,11,0,0,19.28,12.52,51.58,12.55s51.58-12.55,51.58-12.55c.57-3.37,1.14-11,1.14-11C592.88,358.44,592.42,347,582.54,344.53Z" transform="translate(-172.13 -81.26)"/><rect class="cls-3" x="104.31" y="348.01" width="167.99" height="64.5" rx="12.98" ry="12.98"/><rect class="cls-2" x="117.06" y="361.76" width="141.81" height="37" rx="10.41" ry="10.41"/><path class="cls-2" d="M444.34,135.26H405.83a1.54,1.54,0,1,0,0,3.08h38.51a1.54,1.54,0,1,0,0-3.08Z" transform="translate(-172.13 -81.26)"/><path class="cls-2" d="M390.35,121.85h21.36a2.14,2.14,0,0,0,0-4.27H390.35a2.14,2.14,0,0,0,0,4.27Z" transform="translate(-172.13 -81.26)"/><path class="cls-2" d="M452.29,112.42V81.26H360.44V198.75h10.68v10.68H463V123.1ZM433.07,99.23l19.22,19.22,3.39,3.39H433.07Zm-68.36,95.24V85.53H448v22.61l-16.2-16.2h-60.7V194.47Zm10.68,10.68V96.21h53.4v29.91H458.7v79Z" transform="translate(-172.13 -81.26)"/><path class="cls-2" d="M444.34,153H405.83a1.54,1.54,0,1,0,0,3.08h38.51a1.54,1.54,0,1,0,0-3.08Z" transform="translate(-172.13 -81.26)"/><path class="cls-2" d="M444.34,169.51H405.83a1.54,1.54,0,1,0,0,3.08h38.51a1.54,1.54,0,1,0,0-3.08Z" transform="translate(-172.13 -81.26)"/><path class="cls-2" d="M444.34,185.84H405.83a1.54,1.54,0,1,0,0,3.08h38.51a1.54,1.54,0,1,0,0-3.08Z" transform="translate(-172.13 -81.26)"/><path class="cls-2" d="M388.49,154.64l3.34,3.34a1,1,0,0,0,1.36,0l4.84-4.84a1,1,0,0,0,0-1.36l-.68-.68a1,1,0,0,0-1.36,0l-2.8,2.79a1,1,0,0,1-1.36,0l-1.3-1.29a1,1,0,0,0-1.36,0l-.68.68A1,1,0,0,0,388.49,154.64Z" transform="translate(-172.13 -81.26)"/><path class="cls-2" d="M388.49,171.15l3.34,3.34a1,1,0,0,0,1.36,0l4.84-4.84a1,1,0,0,0,0-1.36l-.68-.68a1,1,0,0,0-1.36,0l-2.8,2.79a1,1,0,0,1-1.36,0l-1.3-1.29a1,1,0,0,0-1.36,0l-.68.68A1,1,0,0,0,388.49,171.15Z" transform="translate(-172.13 -81.26)"/><path class="cls-2" d="M388.49,187.48l3.34,3.34a1,1,0,0,0,1.36,0L398,186a1,1,0,0,0,0-1.36l-.68-.68a1,1,0,0,0-1.36,0l-2.8,2.79a1,1,0,0,1-1.36,0l-1.3-1.29a1,1,0,0,0-1.36,0l-.68.68A1,1,0,0,0,388.49,187.48Z" transform="translate(-172.13 -81.26)"/><path class="cls-4" d="M281.55,164h24.64l-6.07-4.33a3.11,3.11,0,0,1,0-5.41,7,7,0,0,1,7.59,0l15.18,10.85a3.11,3.11,0,0,1,0,5.41L307.66,181.4a6.64,6.64,0,0,1-3.79,1.11,6.74,6.74,0,0,1-3.79-1.11,3.11,3.11,0,0,1,0-5.41l6.07-4.33H281.51c-16,0-29,9.29-29,20.69v12.83c0,2.1-2.41,3.82-5.36,3.82s-5.36-1.72-5.36-3.82V192.35C241.78,176.72,259.64,164,281.55,164Z" transform="translate(-172.13 -81.26)"/><path class="cls-4" d="M543.14,198.55l-.55,24.63,4.46-6a3.11,3.11,0,0,1,5.41.12,7,7,0,0,1-.17,7.59L541.1,239.85a3.11,3.11,0,0,1-5.41-.12l-10.51-15.46a6.64,6.64,0,0,1-1-3.82,6.74,6.74,0,0,1,1.2-3.77,3.11,3.11,0,0,1,5.41.12L535,223l.55-24.63c.36-16-8.64-29.21-20-29.47l-12.82-.29c-2.1,0-3.76-2.5-3.7-5.44s1.84-5.32,3.94-5.27l12.82.29C531.34,158.51,543.64,176.64,543.14,198.55Z" transform="translate(-172.13 -81.26)"/><path class="cls-4" d="M505.48,460.88l-24.63-.57,6,4.47a3.11,3.11,0,0,1-.13,5.41,7,7,0,0,1-7.59-.18l-14.92-11.2a3.11,3.11,0,0,1,.13-5.41l15.47-10.5a6.64,6.64,0,0,1,3.82-1,6.74,6.74,0,0,1,3.77,1.2,3.11,3.11,0,0,1-.13,5.41l-6.17,4.19,24.63.57c16,.37,29.22-8.62,29.48-20l.3-12.82c0-2.1,2.5-3.76,5.44-3.69s5.31,1.84,5.27,3.94l-.3,12.82C545.53,449.1,527.39,461.38,505.48,460.88Z" transform="translate(-172.13 -81.26)"/></svg>