<?xml version="1.0" encoding="iso-8859-1"?>
<!-- Generator: Adobe Illustrator 19.0.0, SVG Export Plug-In . SVG Version: 6.00 Build 0)  -->
<svg version="1.1" id="Capa_1" xmlns="http://www.w3.org/2000/svg" xmlns:xlink="http://www.w3.org/1999/xlink" x="0px" y="0px"
	 viewBox="0 0 512 512" style="enable-background:new 0 0 512 512;" xml:space="preserve">
<g>
	<g>
		<path d="M504.5,248.5h-49.325l-1.707-17.064h18.967c12.976,0,23.532-10.557,23.532-23.532v-64.129
			c0-12.976-10.557-23.533-23.532-23.533h-96.194c-12.976,0-23.532,10.557-23.532,23.533v64.129
			c0,12.976,10.557,23.532,23.532,23.532h18.968l-1.707,17.064h-65.874v-38.705c0-8.972-4.985-17.037-13.008-21.047l-34.803-17.402
			c-0.176-0.088-0.285-0.265-0.285-0.462v-11.359c9.72-7.216,16.032-18.775,16.032-31.783v-16.033
			c0-21.816-17.749-39.564-39.564-39.564c-21.702,0-39.372,17.565-39.556,39.224c-0.001,0.027-0.001,0.055-0.002,0.082
			c-0.001,0.086-0.007,0.171-0.007,0.258v16.033c0,13.008,6.312,24.567,16.032,31.783v11.359c0,0.197-0.109,0.374-0.285,0.462
			l-34.803,17.401c-8.024,4.011-13.009,12.076-13.009,21.048V248.5h-17.064v-24.564c0-4.142-3.358-7.5-7.5-7.5h-8.532v-24.564
			c0-4.142-3.358-7.5-7.5-7.5H79.645c-4.142,0-7.5,3.358-7.5,7.5V248.5H47.064V134.383c0-8.367,6.807-15.173,15.173-15.173
			c4.052,0,7.863,1.579,10.729,4.444l5.133,5.133c-7.361,12.135-5.812,28.197,4.661,38.671l5.668,5.668
			c1.406,1.407,3.314,2.197,5.303,2.197s3.897-0.79,5.303-2.197l34.009-34.01c2.929-2.929,2.929-7.677,0-10.606l-5.668-5.668
			c-10.474-10.473-26.536-12.022-38.67-4.661l-5.133-5.134c-5.7-5.699-13.277-8.837-21.336-8.837
			c-16.637,0-30.173,13.536-30.173,30.173V248.5H7.5c-4.142,0-7.5,3.358-7.5,7.5c0,4.142,3.358,7.5,7.5,7.5h8.532v168.855
			c0,4.142,3.358,7.5,7.5,7.5c4.142,0,7.5-3.358,7.5-7.5v-24.564h393.309c4.142,0,7.5-3.358,7.5-7.5c0-4.142-3.358-7.5-7.5-7.5
			H31.032V263.5h449.936v129.291h-24.566c-4.142,0-7.5,3.358-7.5,7.5c0,4.142,3.358,7.5,7.5,7.5h24.566v24.564
			c0,4.142,3.358,7.5,7.5,7.5c4.142,0,7.5-3.358,7.5-7.5V263.5h8.532c4.142,0,7.5-3.358,7.5-7.5
			C512,251.858,508.642,248.5,504.5,248.5z M93.367,133.448c3.227-3.226,7.464-4.839,11.702-4.839c4.237,0,8.476,1.613,11.701,4.839
			l0.365,0.365l-23.403,23.403l-0.365-0.365C86.915,150.399,86.915,139.9,93.367,133.448z M87.145,199.371h49.129v17.064H87.145
			V199.371z M152.307,248.5H87.145v-17.064h65.162V248.5z M256,87.145c13.545,0,24.564,11.02,24.564,24.564v0.366
			c-19.865-0.75-38.871-4.217-48.42-6.215C234.776,95.131,244.471,87.145,256,87.145z M231.437,127.743v-6.698
			c10.725,2.171,29.381,5.356,49.128,6.043v0.655c0,13.545-11.02,24.564-24.564,24.564S231.437,141.287,231.437,127.743z
			 M248.5,248.5h-17.064v-16.548c0-4.142-3.358-7.5-7.5-7.5c-4.142,0-7.5,3.358-7.5,7.5V248.5h-17.064v-38.705h-0.001
			c0-3.253,1.807-6.177,4.716-7.631l23.711-11.856L248.5,211.01V248.5z M241.68,182.977c3.63-2.904,5.787-7.302,5.787-12.093v-4.514
			c2.751,0.607,5.603,0.937,8.533,0.937s5.782-0.33,8.532-0.937v4.514c0,4.791,2.157,9.189,5.787,12.093L256,197.297L241.68,182.977
			z M312.629,248.5h-17.064v-16.548c0-4.142-3.358-7.5-7.5-7.5c-4.142,0-7.5,3.358-7.5,7.5V248.5H263.5v-37.49l20.701-20.701
			l23.712,11.856c2.909,1.454,4.716,4.377,4.716,7.63V248.5z M408.579,248.5l6.468-64.696c0.026-0.265,0.247-0.465,0.514-0.465
			h17.556c0.266,0,0.487,0.2,0.513,0.464l6.47,64.697H408.579z M448.556,182.311c-0.796-7.965-7.434-13.972-15.439-13.972h-17.556
			c-8.004,0-14.642,6.006-15.439,13.972l-3.412,34.125h-20.468c-4.705,0-8.532-3.828-8.532-8.532v-64.129
			c0-4.705,3.828-8.533,8.532-8.533h96.194c4.705,0,8.532,3.828,8.532,8.533v64.129c0,4.705-3.828,8.532-8.532,8.532h-20.467
			L448.556,182.311z"/>
	</g>
</g>
<g>
</g>
<g>
</g>
<g>
</g>
<g>
</g>
<g>
</g>
<g>
</g>
<g>
</g>
<g>
</g>
<g>
</g>
<g>
</g>
<g>
</g>
<g>
</g>
<g>
</g>
<g>
</g>
<g>
</g>
</svg>
