<?xml version="1.0" encoding="iso-8859-1"?>
<!-- Generator: Adobe Illustrator 19.0.0, SVG Export Plug-In . SVG Version: 6.00 Build 0)  -->
<svg version="1.1" id="Capa_1" xmlns="http://www.w3.org/2000/svg" xmlns:xlink="http://www.w3.org/1999/xlink" x="0px" y="0px"
	 viewBox="0 0 414.4 414.4" style="enable-background:new 0 0 414.4 414.4;" xml:space="preserve">
<g>
	<g>
		<path d="M396.8,47.2H17.6C8,47.2,0,55.2,0,64.8v236.8c0,9.6,8,17.6,17.6,17.6H160v32h-37.6c-4.8,0-8,3.2-8,8s3.2,8,8,8H168h78.4
			h43.2c4.8,0,8-3.2,8-8s-3.2-8-8-8h-35.2v-32h142.4c9.6,0,17.6-8,17.6-17.6V64.8C414.4,55.2,406.4,47.2,396.8,47.2z M238.4,351.2
			H176v-32h62.4V351.2z M398.4,301.6c0,0.8-0.8,1.6-1.6,1.6H246.4H168H17.6c-0.8,0-1.6-0.8-1.6-1.6V64.8c0-0.8,0.8-1.6,1.6-1.6
			h379.2c0.8,0,1.6,0.8,1.6,1.6V301.6z"/>
	</g>
</g>
<g>
	<g>
		<path d="M319.2,111.2c-9.6,0-17.6,8-17.6,17.6c0,2.4,0.8,5.6,1.6,7.2l-56.8,64.8c-1.6-0.8-4-1.6-6.4-1.6c-2.4,0-5.6,0.8-8,1.6
			l-40-41.6c0-1.6,0.8-2.4,0.8-4c0-9.6-8-17.6-17.6-17.6c-9.6,0-17.6,8-17.6,17.6c0,1.6,0,2.4,0,4l-59.2,59.2
			c-1.6-0.8-3.2-0.8-4.8-0.8c-9.6,0-17.6,8-17.6,17.6c0,9.6,8,17.6,17.6,17.6s17.6-8,17.6-17.6c0-2.4-0.8-4.8-1.6-6.4l56.8-56.8
			c2.4,0.8,4.8,1.6,7.2,1.6c2.4,0,4.8-0.8,7.2-1.6l40,42.4c0,0.8,0,2.4,0,3.2c0,9.6,8,17.6,17.6,17.6c9.6,0,17.6-8,17.6-17.6
			c0-1.6,0-3.2-0.8-4.8l59.2-66.4c0.8,0,2.4,0,3.2,0c9.6,0,17.6-8,17.6-17.6C336.8,119.2,328.8,111.2,319.2,111.2z"/>
	</g>
</g>
<g>
</g>
<g>
</g>
<g>
</g>
<g>
</g>
<g>
</g>
<g>
</g>
<g>
</g>
<g>
</g>
<g>
</g>
<g>
</g>
<g>
</g>
<g>
</g>
<g>
</g>
<g>
</g>
<g>
</g>
</svg>
