<?xml version="1.0" encoding="iso-8859-1"?>
<!-- Generator: Adobe Illustrator 19.0.0, SVG Export Plug-In . SVG Version: 6.00 Build 0)  -->
<svg version="1.1" id="Capa_1" xmlns="http://www.w3.org/2000/svg" xmlns:xlink="http://www.w3.org/1999/xlink" x="0px" y="0px"
	 viewBox="0 0 512.001 512.001" style="enable-background:new 0 0 512.001 512.001;" xml:space="preserve">
<g>
	<g>
		<path d="M165.682,201.095l-32.92-12.345c-3.312-1.242-5.536-4.453-5.536-7.989v-5.831c19.137-10.979,32.065-31.604,32.065-55.204
			V95.677c0-20.336-9.604-38.461-24.502-50.114c0.301-1.98,0.454-3.99,0.454-5.999C135.243,17.75,117.494,0,95.678,0
			C73.862,0,56.113,17.75,56.113,39.565c0,2.009,0.169,4.01,0.469,5.986C41.676,57.204,32.065,75.333,32.065,95.677v24.048
			c0,23.6,12.928,44.224,32.065,55.204v5.832c0,3.536-2.225,6.747-5.537,7.989l-32.92,12.345C10.317,206.853,0,221.74,0,238.141
			v73.973c0,4.142,3.358,7.5,7.5,7.5s7.5-3.358,7.5-7.5v-73.973c0-1.289,0.104-2.562,0.303-3.812l11.915,11.915
			c3.125,3.126,4.847,7.282,4.847,11.702v54.167c0,4.142,3.358,7.5,7.5,7.5c4.142,0,7.5-3.358,7.5-7.5v-54.167
			c0-8.427-3.282-16.35-9.24-22.309l-15.221-15.219c2.357-2.266,5.168-4.089,8.335-5.277l27.141-10.178l30.097,30.097v77.055
			c0,4.142,3.358,7.5,7.5,7.5c4.142,0,7.5-3.358,7.5-7.5V235.06l30.096-30.096l27.141,10.178c3.167,1.188,5.979,3.012,8.336,5.277
			l-15.22,15.22c-5.958,5.959-9.24,13.882-9.24,22.309v54.167c0,4.142,3.358,7.5,7.5,7.5c4.142,0,7.5-3.358,7.5-7.5v-54.167
			c0-4.42,1.721-8.576,4.847-11.702l11.915-11.914c0.198,1.249,0.303,2.522,0.303,3.811v73.973c0,4.142,3.358,7.5,7.5,7.5
			c4.142,0,7.5-3.358,7.5-7.5v-73.975C191.355,221.741,181.038,206.853,165.682,201.095z M95.678,15
			c12.661,0,23.113,9.629,24.423,21.947c-7.525-3.141-15.774-4.883-24.424-4.883s-16.899,1.742-24.423,4.883
			C72.565,24.63,83.018,15,95.678,15z M47.065,95.677c0-26.804,21.808-48.612,48.613-48.612c26.805,0,48.613,21.808,48.613,48.613
			v8.235c-34.919-2.646-68.448-22.47-68.803-22.682c-1.791-1.075-3.949-1.354-5.956-0.77c-2.005,0.584-3.677,1.978-4.611,3.847
			c-3.384,6.768-11.111,12.243-17.856,15.876V95.677z M47.065,119.727v-2.909c6.887-2.974,19.127-9.28,27.038-19.223
			c12.215,6.393,40.339,19.39,70.188,21.356v0.776c0,26.806-21.808,48.613-48.613,48.613
			C68.873,168.339,47.065,146.531,47.065,119.727z M95.678,221.345l-23.719-23.718c4.381-4.269,7.053-10.172,7.156-16.489
			c5.284,1.426,10.834,2.201,16.563,2.201s11.278-0.774,16.562-2.201c0.103,6.316,2.775,12.219,7.156,16.489L95.678,221.345z"/>
	</g>
</g>
<g>
	<g>
		<path d="M488.503,368.941l-43.583-19.37c-3.078-1.368-5.067-4.429-5.067-7.797v-11.968c14.64-11.665,24.05-29.628,24.05-49.758
			v-16.847c4.823-2.665,8.016-7.815,8.016-13.583v-1.635c0-35.077-28.537-63.613-63.613-63.613h-16.032
			c-35.076,0-63.613,28.536-63.613,63.613v14.835c0,5.07,2.182,9.663,5.985,12.602c0.645,0.498,1.324,0.936,2.031,1.315v3.312
			c0,20.13,9.409,38.093,24.048,49.757v11.969c0,3.368-1.989,6.429-5.067,7.797l-43.583,19.37
			c-14.273,6.344-23.496,20.535-23.496,36.154V504.5c0,4.142,3.358,7.5,7.5,7.5c4.142,0,7.5-3.358,7.5-7.5v-99.404
			c0-0.869,0.062-1.727,0.152-2.579l20.082,20.082c3.126,3.125,4.847,7.281,4.847,11.701v70.2c0,4.142,3.358,7.5,7.5,7.5
			c4.142,0,7.5-3.358,7.5-7.5v-70.2c0-8.427-3.282-16.35-9.241-22.308L310.48,388.05c2.157-2.238,4.745-4.093,7.689-5.402
			l42.847-19.043l31.775,31.775V504.5c0,4.142,3.358,7.5,7.5,7.5c4.142,0,7.5-3.358,7.5-7.5V395.381l31.775-31.775l42.846,19.042
			c2.945,1.309,5.533,3.164,7.69,5.402l-23.941,23.941c-5.958,5.958-9.24,13.881-9.24,22.308v70.2c0,4.142,3.358,7.5,7.5,7.5
			c4.142,0,7.5-3.358,7.5-7.5v-70.2c0-4.42,1.721-8.576,4.847-11.701l20.081-20.082c0.09,0.852,0.152,1.71,0.152,2.579V504.5
			c0,4.142,3.358,7.5,7.5,7.5c4.142,0,7.5-3.358,7.5-7.5v-99.404C512,389.477,502.777,375.285,488.503,368.941z M400.291,381.667
			l-27.882-27.882c2.12-3.567,3.318-7.694,3.318-12.011v-3.052c7.562,3.178,15.861,4.939,24.564,4.939s17.001-1.76,24.563-4.938
			v3.051c0,4.318,1.197,8.444,3.318,12.012L400.291,381.667z M400.29,328.661c-26.805,0-48.612-21.807-48.612-48.613v-3.374
			c4.68-1.855,9.248-4.806,13.62-8.842c3.043-2.81,3.234-7.555,0.424-10.598c-2.808-3.043-7.553-3.234-10.598-0.425
			c-3.751,3.463-7.499,5.7-11.137,6.65c-0.087,0.022-0.153,0.033-0.199,0.037c-0.054-0.104-0.127-0.325-0.127-0.678v-14.835
			c0-26.805,21.808-48.613,48.613-48.613h16.032c26.805,0,48.613,21.808,48.613,48.613v1.635c0,0.243-0.145,0.455-0.338,0.493
			c-44.914,8.869-67.437-7.848-75.036-15.447c-2.929-2.929-7.678-2.929-10.606,0c-2.929,2.929-2.929,7.677,0,10.606
			c23.289,23.29,57.274,23.709,77.964,21.224v13.554C448.903,306.853,427.095,328.661,400.29,328.661z"/>
	</g>
</g>
<g>
	<g>
		<path d="M271.445,453.766c-0.56-4.105-4.333-6.98-8.445-6.419c-7.577,1.033-15.326,1.557-23.032,1.557
			c-34.653,0-67.949-10.417-96.289-30.126c-22.565-15.693-40.752-36.337-53.333-60.369l18.775,12.548
			c3.443,2.302,8.101,1.376,10.403-2.067c2.302-3.444,1.376-8.102-2.068-10.403l-38.861-25.974c-2.191-1.464-4.988-1.671-7.37-0.546
			c-2.382,1.125-4,3.417-4.26,6.039l-4.63,46.512c-0.411,4.122,2.598,7.795,6.72,8.206c0.253,0.025,0.503,0.038,0.752,0.038
			c3.808,0,7.069-2.889,7.454-6.758l1.706-17.14c13.603,24.668,32.691,45.916,56.148,62.229
			c30.866,21.466,67.124,32.812,104.854,32.812c8.381,0,16.812-0.57,25.058-1.694C269.131,461.651,272.005,457.872,271.445,453.766z
			"/>
	</g>
</g>
<g>
	<g>
		<path d="M380.547,160.101l-14.823-44.329c-1.313-3.928-5.56-6.048-9.491-4.734c-3.928,1.313-6.048,5.563-4.734,9.491l6.077,18.173
			c-13.008-10.852-27.41-19.812-43.024-26.75c-23.534-10.457-48.627-15.759-74.583-15.759c-20.013,0-39.695,3.198-58.499,9.504
			c-3.927,1.317-6.043,5.569-4.726,9.496c1.317,3.929,5.569,6.044,9.495,4.727c17.264-5.79,35.341-8.726,53.729-8.726
			c39.708,0,78.221,14.188,108.44,39.455l-19.815-3.346c-4.087-0.691-7.955,2.063-8.644,6.147c-0.689,4.084,2.063,7.955,6.147,8.644
			l46.089,7.781c0.417,0.071,0.834,0.105,1.249,0.105c2.171,0,4.261-0.944,5.699-2.625
			C380.845,165.352,381.382,162.599,380.547,160.101z"/>
	</g>
</g>
<g>
</g>
<g>
</g>
<g>
</g>
<g>
</g>
<g>
</g>
<g>
</g>
<g>
</g>
<g>
</g>
<g>
</g>
<g>
</g>
<g>
</g>
<g>
</g>
<g>
</g>
<g>
</g>
<g>
</g>
</svg>
