<?xml version="1.0" encoding="iso-8859-1"?>
<!-- Generator: Adobe Illustrator 19.0.0, SVG Export Plug-In . SVG Version: 6.00 Build 0)  -->
<svg xmlns="http://www.w3.org/2000/svg" xmlns:xlink="http://www.w3.org/1999/xlink" version="1.1" id="Layer_1" x="0px" y="0px" viewBox="0 0 512 512" style="enable-background:new 0 0 512 512;" xml:space="preserve" width="512px" height="512px">
<g>
	<g>
		<path d="M512,95.319c0-10.209-5.132-19.241-12.954-24.652C507.014,63.207,512,52.601,512,40.851C512,18.325,493.675,0,471.149,0    c-22.676,0-44.687,6.874-63.65,19.878c-18.371,12.597-32.626,30-41.224,50.326c-0.022,0.049-0.041,0.098-0.061,0.147    L308.745,213.99c-3.243-5.034-7.22-9.639-11.895-13.648v-66.896c0-22.526-18.325-40.851-40.851-40.851    s-40.851,18.325-40.851,40.851v66.896c-4.674,4.009-8.652,8.614-11.895,13.648L145.786,70.351c-0.02-0.049-0.04-0.098-0.061-0.147    c-8.597-20.326-22.853-37.729-41.225-50.326C85.537,6.874,63.527,0,40.851,0C18.325,0,0,18.325,0,40.851    c0,11.75,4.986,22.356,12.954,29.816C5.132,76.078,0,85.11,0,95.319c0,8.577,3.622,16.321,9.416,21.787    C3.622,122.573,0,130.317,0,138.894s3.622,16.321,9.416,21.787C3.622,166.147,0,173.892,0,182.468s3.622,16.321,9.416,21.787    C3.622,209.722,0,217.466,0,226.043s3.622,16.321,9.416,21.787C3.622,253.296,0,261.04,0,269.617    c0,16.519,13.438,29.957,29.957,29.957H95.77c4.078,36.715,35.296,65.362,73.081,65.362h2.758c4.512,0,8.17-3.658,8.17-8.17    c0-4.512-3.658-8.17-8.17-8.17h-2.758c-31.536,0-57.191-25.656-57.191-57.192c0-4.512-3.658-8.17-8.17-8.17h-8.17    c-7.509,0-13.617-6.108-13.617-13.617S87.81,256,95.319,256c4.512,0,8.17-3.658,8.17-8.17c0-4.512-3.658-8.17-8.17-8.17    c-7.509,0-13.617-6.108-13.617-13.617s6.108-13.617,13.617-13.617c4.512,0,8.17-3.658,8.17-8.17s-3.658-8.17-8.17-8.17    c-16.519,0-29.957,13.438-29.957,29.957c0,8.577,3.622,16.321,9.416,21.787c-5.794,5.466-9.416,13.211-9.416,21.787    c0,4.902,1.191,9.529,3.288,13.617H29.957c-7.509,0-13.617-6.108-13.617-13.617S22.449,256,29.957,256    c4.512,0,8.17-3.658,8.17-8.17c0-4.512-3.658-8.17-8.17-8.17c-7.509,0-13.617-6.108-13.617-13.617s6.108-13.617,13.617-13.617    c4.512,0,8.17-3.658,8.17-8.17s-3.658-8.17-8.17-8.17c-7.509,0-13.617-6.108-13.617-13.617s6.108-13.617,13.617-13.617    c4.512,0,8.17-3.658,8.17-8.17s-3.658-8.17-8.17-8.17c-7.509,0-13.617-6.108-13.617-13.617s6.108-13.617,13.617-13.617    c4.512,0,8.17-3.658,8.17-8.17s-3.658-8.17-8.17-8.17c-7.509,0-13.617-6.108-13.617-13.617s6.108-13.617,13.617-13.617h10.894    c4.512,0,8.17-3.658,8.17-8.17s-3.658-8.17-8.17-8.17c-13.516,0-24.511-10.995-24.511-24.511S27.335,16.34,40.851,16.34    c38.464,0,74.539,24.172,89.794,60.157l63.833,159.547c-0.723,3.839-1.117,7.777-1.117,11.786v87.149    c0,19.018,8.531,36.071,21.954,47.568l-31.164,89.648c-1.117,3.207-1.683,6.52-1.683,9.848c0,16.519,13.438,29.957,29.957,29.957    c8.577,0,16.321-3.622,21.787-9.417C239.679,508.378,247.423,512,256,512c8.575,0,16.321-3.622,21.787-9.417    c5.466,5.794,13.212,9.417,21.787,9.417c16.518,0,29.957-13.438,29.957-29.957c0-3.327-0.566-6.64-1.682-9.844l-31.166-89.651    c13.423-11.497,21.954-28.551,21.954-47.569V247.83c0-4.009-0.393-7.946-1.117-11.786l63.833-159.548    c15.255-35.984,51.33-60.156,89.794-60.156c13.515,0,24.511,10.995,24.511,24.511s-10.996,24.511-24.511,24.511    c-4.513,0-8.17,3.658-8.17,8.17s3.657,8.17,8.17,8.17h10.894c7.509,0,13.617,6.108,13.617,13.617s-6.108,13.617-13.617,13.617    c-4.513,0-8.17,3.658-8.17,8.17s3.657,8.17,8.17,8.17c7.509,0,13.617,6.108,13.617,13.617s-6.108,13.617-13.617,13.617    c-4.513,0-8.17,3.658-8.17,8.17s3.657,8.17,8.17,8.17c7.509,0,13.617,6.108,13.617,13.617s-6.108,13.617-13.617,13.617    c-4.513,0-8.17,3.658-8.17,8.17s3.657,8.17,8.17,8.17c7.509,0,13.617,6.108,13.617,13.617s-6.108,13.617-13.617,13.617    c-4.513,0-8.17,3.658-8.17,8.17c0,4.512,3.657,8.17,8.17,8.17c7.509,0,13.617,6.108,13.617,13.617s-6.108,13.617-13.617,13.617    h-38.692c2.096-4.088,3.288-8.715,3.288-13.617c0-8.577-3.621-16.321-9.416-21.787c5.794-5.466,9.416-13.211,9.416-21.787    c0-16.519-13.439-29.957-29.957-29.957c-4.513,0-8.17,3.658-8.17,8.17s3.657,8.17,8.17,8.17c7.509,0,13.617,6.108,13.617,13.617    s-6.108,13.617-13.617,13.617c-4.513,0-8.17,3.658-8.17,8.17c0,4.512,3.657,8.17,8.17,8.17c7.509,0,13.617,6.108,13.617,13.617    s-6.108,13.617-13.617,13.617h-8.17c-4.513,0-8.17,3.658-8.17,8.17c0,31.536-25.657,57.192-57.192,57.192h-2.757    c-4.513,0-8.17,3.658-8.17,8.17c0,4.512,3.657,8.17,8.17,8.17h2.757c37.785,0,69.003-28.647,73.081-65.362h65.813    c16.518,0,29.957-13.438,29.957-29.957c0-8.577-3.621-16.321-9.416-21.787c5.794-5.466,9.416-13.211,9.416-21.787    s-3.621-16.321-9.416-21.787c5.794-5.466,9.416-13.211,9.416-21.787s-3.621-16.321-9.416-21.787    c5.794-5.466,9.416-13.211,9.416-21.787s-3.621-16.321-9.416-21.787C508.379,111.64,512,103.896,512,95.319z M312.417,477.57    c0.514,1.475,0.775,2.979,0.775,4.473c0,7.509-6.108,13.617-13.617,13.617s-13.617-6.108-13.617-13.617    c0-4.512-3.657-8.17-8.17-8.17s-8.17,3.658-8.17,8.17c0,7.509-6.108,13.617-13.617,13.617c-7.509,0-13.617-6.108-13.617-13.617    c0-4.512-3.658-8.17-8.17-8.17s-8.17,3.658-8.17,8.17c0,7.509-6.108,13.617-13.617,13.617s-13.617-6.108-13.617-13.617    c0-1.494,0.26-2.998,0.776-4.477l29.853-85.877c8.07,3.795,17.07,5.928,26.563,5.928c9.493,0,18.493-2.133,26.562-5.928    L312.417,477.57z M302.298,334.979c0,25.529-20.769,46.298-46.298,46.298s-46.298-20.769-46.298-46.298V247.83    c0-3.553,0.403-7.035,1.168-10.4c0.053-0.201,0.101-0.402,0.141-0.606c2.489-10.305,8.461-19.46,17.215-26.037    c2.055-1.544,3.264-3.963,3.264-6.533v-70.809c0-13.516,10.995-24.511,24.511-24.511c13.515,0,24.511,10.995,24.511,24.511v70.809    c0,2.57,1.208,4.989,3.263,6.533c8.755,6.576,14.727,15.733,17.216,26.038c0.038,0.203,0.086,0.402,0.139,0.601    c0.766,3.366,1.169,6.849,1.169,10.403V334.979z" fill="#FFFFFF"/>
	</g>
</g>
<g>
	<g>
		<path d="M416.681,108.936c-4.513,0-8.17,3.658-8.17,8.17s3.657,8.17,8.17,8.17c7.509,0,13.617,6.108,13.617,13.617    s-6.108,13.617-13.617,13.617c-4.513,0-8.17,3.658-8.17,8.17s3.657,8.17,8.17,8.17c16.518,0,29.957-13.438,29.957-29.957    C446.638,122.375,433.199,108.936,416.681,108.936z" fill="#FFFFFF"/>
	</g>
</g>
<g>
	<g>
		<path d="M95.319,152.511c-7.509,0-13.617-6.108-13.617-13.617s6.108-13.617,13.617-13.617c4.512,0,8.17-3.658,8.17-8.17    s-3.658-8.17-8.17-8.17c-16.519,0-29.957,13.438-29.957,29.957c0,16.519,13.438,29.957,29.957,29.957    c4.512,0,8.17-3.658,8.17-8.17S99.831,152.511,95.319,152.511z" fill="#FFFFFF"/>
	</g>
</g>
<g>
	<g>
		<path d="M256,125.277c-4.512,0-8.17,3.658-8.17,8.17v21.787c0,4.512,3.658,8.17,8.17,8.17c4.513,0,8.17-3.658,8.17-8.17v-21.787    C264.17,128.935,260.513,125.277,256,125.277z" fill="#FFFFFF"/>
	</g>
</g>
<g>
</g>
<g>
</g>
<g>
</g>
<g>
</g>
<g>
</g>
<g>
</g>
<g>
</g>
<g>
</g>
<g>
</g>
<g>
</g>
<g>
</g>
<g>
</g>
<g>
</g>
<g>
</g>
<g>
</g>
</svg>
