<?xml version="1.0" encoding="UTF-8" standalone="no"?>
<svg
   xmlns:dc="http://purl.org/dc/elements/1.1/"
   xmlns:cc="http://creativecommons.org/ns#"
   xmlns:rdf="http://www.w3.org/1999/02/22-rdf-syntax-ns#"
   xmlns:svg="http://www.w3.org/2000/svg"
   xmlns="http://www.w3.org/2000/svg"
   xmlns:sodipodi="http://sodipodi.sourceforge.net/DTD/sodipodi-0.dtd"
   xmlns:inkscape="http://www.inkscape.org/namespaces/inkscape"
   viewBox="0 0 896.26 173.07001"
   version="1.1"
   id="svg18"
   sodipodi:docname="logo_navbar2.svg"
   width="896.26001"
   height="173.07001"
   inkscape:version="0.92.1 r15371">
  <metadata
     id="metadata22">
    <rdf:RDF>
      <cc:Work
         rdf:about="">
        <dc:format>image/svg+xml</dc:format>
        <dc:type
           rdf:resource="http://purl.org/dc/dcmitype/StillImage" />
        <dc:title>Asset 12</dc:title>
      </cc:Work>
    </rdf:RDF>
  </metadata>
  <sodipodi:namedview
     pagecolor="#ffffff"
     bordercolor="#666666"
     borderopacity="1"
     objecttolerance="10"
     gridtolerance="10"
     guidetolerance="10"
     inkscape:pageopacity="0"
     inkscape:pageshadow="2"
     inkscape:window-width="1360"
     inkscape:window-height="705"
     id="namedview20"
     showgrid="false"
     height="144.07001px"
     inkscape:zoom="1.3700221"
     inkscape:cx="255.50594"
     inkscape:cy="86.129997"
     inkscape:window-x="-8"
     inkscape:window-y="-8"
     inkscape:window-maximized="1"
     inkscape:current-layer="svg18" />
  <defs
     id="defs4">
    <style
       id="style2">.cls-1{fill:#231f20;}</style>
    <style
       id="style24">.cls-1{fill:#231f20;}</style>
  </defs>
  <title
     id="title6">Asset 12</title>
  <g
     id="Layer_2"
     data-name="Layer 2"
     transform="translate(1.270085,0.81173714)"
     style="fill:#ffffff;fill-opacity:1">
    <g
       id="Layer_1-2"
       data-name="Layer 1"
       style="fill:#ffffff;fill-opacity:1">
      <path
         class="cls-1"
         d="M 23.91,102.37 C 10.46,76.6 16.65,42.82 18.11,36 L 3.52,21.31 c -1.79,8.3 -10.08,52.43 7.45,86 11.74,22.49 34.09,51 57.38,64.95 V 154.08 C 50.31,143.3 33,119.78 23.91,102.37 Z"
         id="path8"
         inkscape:connector-curvature="0"
         style="fill:#ffffff;fill-opacity:1" />
      <path
         class="cls-1"
         d="M 68.35,0 5.21,14.79 19.88,29.53 53.08,21.75 v 88.67 a 62.73,62.73 0 0 0 15.26,11.34 z"
         id="path10"
         inkscape:connector-curvature="0"
         style="fill:#ffffff;fill-opacity:1;stroke:#000000;stroke-opacity:0.01718211" />
      <path
         class="cls-1"
         d="M 120.16,102.37 C 133.61,76.6 127.43,42.82 126,36 l 14.58,-14.65 c 1.79,8.3 10.08,52.43 -7.45,86 -11.74,22.49 -34.09,51 -57.38,64.95 v -18.22 c 18.01,-10.78 35.32,-34.3 44.41,-51.71 z"
         id="path12"
         inkscape:connector-curvature="0"
         style="fill:#ffffff;fill-opacity:1" />
      <path
         class="cls-1"
         d="M 75.72,0 138.86,14.79 124.19,29.53 91,21.76 v 88.67 a 62.73,62.73 0 0 1 -15.26,11.34 z"
         id="path14"
         inkscape:connector-curvature="0"
         style="fill:#ffffff;fill-opacity:1" />
    </g>
  </g>
  <g
     data-name="Layer 2"
     id="Layer_2-3"
     transform="matrix(1.1915568,0,0,1.1915568,169.65431,27.573128)"
     style="fill:#f9ffff;fill-opacity:1">
    <g
       data-name="Layer 1"
       id="Layer_1-2-0"
       style="fill:#f9ffff;fill-opacity:1">
      <path
         id="path30"
         d="m 24.42,79.79 h 2.14 v 11.28 a 5.53,5.53 0 0 1 -0.47,2.44 4.22,4.22 0 0 1 -1.17,1.49 4.11,4.11 0 0 1 -1.5,0.76 5.88,5.88 0 0 1 -1.47,0.21 4.58,4.58 0 0 1 -2.82,-0.85 4,4 0 0 1 -1.46,-2.6 l 2.1,-0.47 a 2.49,2.49 0 0 0 0.74,1.4 2.06,2.06 0 0 0 1.45,0.51 2.31,2.31 0 0 0 1.28,-0.31 2.2,2.2 0 0 0 0.75,-0.81 3.47,3.47 0 0 0 0.36,-1.15 9.78,9.78 0 0 0 0.09,-1.31 z"
         class="cls-1"
         inkscape:connector-curvature="0"
         style="fill:#f9ffff;fill-opacity:1" />
      <path
         id="path32"
         d="m 42.38,96 a 8.45,8.45 0 0 1 -3.32,-0.64 7.62,7.62 0 0 1 -2.6,-1.75 8.09,8.09 0 0 1 -1.69,-2.61 9,9 0 0 1 0,-6.55 8.13,8.13 0 0 1 1.69,-2.63 7.62,7.62 0 0 1 2.6,-1.82 9,9 0 0 1 6.64,0 7.64,7.64 0 0 1 2.6,1.75 8.13,8.13 0 0 1 1.7,2.66 9.06,9.06 0 0 1 0,6.59 8.09,8.09 0 0 1 -1.69,2.63 7.64,7.64 0 0 1 -2.6,1.75 8.46,8.46 0 0 1 -3.33,0.62 z m 0,-2 a 5.76,5.76 0 0 0 4.32,-1.85 5.94,5.94 0 0 0 1.2,-2 7.21,7.21 0 0 0 0,-4.87 5.94,5.94 0 0 0 -1.2,-2 5.92,5.92 0 0 0 -8.64,0 6,6 0 0 0 -1.2,2 7.25,7.25 0 0 0 0,4.87 6,6 0 0 0 1.2,2 5.81,5.81 0 0 0 1.87,1.34 5.73,5.73 0 0 0 2.45,0.51 z"
         class="cls-1"
         inkscape:connector-curvature="0"
         style="fill:#f9ffff;fill-opacity:1" />
      <path
         id="path34"
         d="m 58.58,79.79 h 2.14 v 15.77 h -2.14 z"
         class="cls-1"
         inkscape:connector-curvature="0"
         style="fill:#f9ffff;fill-opacity:1" />
      <path
         id="path36"
         d="m 69.67,79.79 h 2.81 l 8.69,13 v 0 -13 h 2.14 v 15.77 h -2.67 l -8.78,-13 v 0 13 h -2.19 z"
         class="cls-1"
         inkscape:connector-curvature="0"
         style="fill:#f9ffff;fill-opacity:1" />
      <path
         id="path38"
         d="m 106.71,81.8 h -5.08 v -2 h 12.3 v 2 h -5.08 v 13.76 h -2.14 z"
         class="cls-1"
         inkscape:connector-curvature="0"
         style="fill:#f9ffff;fill-opacity:1" />
      <path
         id="path40"
         d="m 121.1,79.79 h 2.14 v 6.55 h 8.18 v -6.55 h 2.14 v 15.77 h -2.14 v -7.21 h -8.18 v 7.22 h -2.14 z"
         class="cls-1"
         inkscape:connector-curvature="0"
         style="fill:#f9ffff;fill-opacity:1" />
      <path
         id="path42"
         d="m 142.51,79.79 h 10.19 v 2 h -8 v 4.7 h 7.49 v 2 h -7.49 v 5.06 h 8.44 v 2 h -10.63 z"
         class="cls-1"
         inkscape:connector-curvature="0"
         style="fill:#f9ffff;fill-opacity:1" />
      <path
         id="path44"
         d="m 171.77,79.79 h 5.5 a 10.22,10.22 0 0 1 2.93,0.37 7.72,7.72 0 0 1 2.18,1 6.32,6.32 0 0 1 1.54,1.46 7.74,7.74 0 0 1 1,1.69 8.56,8.56 0 0 1 0.51,1.74 9,9 0 0 1 0.16,1.6 8,8 0 0 1 -0.56,2.93 7.45,7.45 0 0 1 -1.65,2.52 8.17,8.17 0 0 1 -2.71,1.77 9.66,9.66 0 0 1 -3.73,0.67 h -5.15 z m 2.14,13.77 h 2.7 a 8.74,8.74 0 0 0 2.57,-0.37 6.26,6.26 0 0 0 2.13,-1.1 5.32,5.32 0 0 0 1.45,-1.84 5.85,5.85 0 0 0 0.54,-2.58 7.68,7.68 0 0 0 -0.25,-1.77 5.29,5.29 0 0 0 -0.92,-1.93 5.5,5.5 0 0 0 -1.88,-1.55 6.68,6.68 0 0 0 -3.12,-0.64 h -3.21 z"
         class="cls-1"
         inkscape:connector-curvature="0"
         style="fill:#f9ffff;fill-opacity:1" />
      <path
         id="path46"
         d="m 193.54,79.79 h 10.18 v 2 h -8 v 4.7 h 7.49 v 2 h -7.49 v 5.06 h 8.44 v 2 h -10.62 z"
         class="cls-1"
         inkscape:connector-curvature="0"
         style="fill:#f9ffff;fill-opacity:1" />
      <path
         id="path48"
         d="m 223,83.2 a 4.43,4.43 0 0 0 -1.69,-1.34 5,5 0 0 0 -2.12,-0.47 5.6,5.6 0 0 0 -2.42,0.5 5.53,5.53 0 0 0 -1.77,1.38 6.37,6.37 0 0 0 -1.19,2 7.38,7.38 0 0 0 -0.42,2.51 6.94,6.94 0 0 0 0.4,2.37 5.91,5.91 0 0 0 1.16,2 5.41,5.41 0 0 0 1.85,1.34 6,6 0 0 0 2.47,0.49 4.94,4.94 0 0 0 2.38,-0.56 5.18,5.18 0 0 0 1.74,-1.56 l 1.8,1.36 a 7,7 0 0 1 -0.62,0.7 6.24,6.24 0 0 1 -1.18,0.91 8.65,8.65 0 0 1 -1.77,0.81 7.68,7.68 0 0 1 -2.39,0.34 7.8,7.8 0 0 1 -3.38,-0.71 8.17,8.17 0 0 1 -4.18,-4.49 8.23,8.23 0 0 1 -0.56,-3 9.21,9.21 0 0 1 0.6,-3.37 8,8 0 0 1 1.68,-2.68 7.57,7.57 0 0 1 2.61,-1.73 8.74,8.74 0 0 1 3.34,-0.62 8.2,8.2 0 0 1 3.06,0.6 5.73,5.73 0 0 1 2.46,1.85 z"
         class="cls-1"
         inkscape:connector-curvature="0"
         style="fill:#f9ffff;fill-opacity:1" />
      <path
         id="path50"
         d="m 232.64,79.79 h 10.18 v 2 h -8 v 4.7 h 7.49 v 2 h -7.49 v 5.06 h 8.44 v 2 h -10.62 z"
         class="cls-1"
         inkscape:connector-curvature="0"
         style="fill:#f9ffff;fill-opacity:1" />
      <path
         id="path52"
         d="M 251.16,79.79 H 254 l 8.69,13 v 0 -13 h 2.14 v 15.77 h -2.72 l -8.78,-13 v 0 13 h -2.14 z"
         class="cls-1"
         inkscape:connector-curvature="0"
         style="fill:#f9ffff;fill-opacity:1" />
      <path
         id="path54"
         d="M 277.09,81.8 H 272 v -2 h 12.3 v 2 h -5.08 v 13.76 h -2.14 z"
         class="cls-1"
         inkscape:connector-curvature="0"
         style="fill:#f9ffff;fill-opacity:1" />
      <path
         id="path56"
         d="M 291.49,79.79 H 297 a 6.49,6.49 0 0 1 2.49,0.41 4.3,4.3 0 0 1 1.55,1 3.61,3.61 0 0 1 0.79,1.42 5.67,5.67 0 0 1 0.22,1.53 4.12,4.12 0 0 1 -1,2.72 4.29,4.29 0 0 1 -1.23,1 4.2,4.2 0 0 1 -1.62,0.48 l 4.48,7.2 H 300 l -4,-6.95 h -2.38 v 6.95 h -2.14 z m 2.14,6.95 h 2.81 a 7.32,7.32 0 0 0 1.24,-0.1 3.49,3.49 0 0 0 1.09,-0.37 2,2 0 0 0 0.77,-0.77 3.06,3.06 0 0 0 0,-2.61 2,2 0 0 0 -0.77,-0.77 3.39,3.39 0 0 0 -1.09,-0.37 8.35,8.35 0 0 0 -1.24,-0.1 h -2.81 z"
         class="cls-1"
         inkscape:connector-curvature="0"
         style="fill:#f9ffff;fill-opacity:1" />
      <path
         id="path58"
         d="m 315,79.79 h 1.94 l 6.75,15.77 h -2.5 l -1.58,-3.9 h -7.51 l -1.56,3.9 H 308 Z m 3.83,10 -2.94,-7.24 v 0 l -3,7.24 z"
         class="cls-1"
         inkscape:connector-curvature="0"
         style="fill:#f9ffff;fill-opacity:1" />
      <path
         id="path60"
         d="m 330.59,79.79 h 2.14 V 93.56 H 340 v 2 h -9.38 z"
         class="cls-1"
         inkscape:connector-curvature="0"
         style="fill:#f9ffff;fill-opacity:1" />
      <path
         id="path62"
         d="m 347.06,79.79 h 2.14 v 15.77 h -2.14 z"
         class="cls-1"
         inkscape:connector-curvature="0"
         style="fill:#f9ffff;fill-opacity:1" />
      <path
         id="path64"
         d="m 356.84,93.56 9,-11.77 h -8.71 v -2 h 11.38 v 2 l -8.93,11.77 h 9.07 v 2 h -11.81 z"
         class="cls-1"
         inkscape:connector-curvature="0"
         style="fill:#f9ffff;fill-opacity:1" />
      <path
         id="path66"
         d="m 376.27,79.79 h 10.18 v 2 h -8 v 4.7 h 7.49 v 2 h -7.49 v 5.06 h 8.44 v 2 h -10.62 z"
         class="cls-1"
         inkscape:connector-curvature="0"
         style="fill:#f9ffff;fill-opacity:1" />
      <path
         id="path68"
         d="m 394.43,79.79 h 5.5 a 10.22,10.22 0 0 1 2.93,0.37 7.72,7.72 0 0 1 2.18,1 6.32,6.32 0 0 1 1.54,1.46 7.74,7.74 0 0 1 1,1.69 8.56,8.56 0 0 1 0.51,1.74 9,9 0 0 1 0.16,1.6 8,8 0 0 1 -0.56,2.93 7.45,7.45 0 0 1 -1.69,2.55 8.17,8.17 0 0 1 -2.71,1.77 9.66,9.66 0 0 1 -3.73,0.67 h -5.15 z m 2.14,13.77 h 2.7 a 8.74,8.74 0 0 0 2.57,-0.37 6.26,6.26 0 0 0 2.13,-1.1 5.32,5.32 0 0 0 1.45,-1.84 5.85,5.85 0 0 0 0.54,-2.58 7.68,7.68 0 0 0 -0.25,-1.77 5.29,5.29 0 0 0 -0.92,-1.93 5.5,5.5 0 0 0 -1.88,-1.55 6.68,6.68 0 0 0 -3.12,-0.64 h -3.21 z"
         class="cls-1"
         inkscape:connector-curvature="0"
         style="fill:#f9ffff;fill-opacity:1" />
      <path
         id="path70"
         d="m 427.29,79.79 h 5.55 a 6.49,6.49 0 0 1 2.49,0.41 4.3,4.3 0 0 1 1.55,1 3.61,3.61 0 0 1 0.79,1.42 5.67,5.67 0 0 1 0.22,1.53 4.12,4.12 0 0 1 -1,2.72 4.29,4.29 0 0 1 -1.23,1 4.2,4.2 0 0 1 -1.62,0.48 l 4.48,7.2 h -2.67 l -4,-6.95 h -2.38 v 6.95 h -2.14 z m 2.14,6.95 h 2.81 a 7.32,7.32 0 0 0 1.24,-0.1 3.49,3.49 0 0 0 1.09,-0.37 2,2 0 0 0 0.77,-0.77 3.06,3.06 0 0 0 0,-2.61 2,2 0 0 0 -0.77,-0.77 3.39,3.39 0 0 0 -1.09,-0.37 8.35,8.35 0 0 0 -1.24,-0.1 h -2.81 z"
         class="cls-1"
         inkscape:connector-curvature="0"
         style="fill:#f9ffff;fill-opacity:1" />
      <path
         id="path72"
         d="M 445.81,79.79 H 456 v 2 h -8 v 4.7 h 7.49 v 2 H 448 v 5.06 h 8.44 v 2 h -10.63 z"
         class="cls-1"
         inkscape:connector-curvature="0"
         style="fill:#f9ffff;fill-opacity:1" />
      <path
         id="path74"
         d="m 462.17,79.79 h 2.47 l 4.63,12.83 v 0 l 4.81,-12.83 h 2.34 l -6.22,15.77 h -2 z"
         class="cls-1"
         inkscape:connector-curvature="0"
         style="fill:#f9ffff;fill-opacity:1" />
      <path
         id="path76"
         d="m 490.51,96 a 8.45,8.45 0 0 1 -3.32,-0.64 7.62,7.62 0 0 1 -2.6,-1.75 8.09,8.09 0 0 1 -1.69,-2.61 9,9 0 0 1 0,-6.55 8.13,8.13 0 0 1 1.69,-2.63 7.62,7.62 0 0 1 2.6,-1.75 9,9 0 0 1 6.64,0 7.64,7.64 0 0 1 2.6,1.75 8.13,8.13 0 0 1 1.69,2.63 9.06,9.06 0 0 1 0,6.55 8.09,8.09 0 0 1 -1.69,2.63 7.64,7.64 0 0 1 -2.6,1.75 8.46,8.46 0 0 1 -3.32,0.62 z m 0,-2 a 5.76,5.76 0 0 0 4.32,-1.85 5.94,5.94 0 0 0 1.2,-2 7.21,7.21 0 0 0 0,-4.87 5.94,5.94 0 0 0 -1.2,-2 5.92,5.92 0 0 0 -8.64,0 6,6 0 0 0 -1.2,2 7.25,7.25 0 0 0 0,4.87 6,6 0 0 0 1.2,2 5.81,5.81 0 0 0 1.87,1.34 5.73,5.73 0 0 0 2.45,0.51 z"
         class="cls-1"
         inkscape:connector-curvature="0"
         style="fill:#f9ffff;fill-opacity:1" />
      <path
         id="path78"
         d="m 506.71,79.79 h 2.14 v 13.77 h 7.24 v 2 h -9.38 z"
         class="cls-1"
         inkscape:connector-curvature="0"
         style="fill:#f9ffff;fill-opacity:1" />
      <path
         id="path80"
         d="m 525,79.79 v 9.67 a 6.13,6.13 0 0 0 0.2,1.52 4.38,4.38 0 0 0 0.67,1.46 3.59,3.59 0 0 0 1.23,1.09 4.32,4.32 0 0 0 3.74,0 3.61,3.61 0 0 0 1.23,-1.09 4.38,4.38 0 0 0 0.67,-1.46 6.24,6.24 0 0 0 0.2,-1.52 v -9.67 h 2.14 v 10 a 6.43,6.43 0 0 1 -0.47,2.51 5.89,5.89 0 0 1 -1.29,1.95 5.68,5.68 0 0 1 -1.94,1.27 6.74,6.74 0 0 1 -4.81,0 5.68,5.68 0 0 1 -1.94,-1.27 5.89,5.89 0 0 1 -1.29,-1.95 6.43,6.43 0 0 1 -0.47,-2.51 v -10 z"
         class="cls-1"
         inkscape:connector-curvature="0"
         style="fill:#f9ffff;fill-opacity:1" />
      <path
         id="path82"
         d="M 547.06,81.8 H 542 v -2 h 12.3 v 2 h -5.1 v 13.76 h -2.14 z"
         class="cls-1"
         inkscape:connector-curvature="0"
         style="fill:#f9ffff;fill-opacity:1" />
      <path
         id="path84"
         d="m 561.45,79.79 h 2.14 v 15.77 h -2.14 z"
         class="cls-1"
         inkscape:connector-curvature="0"
         style="fill:#f9ffff;fill-opacity:1" />
      <path
         id="path86"
         d="m 579.79,96 a 8.45,8.45 0 0 1 -3.32,-0.64 7.62,7.62 0 0 1 -2.6,-1.75 8.09,8.09 0 0 1 -1.69,-2.61 9,9 0 0 1 0,-6.55 8.13,8.13 0 0 1 1.69,-2.63 7.62,7.62 0 0 1 2.6,-1.75 9,9 0 0 1 6.64,0 7.64,7.64 0 0 1 2.6,1.75 8.13,8.13 0 0 1 1.69,2.63 9.06,9.06 0 0 1 0,6.55 8.09,8.09 0 0 1 -1.69,2.63 7.64,7.64 0 0 1 -2.6,1.75 8.46,8.46 0 0 1 -3.32,0.62 z m 0,-2 a 5.76,5.76 0 0 0 4.32,-1.85 5.94,5.94 0 0 0 1.2,-2 7.21,7.21 0 0 0 0,-4.87 5.94,5.94 0 0 0 -1.2,-2 5.92,5.92 0 0 0 -8.64,0 6,6 0 0 0 -1.2,2 7.25,7.25 0 0 0 0,4.87 6,6 0 0 0 1.2,2 5.81,5.81 0 0 0 1.87,1.34 5.73,5.73 0 0 0 2.45,0.51 z"
         class="cls-1"
         inkscape:connector-curvature="0"
         style="fill:#f9ffff;fill-opacity:1" />
      <path
         id="path88"
         d="m 596,79.79 h 2.81 l 8.69,13 v 0 -13 h 2.14 V 95.56 H 607 l -8.78,-13 v 0 13 H 596 Z"
         class="cls-1"
         inkscape:connector-curvature="0"
         style="fill:#f9ffff;fill-opacity:1" />
      <path
         id="path90"
         d="M 126.89,63.17 113.61,43 c -1.27,0.09 -2.61,0.18 -4.05,0.18 h -16.8 v 20 H 85.54 V 0 h 24 c 15.78,0 24.9,7.75 24.9,21.2 0,10.37 -5.14,17.51 -14.26,20.39 l 14.9,21.57 z M 109.56,36.45 c 11.45,0 17.95,-5.14 17.95,-15.08 0,-9.65 -6.5,-14.71 -17.95,-14.71 h -16.8 v 29.79 z"
         class="cls-1"
         inkscape:connector-curvature="0"
         style="fill:#f9ffff;fill-opacity:1" />
      <path
         id="path92"
         d="m 216.88,47 h -34.39 l -7,16.15 h -7.66 L 196.12,0 h 7.48 l 28.25,63.17 H 224 Z M 214,40.33 199.64,7.84 185.46,40.33 Z"
         class="cls-1"
         inkscape:connector-curvature="0"
         style="fill:#f9ffff;fill-opacity:1" />
      <path
         id="path94"
         d="m 326,31.58 c 0,18 -14.18,31.59 -32.77,31.59 H 268 V 0 h 25.5 C 311.91,0 326,13.61 326,31.58 Z m -7.33,0.09 c 0,-14.25 -11.18,-25 -25.36,-25 H 275.17 V 56.5 h 18.42 c 14.07,0 25.08,-10.66 25.08,-24.84 z"
         class="cls-1"
         inkscape:connector-curvature="0"
         style="fill:#f9ffff;fill-opacity:1" />
      <path
         id="path96"
         d="m 408.22,0 v 6.67 h -35.66 v 21.2 h 31.86 v 6.59 h -31.86 v 22 h 36.82 v 6.67 h -44 V 0 Z"
         class="cls-1"
         inkscape:connector-curvature="0"
         style="fill:#f9ffff;fill-opacity:1" />
      <path
         id="path98"
         d="m 475.46,56.85 c 12,0 19.23,-7.22 19.23,-19.67 V 0 h 7.22 v 37.18 c 0,16.52 -9.93,26.26 -26.45,26.26 -16.52,0 -26.63,-9.74 -26.63,-26.26 V 0 h 7.22 v 37.18 c 0,12.45 7.42,19.67 19.41,19.67 z"
         class="cls-1"
         inkscape:connector-curvature="0"
         style="fill:#f9ffff;fill-opacity:1" />
      <path
         id="path100"
         d="M 554.71,0 577.82,45.84 600.83,0 h 8.84 V 63.17 H 603 l -0.09,-52.53 -23,45.86 h -4.33 L 552.63,10.64 v 52.53 h -6.87 V 0 Z"
         class="cls-1"
         inkscape:connector-curvature="0"
         style="fill:#f9ffff;fill-opacity:1" />
      <path
         id="path102"
         d="M 48.46,0 V 6.68 H 27.8 V 63.17 H 20.58 V 6.68 H 0 V 0 Z"
         class="cls-1"
         inkscape:connector-curvature="0"
         style="fill:#f9ffff;fill-opacity:1" />
    </g>
  </g>
</svg>
