<?xml version="1.0" encoding="utf-8"?>
<!-- Generator: Adobe Illustrator 22.0.1, SVG Export Plug-In . SVG Version: 6.00 Build 0)  -->
<svg version="1.1" id="Laag_1" xmlns="http://www.w3.org/2000/svg" xmlns:xlink="http://www.w3.org/1999/xlink" x="0px" y="0px"
	 viewBox="0 0 696.2 152.4" style="enable-background:new 0 0 696.2 152.4;" xml:space="preserve">
<style type="text/css">
	.st0{fill:#FFFFFF;}
	.st1{fill:#0D46A0;}
	.st2{fill:#29B6F6;}
</style>
<g>
	<path class="st0" d="M162.1,82.9v-7.3h42.8c4.1,0,6.2-1.5,6.2-4.5v-6.2c0-3-2.1-4.5-6.2-4.5h-29c-2.8,0-5.2-0.3-7.1-0.9
		c-2-0.6-3.6-1.4-4.8-2.4c-1.2-1-2.1-2.3-2.7-3.7c-0.6-1.4-0.8-3.1-0.8-4.8v-2.9c0-1.8,0.3-3.4,0.8-4.8c0.6-1.4,1.5-2.7,2.7-3.7
		c1.2-1,2.8-1.9,4.8-2.4c2-0.6,4.3-0.9,7.1-0.9h41.7V41h-41.7c-4.1,0-6.2,1.5-6.2,4.5v3c0,3,2.1,4.5,6.2,4.5h29
		c2.8,0,5.2,0.3,7.1,0.9c2,0.6,3.6,1.4,4.8,2.4c1.2,1,2.1,2.3,2.7,3.7c0.6,1.4,0.8,3.1,0.8,4.8V71c0,1.8-0.3,3.4-0.8,4.8
		c-0.6,1.4-1.5,2.7-2.7,3.7c-1.2,1-2.8,1.9-4.8,2.4c-2,0.6-4.3,0.9-7.1,0.9H162.1z"/>
	<path class="st0" d="M290.1,82.9l-18.6-22h-16v22h-9.3V33.7h9.3v20h15.8l18.5-20h11.1L279,56.6l21.8,26.3H290.1z"/>
	<path class="st0" d="M381.4,82.9L356,43.3l-25.8,39.7h-10.4l32.7-49.2h6.8l32.5,49.2H381.4z"/>
	<path class="st0" d="M424.7,82.9v-20l-31.6-29.2H405l24.3,22.5l24.3-22.5h11.8L434,62.9v20H424.7z"/>
	<path class="st0" d="M488.1,82.9V33.7h9.4v42h39.9v7.3H488.1z"/>
	<path class="st0" d="M562.1,82.9V33.7h50.6V41h-41.3v12.3h39.2v7.3h-39.2v15.1h41.3v7.3H562.1z"/>
	<path class="st0" d="M685.7,82.9l-11.5-22h-25.9v22h-9.3V33.7h41.8c2.8,0,5.2,0.3,7.1,0.9c2,0.6,3.6,1.4,4.8,2.4
		c1.2,1,2.1,2.3,2.7,3.7c0.6,1.4,0.8,3.1,0.8,4.8v3.5c0,3.2-0.9,5.8-2.8,7.9c-1.9,2.1-5,3.4-9.4,3.8l11.6,22.1H685.7z M686.9,45.5
		c0-3-2.1-4.5-6.2-4.5h-32.5v12.7h32.5c4.1,0,6.2-1.5,6.2-4.5V45.5z"/>
</g>
<g>
	<path class="st0" d="M160.5,119V95h17.5c1.4,0,2.5,0.1,3.4,0.4c0.9,0.3,1.6,0.7,2.2,1.3c0.5,0.6,0.9,1.3,1.2,2.2
		c0.2,0.9,0.3,1.9,0.3,3.1v10.1c0,1.1-0.1,2.1-0.3,3c-0.2,0.9-0.6,1.6-1.2,2.1c-0.5,0.6-1.3,1-2.2,1.3c-0.9,0.3-2,0.4-3.4,0.4H160.5
		z M181.4,102.1c0-0.7-0.1-1.3-0.2-1.7c-0.1-0.5-0.3-0.8-0.6-1.1c-0.3-0.3-0.6-0.5-1.1-0.6c-0.4-0.1-1-0.2-1.7-0.2h-13.9v16.9h13.9
		c0.7,0,1.2-0.1,1.7-0.2c0.4-0.1,0.8-0.3,1.1-0.5c0.3-0.3,0.4-0.6,0.6-1c0.1-0.4,0.2-1,0.2-1.6V102.1z"/>
	<path class="st0" d="M223.5,119l-4.5-10.7h-10V119h-3.6V95h16.2c1.1,0,2,0.1,2.8,0.4c0.8,0.3,1.4,0.7,1.9,1.2
		c0.5,0.5,0.8,1.1,1,1.8c0.2,0.7,0.3,1.5,0.3,2.4v1.7c0,1.5-0.4,2.8-1.1,3.9c-0.7,1-1.9,1.7-3.6,1.9l4.5,10.8H223.5z M224,100.7
		c0-1.5-0.8-2.2-2.4-2.2H209v6.2h12.6c1.6,0,2.4-0.7,2.4-2.2V100.7z"/>
	<path class="st0" d="M247.6,119V95h3.6v24H247.6z"/>
	<path class="st0" d="M282.9,119l-12.7-24h4.1l10,19.3l9.9-19.3h4l-12.6,24H282.9z"/>
	<path class="st0" d="M316.9,119V95h19.6v3.5h-16v6h15.2v3.5h-15.2v7.4h16v3.5H316.9z"/>
	<path class="st0" d="M380,119l-20.3-18.7V119h-3.1V95h3.1l19,17.8V95h3.1v24H380z"/>
	<path class="st0" d="M433,119V95h15.5c1,0,1.9,0.1,2.7,0.4c0.7,0.2,1.4,0.6,1.8,1c0.5,0.4,0.8,1,1,1.6c0.2,0.6,0.3,1.4,0.3,2.2v2.2
		c0,1-0.2,1.9-0.6,2.6c-0.4,0.7-1,1.2-1.6,1.3c0.7,0.3,1.3,0.7,1.8,1.3c0.5,0.6,0.7,1.5,0.7,2.6v3.5c0,0.7-0.1,1.3-0.3,2
		c-0.2,0.6-0.5,1.2-1,1.7c-0.5,0.5-1.1,0.9-1.9,1.1c-0.8,0.3-1.8,0.4-2.9,0.4H433z M450.7,100.4c0-0.7-0.2-1.1-0.5-1.4
		c-0.3-0.3-0.9-0.4-1.8-0.4h-11.9v6.2h11.9c0.8,0,1.4-0.1,1.8-0.4c0.3-0.3,0.5-0.8,0.5-1.4V100.4z M451,110.4c0-0.8-0.2-1.3-0.7-1.6
		c-0.5-0.3-1-0.5-1.8-0.5h-12v7.1h12c0.7,0,1.3-0.2,1.8-0.5c0.5-0.3,0.7-1,0.7-2V110.4z"/>
	<path class="st0" d="M484.2,119v-9.8L472,95h4.6l9.4,11l9.4-11h4.5l-12.2,14.3v9.8H484.2z"/>
	<path class="st0" d="M549.4,119V95h17.5c1.4,0,2.5,0.1,3.4,0.4c0.9,0.3,1.6,0.7,2.2,1.3c0.5,0.6,0.9,1.3,1.2,2.2
		c0.2,0.9,0.3,1.9,0.3,3.1v10.1c0,1.1-0.1,2.1-0.3,3c-0.2,0.9-0.6,1.6-1.2,2.1c-0.5,0.6-1.3,1-2.2,1.3c-0.9,0.3-2,0.4-3.4,0.4H549.4
		z M570.3,102.1c0-0.7-0.1-1.3-0.2-1.7c-0.1-0.5-0.3-0.8-0.6-1.1c-0.3-0.3-0.6-0.5-1.1-0.6c-0.4-0.1-1-0.2-1.7-0.2H553v16.9h13.9
		c0.7,0,1.2-0.1,1.7-0.2c0.4-0.1,0.8-0.3,1.1-0.5c0.3-0.3,0.4-0.6,0.6-1c0.1-0.4,0.2-1,0.2-1.6V102.1z"/>
	<path class="st0" d="M615.2,119l-9.8-19.3l-10,19.3h-4l12.7-24h2.6l12.6,24H615.2z"/>
	<path class="st0" d="M642.2,119V98.5h-10V95h23.3v3.5h-9.7V119H642.2z"/>
	<path class="st0" d="M692.1,119l-9.8-19.3l-10,19.3h-4l12.7-24h2.6l12.6,24H692.1z"/>
</g>
<polygon class="st1" points="55,0 0,42.1 0,66.4 55,24.3 "/>
<polygon class="st2" points="59.3,24.3 114.3,66.4 114.3,42.1 59.3,0 "/>
<polygon class="st1" points="0,110.3 0,86 57.1,42.2 57.1,66.5 57.1,66.5 "/>
<polygon class="st2" points="114.3,110.3 114.3,86 57.1,42.2 57.1,66.5 57.1,66.5 "/>
<polygon class="st2" points="57.1,86 0,42.2 0,66.5 57.1,110.3 57.1,86 "/>
<polygon class="st1" points="114.3,42.2 114.3,66.5 57.1,110.3 57.1,86 57.1,86 "/>
<polygon class="st1" points="59.3,128.1 59.3,152.4 114.3,110.3 114.3,86 "/>
<path class="st2" d="M55,128.1C44.6,120.1,0,86,0,86v24.3l55,42.1V128.1z"/>
</svg>
