<?xml version="1.0" encoding="utf-8"?>
<!DOCTYPE svg PUBLIC "-//W3C//DTD SVG 1.1//EN" "http://www.w3.org/Graphics/SVG/1.1/DTD/svg11.dtd">
<svg xmlns="http://www.w3.org/2000/svg" xmlns:xlink="http://www.w3.org/1999/xlink" version="1.1" viewBox="0 0 512 512" enable-background="new 0 0 512 512" width="512px" height="512px">
  <g>
    <g>
      <g>
        <path d="m99,480.6v-107.6c-56.1-39-88-95.8-88-157.3 0-112.9 109.9-204.7 245-204.7s245,91.8 245,204.7c0,112.9-109.9,204.7-245,204.7-14.3,0-28.8-1.1-43.1-3.2l-79.1,77.9c-7,8.1-31.9,10.9-34.8-14.5zm157-428.8c-112.6-1.42109e-14-204.2,73.5-204.2,163.9 0,50.6 28.6,97.6 78.5,129 5.9,3.7 9.5,10.3 9.5,17.3v69.8l51.8-51c4.8-4.7 11.5-6.8 18.1-5.5 15.3,2.9 30.9,4.3 46.3,4.3 112.6,0 204.2-73.5 204.2-163.9 0-90.3-91.6-163.9-204.2-163.9z" fill="black"/>
      </g>
      <g>
        <g>
          <path d="m188.9,212.4v-16.7h19.3c4-15.1 11.6-27.2 22.8-36.3 11.2-9.1 24.8-13.6 40.9-13.6 19.9,0 36.9,8 51.1,24.1l-17.7,23.1c-9.7-11.8-21.1-17.7-34.2-17.7-14.9,0-25.1,6.8-30.8,20.5h46.4v16.7h-49.9c-0.1,1.3-0.2,3.3-0.2,6 0,2.7 0.1,4.6 0.2,5.8h49.9v16.7h-45.4c3.2,6.2 7.5,11 13,14.3 5.5,3.3 11.6,5 18.2,5 13.1,0 23.9-5.2 32.2-15.7l18.3,20.3c-7.2,8.4-15.4,14.6-24.8,18.7-9.4,4.1-18.7,6.2-28,6.2-15,0-28.1-4.4-39.2-13.2-11.1-8.8-18.8-20.7-22.9-35.5h-19.3v-16.7h16.7c-0.1-1.2-0.2-3.1-0.2-5.8 0-2.6 0.1-4.6 0.2-6h-16.6z" fill="black"/>
        </g>
      </g>
    </g>
  </g>
</svg>
