<svg xmlns="http://www.w3.org/2000/svg" viewBox="0 0 609.67 63.44"><defs><style>.cls-1{fill:#fff;}</style></defs><title>Asset 19</title><g id="Layer_2" data-name="Layer 2"><g id="Layer_1-2" data-name="Layer 1"><path class="cls-1" d="M126.89,63.17,113.61,43c-1.27.09-2.61.18-4.05.18H92.76v20H85.54V0h24c15.78,0,24.9,7.75,24.9,21.2,0,10.37-5.14,17.51-14.26,20.39l14.9,21.57ZM109.56,36.45c11.45,0,17.95-5.14,17.95-15.08,0-9.65-6.5-14.71-17.95-14.71H92.76V36.45Z"/><path class="cls-1" d="M216.88,47H182.49l-7,16.15h-7.66L196.12,0h7.48l28.25,63.17H224ZM214,40.33,199.64,7.84,185.46,40.33Z"/><path class="cls-1" d="M326,31.58c0,18-14.18,31.59-32.77,31.59H268V0H293.5C311.91,0,326,13.61,326,31.58Zm-7.33.09c0-14.25-11.18-25-25.36-25H275.17V56.5h18.42C307.66,56.5,318.67,45.84,318.67,31.66Z"/><path class="cls-1" d="M408.22,0V6.67H372.56v21.2h31.86v6.59H372.56v22h36.82v6.67h-44V0Z"/><path class="cls-1" d="M475.46,56.85c12,0,19.23-7.22,19.23-19.67V0h7.22V37.18c0,16.52-9.93,26.26-26.45,26.26s-26.63-9.74-26.63-26.26V0h7.22V37.18C456.05,49.63,463.47,56.85,475.46,56.85Z"/><path class="cls-1" d="M554.71,0l23.11,45.84L600.83,0h8.84V63.17H603l-.09-52.53-23,45.86h-4.33L552.63,10.64V63.17h-6.87V0Z"/><path class="cls-1" d="M48.46,0V6.68H27.8V63.17H20.58V6.68H0V0Z"/></g></g></svg>