<?xml version="1.0" encoding="utf-8"?>
<!-- Generator: Adobe Illustrator 22.0.1, SVG Export Plug-In . SVG Version: 6.00 Build 0)  -->
<svg version="1.1" id="Layer_1" xmlns="http://www.w3.org/2000/svg" xmlns:xlink="http://www.w3.org/1999/xlink" x="0px" y="0px"
	 viewBox="0 0 240 56.4" style="enable-background:new 0 0 240 56.4;" xml:space="preserve">
<style type="text/css">
	.st0{fill:#63297B;}
	.st1{fill:#9C237F;}
	.st2{fill:#EC177D;}
	.st3{fill:#DA0E7E;}
	.st4{fill:#BF1B80;}
	.st5{fill:#482979;}
	.st6{fill:#7E277D;}
	.st7{fill:#FFFFFF;}
</style>
<g>
	<g>
		<polygon class="st0" points="45.1,20.7 36.1,5 26.8,5.8 18.2,0 18.2,0.2 8.9,1.3 7.9,2.4 7.9,2.6 0,12.9 1.8,20.6 1.7,21 
			2.4,21.2 6.7,25.3 14.7,23.9 14.8,23.9 23.6,37.5 21,39.2 25.2,52.6 25.7,53.3 34.5,56.4 36.2,53.4 50.1,20.2 		"/>
		<polygon class="st0" points="42.2,44.5 41.2,52.4 43.9,53.4 47.4,42.4 43,43.6 		"/>
	</g>
	<g>
		<polygon class="st1" points="8.1,2.3 0,12.9 1.8,20.7 		"/>
		<polygon class="st2" points="2.2,21 15,23.8 6.7,25.3 		"/>
		<polygon class="st2" points="18.2,0 26.8,5.8 14.8,23.9 		"/>
		<polygon class="st3" points="14.8,23.9 1.7,21 7.9,2.4 8.9,1.3 18.2,0.2 		"/>
		<polygon class="st4" points="26.8,5.8 36.1,5 45.1,20.7 14.8,23.9 		"/>
		<polygon class="st1" points="23.6,37.4 14.8,23.9 50.1,20.2 		"/>
		<polygon class="st5" points="25.2,52.6 21,39.2 50.1,20.2 		"/>
		<polygon class="st6" points="34.5,56.4 25.7,53.3 25.2,52.6 50.1,20.2 36.2,53.4 		"/>
		<polygon class="st1" points="41.2,52.4 42.2,44.5 43,43.6 47.4,42.4 43.9,53.4 		"/>
		<polygon class="st0" points="34.5,56.4 25.7,53.3 25.2,52.6 32.6,43 36.2,53.4 		"/>
	</g>
</g>
<g>
	<path class="st7" d="M54.3,51.4c0-0.3,0-0.5,0-0.8c0-0.2,0-0.5-0.1-0.7h-2.6c-0.1,0.2-0.3,0.5-0.4,0.7c-0.1,0.2-0.3,0.5-0.4,0.8
		h-1.6c0.4-0.7,0.8-1.4,1.2-2c0.4-0.6,0.7-1.2,1.1-1.8c0.3-0.6,0.7-1.1,1-1.6c0.3-0.5,0.7-1,1-1.5h1.4c0.1,0.5,0.2,1,0.3,1.6
		c0.1,0.6,0.2,1.2,0.3,1.8s0.2,1.2,0.2,1.8c0.1,0.6,0.1,1.2,0.2,1.7H54.3z M53.9,46.1c-0.3,0.4-0.5,0.9-0.8,1.3
		c-0.3,0.4-0.5,0.9-0.8,1.3h1.8c0-0.4-0.1-0.8-0.1-1.3C54,47,54,46.5,53.9,46.1z"/>
	<path class="st7" d="M65,48.9c-0.2,0.9-0.6,1.6-1.1,2c-0.5,0.4-1.2,0.6-2,0.6c-0.4,0-0.8-0.1-1.1-0.2s-0.5-0.2-0.7-0.4
		s-0.3-0.4-0.4-0.7s-0.1-0.5-0.1-0.8c0-0.3,0-0.7,0.1-1.1l0.9-3.8h1.5l-1,4c-0.1,0.2-0.1,0.5-0.1,0.7c0,0.1,0,0.3,0,0.4
		c0,0.1,0.1,0.2,0.2,0.3c0.1,0.1,0.2,0.1,0.3,0.2c0.1,0,0.3,0.1,0.5,0.1c0.4,0,0.7-0.1,0.9-0.4c0.2-0.2,0.4-0.6,0.5-1l1-4.2h1.5
		L65,48.9z"/>
	<path class="st7" d="M70.5,51.4c-0.3-0.8-0.6-1.6-0.9-2.3c-0.3-0.8-0.7-1.5-1.1-2.2l-1.1,4.5h-1.5l1.6-6.8h1.2
		c0.2,0.2,0.3,0.5,0.5,0.8c0.2,0.3,0.4,0.6,0.5,1s0.4,0.7,0.6,1.1c0.2,0.4,0.4,0.8,0.5,1.2l1-4.1h1.5l-1.6,6.8H70.5z"/>
	<path class="st7" d="M74.8,44.6h1.5l-1.6,6.8h-1.5L74.8,44.6z"/>
	<path class="st7" d="M82.7,44.6l-0.3,1.3h-2l-1.3,5.5h-1.5l1.3-5.5h-2l0.3-1.3H82.7z"/>
	<path class="st7" d="M82,51.4l1.6-6.8h4.5l-0.3,1.3h-2.9l-0.3,1.4h2.6l-0.3,1.2h-2.6l-0.4,1.7H87l-0.3,1.3H82z"/>
	<path class="st7" d="M94.5,47.2c0,0.7-0.1,1.3-0.3,1.8c-0.2,0.5-0.5,1-0.9,1.3c-0.4,0.4-0.9,0.6-1.5,0.8c-0.6,0.2-1.2,0.3-2,0.3
		c-0.3,0-0.6,0-1,0c-0.4,0-0.7-0.1-1-0.2l1.6-6.6c0.4-0.1,0.7-0.1,1.1-0.2c0.3,0,0.7,0,0.9,0c0.5,0,0.9,0.1,1.3,0.2s0.7,0.3,1,0.6
		s0.5,0.5,0.6,0.9C94.4,46.5,94.5,46.8,94.5,47.2z M89.6,50.2c0.1,0,0.1,0,0.2,0c0.1,0,0.2,0,0.3,0c0.4,0,0.8-0.1,1.2-0.2
		c0.3-0.1,0.6-0.3,0.9-0.6c0.2-0.2,0.4-0.5,0.6-0.9c0.1-0.4,0.2-0.8,0.2-1.2c0-0.2,0-0.4-0.1-0.6c-0.1-0.2-0.2-0.3-0.3-0.5
		S92.2,46,92,45.9c-0.2-0.1-0.5-0.1-0.8-0.1c-0.2,0-0.4,0-0.6,0L89.6,50.2z"/>
	<path class="st7" d="M101.7,51.4c0-0.3,0-0.5,0-0.8c0-0.2,0-0.5-0.1-0.7H99c-0.1,0.2-0.3,0.5-0.4,0.7c-0.1,0.2-0.3,0.5-0.4,0.8
		h-1.6c0.4-0.7,0.8-1.4,1.2-2c0.4-0.6,0.7-1.2,1.1-1.8c0.3-0.6,0.7-1.1,1-1.6c0.3-0.5,0.7-1,1-1.5h1.4c0.1,0.5,0.2,1,0.3,1.6
		c0.1,0.6,0.2,1.2,0.3,1.8c0.1,0.6,0.2,1.2,0.2,1.8s0.1,1.2,0.2,1.7H101.7z M101.2,46.1c-0.3,0.4-0.5,0.9-0.8,1.3
		c-0.3,0.4-0.5,0.9-0.8,1.3h1.8c0-0.4-0.1-0.8-0.1-1.3C101.4,47,101.3,46.5,101.2,46.1z"/>
	<path class="st7" d="M104.1,51.4l1.6-6.8h4.4l-0.3,1.3H107l-0.3,1.5h2.6l-0.3,1.3h-2.6l-0.7,2.8H104.1z"/>
	<path class="st7" d="M113.3,44.5c0.4,0,0.8,0.1,1.2,0.2c0.3,0.1,0.6,0.2,0.8,0.4c0.2,0.2,0.4,0.4,0.5,0.6c0.1,0.2,0.2,0.5,0.2,0.8
		c0,0.2,0,0.4-0.1,0.6c0,0.2-0.1,0.4-0.3,0.6s-0.3,0.4-0.5,0.5s-0.5,0.3-0.9,0.4c0.2,0.3,0.4,0.8,0.6,1.2s0.4,1,0.5,1.5h-1.6
		c-0.2-0.5-0.3-0.9-0.5-1.3c-0.2-0.4-0.3-0.8-0.5-1.1h-0.8l-0.6,2.5h-1.5l1.6-6.7c0.4-0.1,0.7-0.1,1-0.1
		C112.7,44.5,113,44.5,113.3,44.5z M113.2,45.8c-0.1,0-0.2,0-0.3,0s-0.2,0-0.3,0l-0.4,1.9h0.5c0.3,0,0.6,0,0.8-0.1
		c0.2-0.1,0.4-0.1,0.5-0.2s0.2-0.2,0.3-0.3c0.1-0.1,0.1-0.3,0.1-0.4c0-0.1,0-0.2,0-0.3c0-0.1-0.1-0.2-0.2-0.3
		c-0.1-0.1-0.2-0.1-0.3-0.2S113.5,45.8,113.2,45.8z"/>
	<path class="st7" d="M117.8,44.6h1.5l-1.6,6.8h-1.5L117.8,44.6z"/>
	<path class="st7" d="M124.5,51.1c-0.3,0.1-0.6,0.2-0.9,0.3c-0.3,0.1-0.7,0.1-1.2,0.1c-0.4,0-0.8-0.1-1.1-0.2
		c-0.3-0.1-0.6-0.3-0.9-0.6c-0.2-0.3-0.4-0.6-0.6-0.9s-0.2-0.8-0.2-1.2c0-0.5,0.1-1,0.3-1.5c0.2-0.5,0.4-1,0.8-1.4
		c0.4-0.4,0.8-0.7,1.3-1c0.5-0.3,1.1-0.4,1.8-0.4c0.3,0,0.6,0,0.9,0.1c0.3,0.1,0.6,0.2,1,0.4l-0.6,1.2c-0.3-0.1-0.5-0.2-0.7-0.3
		s-0.5-0.1-0.7-0.1c-0.4,0-0.7,0.1-1,0.2s-0.6,0.4-0.8,0.6c-0.2,0.3-0.4,0.6-0.5,0.9c-0.1,0.3-0.2,0.7-0.2,1.1c0,0.6,0.1,1,0.4,1.3
		c0.3,0.3,0.6,0.4,1.1,0.4c0.3,0,0.6,0,0.9-0.1c0.3-0.1,0.5-0.2,0.7-0.3L124.5,51.1z"/>
	<path class="st7" d="M130.1,51.4c0-0.3,0-0.5,0-0.8c0-0.2,0-0.5-0.1-0.7h-2.6c-0.1,0.2-0.3,0.5-0.4,0.7c-0.1,0.2-0.3,0.5-0.4,0.8
		H125c0.4-0.7,0.8-1.4,1.2-2c0.4-0.6,0.7-1.2,1.1-1.8c0.3-0.6,0.7-1.1,1-1.6c0.3-0.5,0.7-1,1-1.5h1.4c0.1,0.5,0.2,1,0.3,1.6
		c0.1,0.6,0.2,1.2,0.3,1.8c0.1,0.6,0.2,1.2,0.2,1.8s0.1,1.2,0.2,1.7H130.1z M129.6,46.1c-0.3,0.4-0.5,0.9-0.8,1.3
		c-0.3,0.4-0.5,0.9-0.8,1.3h1.8c0-0.4-0.1-0.8-0.1-1.3C129.7,47,129.7,46.5,129.6,46.1z"/>
	<path class="st7" d="M137.1,51.4c-0.3-0.8-0.6-1.6-0.9-2.3c-0.3-0.8-0.7-1.5-1.1-2.2l-1.1,4.5h-1.5l1.6-6.8h1.2
		c0.2,0.2,0.3,0.5,0.5,0.8c0.2,0.3,0.4,0.6,0.5,1c0.2,0.4,0.4,0.7,0.6,1.1c0.2,0.4,0.4,0.8,0.5,1.2l1-4.1h1.5l-1.6,6.8H137.1z"/>
	<path class="st7" d="M147.4,51.1c-0.3,0.1-0.6,0.2-0.9,0.3c-0.3,0.1-0.7,0.1-1.2,0.1c-0.4,0-0.8-0.1-1.1-0.2s-0.6-0.3-0.9-0.6
		c-0.2-0.3-0.4-0.6-0.6-0.9s-0.2-0.8-0.2-1.2c0-0.5,0.1-1,0.3-1.5c0.2-0.5,0.4-1,0.8-1.4c0.4-0.4,0.8-0.7,1.3-1
		c0.5-0.3,1.1-0.4,1.8-0.4c0.3,0,0.6,0,0.9,0.1c0.3,0.1,0.6,0.2,1,0.4l-0.6,1.2c-0.3-0.1-0.5-0.2-0.7-0.3s-0.5-0.1-0.7-0.1
		c-0.4,0-0.7,0.1-1,0.2s-0.6,0.4-0.8,0.6c-0.2,0.3-0.4,0.6-0.5,0.9c-0.1,0.3-0.2,0.7-0.2,1.1c0,0.6,0.1,1,0.4,1.3
		c0.3,0.3,0.6,0.4,1.1,0.4c0.3,0,0.6,0,0.9-0.1c0.3-0.1,0.5-0.2,0.7-0.3L147.4,51.1z"/>
	<path class="st7" d="M151.9,44.5c0.4,0,0.8,0.1,1.2,0.2c0.3,0.1,0.6,0.2,0.8,0.4c0.2,0.2,0.4,0.4,0.5,0.6c0.1,0.2,0.2,0.5,0.2,0.8
		c0,0.2,0,0.4-0.1,0.6c0,0.2-0.1,0.4-0.3,0.6s-0.3,0.4-0.5,0.5s-0.5,0.3-0.9,0.4c0.2,0.3,0.4,0.8,0.6,1.2s0.4,1,0.5,1.5h-1.6
		c-0.2-0.5-0.3-0.9-0.5-1.3c-0.2-0.4-0.3-0.8-0.5-1.1h-0.8l-0.6,2.5h-1.5l1.6-6.7c0.4-0.1,0.7-0.1,1-0.1
		C151.3,44.5,151.6,44.5,151.9,44.5z M151.8,45.8c-0.1,0-0.2,0-0.3,0s-0.2,0-0.3,0l-0.4,1.9h0.5c0.3,0,0.6,0,0.8-0.1
		c0.2-0.1,0.4-0.1,0.5-0.2s0.2-0.2,0.3-0.3c0.1-0.1,0.1-0.3,0.1-0.4c0-0.1,0-0.2,0-0.3c0-0.1-0.1-0.2-0.2-0.3
		c-0.1-0.1-0.2-0.1-0.3-0.2S152.1,45.8,151.8,45.8z"/>
	<path class="st7" d="M157.7,47.4c0.2-0.2,0.4-0.5,0.5-0.7s0.3-0.5,0.5-0.7s0.3-0.5,0.5-0.7s0.3-0.5,0.5-0.7h1.7
		c-0.3,0.4-0.5,0.8-0.8,1.1s-0.5,0.7-0.8,1c-0.3,0.3-0.5,0.7-0.8,1s-0.6,0.7-0.9,1l-0.7,2.7h-1.5l0.7-2.7c-0.3-0.7-0.5-1.4-0.7-2
		s-0.4-1.4-0.6-2.1h1.6c0.1,0.5,0.2,0.9,0.3,1.4C157.4,46.4,157.6,46.9,157.7,47.4z"/>
	<path class="st7" d="M164.3,44.5c0.4,0,0.8,0,1.1,0.1s0.6,0.2,0.8,0.4c0.2,0.2,0.4,0.4,0.5,0.6s0.2,0.5,0.2,0.8
		c0,0.5-0.1,0.9-0.3,1.3c-0.2,0.3-0.5,0.6-0.8,0.8c-0.3,0.2-0.7,0.4-1.2,0.5c-0.5,0.1-0.9,0.1-1.5,0.1h-0.4l-0.6,2.3h-1.5l1.6-6.7
		c0.4-0.1,0.7-0.1,1-0.1C163.7,44.5,164,44.5,164.3,44.5z M164.2,45.8c-0.1,0-0.2,0-0.3,0c-0.1,0-0.2,0-0.2,0l-0.5,2h0.4
		c0.3,0,0.5,0,0.8-0.1c0.2,0,0.4-0.1,0.6-0.2s0.3-0.2,0.4-0.4s0.1-0.3,0.1-0.6c0-0.3-0.1-0.5-0.3-0.6S164.6,45.8,164.2,45.8z"/>
	<path class="st7" d="M173.6,44.6l-0.3,1.3h-2l-1.3,5.5h-1.5l1.3-5.5h-2l0.3-1.3H173.6z"/>
	<path class="st7" d="M176,51.5c-0.4,0-0.8-0.1-1.1-0.2c-0.3-0.1-0.6-0.3-0.9-0.6c-0.2-0.2-0.4-0.5-0.6-0.9
		c-0.1-0.4-0.2-0.8-0.2-1.2c0-0.5,0.1-1,0.3-1.5c0.2-0.5,0.4-1,0.8-1.4s0.7-0.7,1.2-1c0.5-0.3,1-0.4,1.6-0.4c0.4,0,0.8,0.1,1.1,0.2
		c0.3,0.1,0.6,0.3,0.9,0.6c0.2,0.2,0.4,0.5,0.6,0.9c0.1,0.4,0.2,0.8,0.2,1.2c0,0.5-0.1,1-0.3,1.5c-0.2,0.5-0.4,1-0.8,1.4
		s-0.7,0.7-1.2,1C177.1,51.4,176.6,51.5,176,51.5z M177,45.7c-0.3,0-0.6,0.1-0.8,0.2c-0.3,0.2-0.5,0.4-0.7,0.6
		c-0.2,0.3-0.3,0.6-0.5,0.9c-0.1,0.3-0.2,0.7-0.2,1.1c0,0.5,0.1,0.9,0.3,1.2s0.5,0.5,1,0.5c0.3,0,0.6-0.1,0.8-0.2
		c0.3-0.2,0.5-0.4,0.7-0.6c0.2-0.3,0.3-0.6,0.5-0.9c0.1-0.3,0.2-0.7,0.2-1.1c0-0.5-0.1-0.9-0.3-1.2S177.4,45.7,177,45.7z"/>
	<path class="st7" d="M185.5,51.1c-0.3,0.1-0.6,0.2-0.9,0.3c-0.3,0.1-0.7,0.1-1.2,0.1c-0.4,0-0.8-0.1-1.1-0.2s-0.6-0.3-0.9-0.6
		c-0.2-0.3-0.4-0.6-0.6-0.9s-0.2-0.8-0.2-1.2c0-0.5,0.1-1,0.3-1.5c0.2-0.5,0.4-1,0.8-1.4c0.4-0.4,0.8-0.7,1.3-1
		c0.5-0.3,1.1-0.4,1.8-0.4c0.3,0,0.6,0,0.9,0.1c0.3,0.1,0.6,0.2,1,0.4l-0.6,1.2c-0.3-0.1-0.5-0.2-0.7-0.3s-0.5-0.1-0.7-0.1
		c-0.4,0-0.7,0.1-1,0.2s-0.6,0.4-0.8,0.6c-0.2,0.3-0.4,0.6-0.5,0.9c-0.1,0.3-0.2,0.7-0.2,1.1c0,0.6,0.1,1,0.4,1.3
		c0.3,0.3,0.6,0.4,1.1,0.4c0.3,0,0.6,0,0.9-0.1c0.3-0.1,0.5-0.2,0.7-0.3L185.5,51.1z"/>
	<path class="st7" d="M192.2,48.9c-0.2,0.9-0.6,1.6-1.1,2c-0.5,0.4-1.2,0.6-2,0.6c-0.4,0-0.8-0.1-1.1-0.2c-0.3-0.1-0.5-0.2-0.7-0.4
		c-0.2-0.2-0.3-0.4-0.4-0.7s-0.1-0.5-0.1-0.8c0-0.3,0-0.7,0.1-1.1l0.9-3.8h1.5l-1,4c-0.1,0.2-0.1,0.5-0.1,0.7c0,0.1,0,0.3,0,0.4
		c0,0.1,0.1,0.2,0.2,0.3c0.1,0.1,0.2,0.1,0.3,0.2c0.1,0,0.3,0.1,0.5,0.1c0.4,0,0.7-0.1,0.9-0.4c0.2-0.2,0.4-0.6,0.5-1l1-4.2h1.5
		L192.2,48.9z"/>
	<path class="st7" d="M196.6,44.5c0.4,0,0.8,0.1,1.2,0.2c0.3,0.1,0.6,0.2,0.8,0.4c0.2,0.2,0.4,0.4,0.5,0.6c0.1,0.2,0.2,0.5,0.2,0.8
		c0,0.2,0,0.4-0.1,0.6c0,0.2-0.1,0.4-0.3,0.6s-0.3,0.4-0.5,0.5s-0.5,0.3-0.9,0.4c0.2,0.3,0.4,0.8,0.6,1.2s0.4,1,0.5,1.5h-1.6
		c-0.2-0.5-0.3-0.9-0.5-1.3c-0.2-0.4-0.3-0.8-0.5-1.1h-0.8l-0.6,2.5H193l1.6-6.7c0.4-0.1,0.7-0.1,1-0.1
		C196,44.5,196.3,44.5,196.6,44.5z M196.5,45.8c-0.1,0-0.2,0-0.3,0s-0.2,0-0.3,0l-0.4,1.9h0.5c0.3,0,0.6,0,0.8-0.1
		c0.2-0.1,0.4-0.1,0.5-0.2s0.2-0.2,0.3-0.3c0.1-0.1,0.1-0.3,0.1-0.4c0-0.1,0-0.2,0-0.3c0-0.1-0.1-0.2-0.2-0.3
		c-0.1-0.1-0.2-0.1-0.3-0.2S196.8,45.8,196.5,45.8z"/>
	<path class="st7" d="M203,44.5c0.4,0,0.8,0.1,1.2,0.2c0.3,0.1,0.6,0.2,0.8,0.4c0.2,0.2,0.4,0.4,0.5,0.6c0.1,0.2,0.2,0.5,0.2,0.8
		c0,0.2,0,0.4-0.1,0.6c0,0.2-0.1,0.4-0.3,0.6s-0.3,0.4-0.5,0.5s-0.5,0.3-0.9,0.4c0.2,0.3,0.4,0.8,0.6,1.2s0.4,1,0.5,1.5h-1.6
		c-0.2-0.5-0.3-0.9-0.5-1.3c-0.2-0.4-0.3-0.8-0.5-1.1h-0.8l-0.6,2.5h-1.5l1.6-6.7c0.4-0.1,0.7-0.1,1-0.1
		C202.4,44.5,202.8,44.5,203,44.5z M203,45.8c-0.1,0-0.2,0-0.3,0s-0.2,0-0.3,0l-0.4,1.9h0.5c0.3,0,0.6,0,0.8-0.1
		c0.2-0.1,0.4-0.1,0.5-0.2s0.2-0.2,0.3-0.3c0.1-0.1,0.1-0.3,0.1-0.4c0-0.1,0-0.2,0-0.3c0-0.1-0.1-0.2-0.2-0.3
		c-0.1-0.1-0.2-0.1-0.3-0.2S203.2,45.8,203,45.8z"/>
	<path class="st7" d="M205.9,51.4l1.6-6.8h4.5l-0.3,1.3h-2.9l-0.3,1.4h2.6l-0.3,1.2h-2.6l-0.4,1.7h3.2l-0.3,1.3H205.9z"/>
	<path class="st7" d="M216.3,51.4c-0.3-0.8-0.6-1.6-0.9-2.3c-0.3-0.8-0.7-1.5-1.1-2.2l-1.1,4.5h-1.5l1.6-6.8h1.2
		c0.2,0.2,0.3,0.5,0.5,0.8c0.2,0.3,0.4,0.6,0.5,1c0.2,0.4,0.4,0.7,0.6,1.1c0.2,0.4,0.4,0.8,0.5,1.2l1-4.1h1.5l-1.6,6.8H216.3z"/>
	<path class="st7" d="M224.3,51.1c-0.3,0.1-0.6,0.2-0.9,0.3c-0.3,0.1-0.7,0.1-1.2,0.1c-0.4,0-0.8-0.1-1.1-0.2s-0.6-0.3-0.9-0.6
		c-0.2-0.3-0.4-0.6-0.6-0.9s-0.2-0.8-0.2-1.2c0-0.5,0.1-1,0.3-1.5c0.2-0.5,0.4-1,0.8-1.4c0.4-0.4,0.8-0.7,1.3-1
		c0.5-0.3,1.1-0.4,1.8-0.4c0.3,0,0.6,0,0.9,0.1c0.3,0.1,0.6,0.2,1,0.4l-0.6,1.2c-0.3-0.1-0.5-0.2-0.7-0.3s-0.5-0.1-0.7-0.1
		c-0.4,0-0.7,0.1-1,0.2s-0.6,0.4-0.8,0.6c-0.2,0.3-0.4,0.6-0.5,0.9c-0.1,0.3-0.2,0.7-0.2,1.1c0,0.6,0.1,1,0.4,1.3
		c0.3,0.3,0.6,0.4,1.1,0.4c0.3,0,0.6,0,0.9-0.1c0.3-0.1,0.5-0.2,0.7-0.3L224.3,51.1z"/>
	<path class="st7" d="M228.6,47.4c0.2-0.2,0.4-0.5,0.5-0.7s0.3-0.5,0.5-0.7s0.3-0.5,0.5-0.7s0.3-0.5,0.5-0.7h1.7
		c-0.3,0.4-0.5,0.8-0.8,1.1s-0.5,0.7-0.8,1c-0.3,0.3-0.5,0.7-0.8,1s-0.6,0.7-0.9,1l-0.7,2.7h-1.5l0.7-2.7c-0.3-0.7-0.5-1.4-0.7-2
		s-0.4-1.4-0.6-2.1h1.6c0.1,0.5,0.2,0.9,0.3,1.4C228.3,46.4,228.4,46.9,228.6,47.4z"/>
</g>
<g>
	<path class="st7" d="M74.4,41.3c-0.1-1-0.1-2-0.2-3c-0.1-1-0.1-1.9-0.2-2.9H63.9c-0.5,1-1.1,1.9-1.6,2.9c-0.6,1-1.1,2-1.6,3h-6.3
		c1.7-2.9,3.3-5.6,4.7-8.1c1.5-2.5,2.9-4.8,4.2-7s2.7-4.3,4-6.2c1.3-2,2.6-3.9,4-5.7h5.4c0.4,1.9,0.8,3.9,1.2,6.2
		c0.4,2.3,0.7,4.6,1.1,7c0.3,2.4,0.6,4.8,0.9,7.1c0.3,2.4,0.5,4.6,0.8,6.7H74.4z M72.6,20.2c-1.1,1.7-2.2,3.5-3.2,5.2
		c-1.1,1.7-2.1,3.5-3.1,5.3h7.3c-0.1-1.6-0.3-3.3-0.4-5.1C73.1,23.8,72.9,22,72.6,20.2z"/>
	<path class="st7" d="M83.5,41.3l6.5-27h17.5l-1.2,5H94.7l-1.4,5.8h10.1l-1.2,5H92.2l-2.7,11.2H83.5z"/>
	<path class="st7" d="M119.2,14c1.7,0,3.3,0.2,4.6,0.6c1.3,0.4,2.4,1,3.2,1.7c0.9,0.7,1.5,1.5,1.9,2.5c0.4,0.9,0.6,1.9,0.6,3
		c0,0.9-0.1,1.7-0.3,2.5c-0.2,0.8-0.6,1.6-1.1,2.4c-0.5,0.8-1.2,1.4-2.1,2.1c-0.9,0.6-2,1.2-3.4,1.6c0.7,1.3,1.5,3,2.2,4.9
		c0.8,1.9,1.5,3.9,2.2,6h-6.5c-0.6-1.8-1.2-3.6-1.8-5.3c-0.6-1.8-1.3-3.3-2-4.5h-3l-2.4,9.9h-6l6.3-26.6c1.4-0.3,2.8-0.4,4.1-0.5
		C116.9,14.1,118.1,14,119.2,14z M119,19.1c-0.4,0-0.9,0-1.4,0c-0.5,0-0.9,0.1-1.2,0.1l-1.8,7.4h2.1c1.2,0,2.3-0.1,3.2-0.4
		c0.9-0.2,1.5-0.5,2.1-0.9c0.5-0.4,0.9-0.8,1.1-1.3c0.2-0.5,0.3-1,0.3-1.5c0-0.4-0.1-0.9-0.2-1.3c-0.1-0.4-0.4-0.8-0.7-1.1
		s-0.8-0.6-1.4-0.7C120.7,19.2,119.9,19.1,119,19.1z"/>
	<path class="st7" d="M136.5,14.3h6.1l-6.5,27h-6L136.5,14.3z"/>
	<path class="st7" d="M162.5,40.1c-1.1,0.5-2.2,0.9-3.5,1.2c-1.3,0.3-2.9,0.5-4.8,0.5c-1.6,0-3.1-0.3-4.4-0.8
		c-1.3-0.5-2.5-1.3-3.4-2.3c-0.9-1-1.7-2.2-2.2-3.6c-0.5-1.4-0.8-3-0.8-4.8c0-2,0.4-4,1.1-6c0.7-2,1.8-3.8,3.2-5.4
		c1.4-1.6,3.1-2.8,5.1-3.8c2-1,4.3-1.5,7-1.5c1.2,0,2.5,0.1,3.7,0.4c1.2,0.3,2.5,0.8,3.8,1.5l-2.2,4.7c-1.1-0.6-2.1-1-2.9-1.2
		c-0.9-0.2-1.8-0.3-2.8-0.3c-1.5,0-2.8,0.3-4,0.9c-1.2,0.6-2.2,1.4-3,2.4c-0.8,1-1.5,2.2-1.9,3.6c-0.4,1.4-0.7,2.8-0.7,4.3
		c0,2.3,0.5,3.9,1.5,5c1,1,2.4,1.6,4.3,1.6c1.2,0,2.4-0.1,3.4-0.4s2-0.6,2.9-1L162.5,40.1z"/>
	<path class="st7" d="M177.6,41.8c-1.6,0-3-0.3-4.4-0.8c-1.3-0.5-2.5-1.3-3.4-2.2c-1-1-1.7-2.2-2.2-3.6c-0.5-1.4-0.8-3-0.8-4.8
		c0-2,0.4-4,1.1-6c0.7-2,1.7-3.8,3-5.4c1.3-1.6,2.9-2.9,4.8-3.9c1.9-1,4-1.5,6.4-1.5c1.6,0,3,0.3,4.4,0.8c1.3,0.5,2.5,1.3,3.4,2.2
		s1.7,2.2,2.2,3.6s0.8,3,0.8,4.8c0,2-0.3,4-1,6.1c-0.7,2-1.7,3.8-3,5.4c-1.3,1.6-2.9,2.9-4.8,3.9C182.2,41.3,180.1,41.8,177.6,41.8z
		 M181.5,18.9c-1.2,0-2.3,0.3-3.3,0.9s-1.9,1.5-2.7,2.5c-0.8,1-1.4,2.2-1.8,3.6c-0.4,1.4-0.6,2.7-0.6,4.2c0,1.9,0.4,3.5,1.2,4.7
		c0.8,1.2,2.1,1.8,4,1.8c1.2,0,2.3-0.3,3.3-0.9s1.9-1.5,2.7-2.5c0.8-1,1.4-2.2,1.8-3.6c0.4-1.3,0.6-2.7,0.6-4.2
		c0-1.9-0.4-3.5-1.2-4.7C184.7,19.5,183.3,18.9,181.5,18.9z"/>
	<path class="st7" d="M200.2,14.3h6.1l-6.5,27h-6L200.2,14.3z"/>
	<path class="st7" d="M223.5,41.3c-1.1-3.1-2.3-6.1-3.6-9.2c-1.3-3.1-2.8-6-4.3-8.7l-4.3,17.9h-6l6.5-27h4.6c0.6,0.9,1.2,2,1.9,3.2
		c0.7,1.2,1.4,2.6,2.1,4s1.5,2.9,2.2,4.5s1.4,3.1,2.1,4.6l3.9-16.2h6l-6.5,27H223.5z"/>
</g>
</svg>
